SplineFontDB: 3.2
FontName: IthkuilBasic
FullName: Ithkuil Basic
FamilyName: IthkuilBasic
Weight: Regular
Copyright: Shankar Sivarajan\nBased on glyphs by Kevin McCurdy and Zachary Sakowitz.
UComments: "2023-2-19: Created with FontForge (http://fontforge.org)"
Version: 
ItalicAngle: 0
UnderlinePosition: -24
UnderlineWidth: 12
Ascent: 96
Descent: 32
InvalidEm: 0
LayerCount: 2
Layer: 0 0 "Back" 1
Layer: 1 0 "Fore" 0
XUID: [1021 73 1113128204 8431]
FSType: 0
OS2Version: 0
OS2_WeightWidthSlopeOnly: 0
OS2_UseTypoMetrics: 1
CreationTime: 1676795389
ModificationTime: 1693717379
PfmFamily: 17
TTFWeight: 400
TTFWidth: 5
LineGap: 12
VLineGap: 0
OS2TypoAscent: 0
OS2TypoAOffset: 1
OS2TypoDescent: 0
OS2TypoDOffset: 1
OS2TypoLinegap: 12
OS2WinAscent: 0
OS2WinAOffset: 1
OS2WinDescent: 0
OS2WinDOffset: 1
HheadAscent: 0
HheadAOffset: 1
HheadDescent: 0
HheadDOffset: 1
OS2Vendor: 'PfEd'
OS2CodePages: 00000000.00000000
OS2UnicodeRanges: 00000000.00000000.00000000.00000000
Lookup: 6 0 0 "OneQuote" { "OneQuote subtable"  } ['liga' ('grek' <'dflt' > 'latn' <'dflt' > 'DFLT' <'dflt' > ) ]
Lookup: 1 0 0 "Single Substitution lookup 1" { "Single Substitution lookup 1 subtable"  } []
Lookup: 4 0 1 "ExtraMoveDiacritic" { "ExtraMoveDiacritic subtable"  } ['liga' ('grek' <'dflt' > 'latn' <'dflt' > 'DFLT' <'dflt' > ) ]
Lookup: 4 0 1 "FlipCores" { "FlipCores subtable"  } ['liga' ('grek' <'dflt' > 'latn' <'dflt' > 'DFLT' <'dflt' > ) ]
Lookup: 4 0 1 "TertiaryLigature" { "TertiaryLigature subtable"  } ['liga' ('grek' <'dflt' > 'latn' <'dflt' > 'DFLT' <'dflt' > ) ]
Lookup: 4 0 1 "VowelLigature" { "VowelLigature subtable"  } ['liga' ('grek' <'dflt' > 'latn' <'dflt' > 'DFLT' <'dflt' > ) ]
Lookup: 4 0 1 "RegisterLigature" { "RegisterLigature subtable"  } ['liga' ('grek' <'dflt' > 'latn' <'dflt' > 'DFLT' <'dflt' > ) ]
Lookup: 6 0 0 "VowelAnchor" { "VowelAnchor contextual 0"  "VowelAnchor contextual 1"  } ['liga' ('grek' <'dflt' > 'latn' <'dflt' > 'DFLT' <'dflt' > ) ]

StartChar: RPV.VAR
Encoding: -1 -1 0
Width: 1024
VWidth: 1024
Flags: H
LayerCount: 2
Back
SplineSet
-202 543 m 4
 -202 596 -159 639 -106 639 c 4
 -53 639 -10 596 -10 543 c 4
 -10 490 -53 447 -106 447 c 4
 -159 447 -202 490 -202 543 c 4
-250 495 m 4
 -250 548 -207 591 -154 591 c 4
 -101 591 -58 548 -58 495 c 4
 -58 442 -101 399 -154 399 c 4
 -207 399 -250 442 -250 495 c 4
EndSplineSet
Fore
Validated: 1
EndChar

StartChar: b.ext.diagup
Encoding: 86 -1 1
Width: 80
VWidth: 102
Flags: HW
AnchorPoint: "Extension_mkmk" 35 65 mark 0
LayerCount: 2
Fore
SplineSet
32.5 62.5 m 1
 37.4501953125 67.4501953125 l 1
 39.5166015625 63.216796875 38.25 61.166015625 33.650390625 61.2998046875 c 1
 24.900390625 52.5 l 1
 7.4501953125 52.5 l 1
 17.4501953125 62.5 l 1
 32.5 62.5 l 1
EndSplineSet
EndChar

StartChar: b.ext.right
Encoding: 87 -1 2
Width: 80
VWidth: 102
Flags: HW
AnchorPoint: "Extension_mkmk" 35 65 mark 0
LayerCount: 2
Fore
SplineSet
40 70 m 1
 30.0498046875 60 l 1
 23.7998046875 60 l 1
 31.2666015625 63.8662109375 33.349609375 67.2001953125 30.0498046875 70 c 1
 37.650390625 70 l 1
 47.599609375 80 l 1
 65.0498046875 80 l 1
 55.0498046875 70 l 1
 40 70 l 1
EndSplineSet
EndChar

StartChar: b.ext.up
Encoding: 88 -1 3
Width: 80
VWidth: 102
Flags: HW
AnchorPoint: "Extension_mkmk" 35 65 mark 0
LayerCount: 2
Fore
SplineSet
30 60 m 1
 30.0498046875 60 l 1
 40 70 l 1
 40 56.5498046875 l 1
 36.3994140625 58.0830078125 33.06640625 56.75 30 52.5498046875 c 1
 30.0498046875 57.599609375 l 1
 22.4501953125 50 l 1
 5 50 l 1
 15 60 l 1
 30 60 l 1
EndSplineSet
Substitution2: "Single Substitution lookup 29 subtable" b.ext.left
Substitution2: "Single Substitution lookup 28 subtable" b.ext.right
Substitution2: "Single Substitution lookup 27 subtable" b.ext.diagup
Substitution2: "Single Substitution lookup 23 subtable" b.ext.left
Substitution2: "Single Substitution lookup 22 subtable" b.ext.right
Substitution2: "Single Substitution lookup 21 subtable" b.ext.diagup
EndChar

StartChar: c.ext.diagup
Encoding: 89 -1 4
Width: 80
VWidth: 102
Flags: HW
AnchorPoint: "Extension_mkmk" 35 65 mark 0
LayerCount: 2
Fore
SplineSet
32.5 62.5 m 1
 37.4501953125 67.4501953125 l 1
 39.5166015625 63.216796875 38.25 61.166015625 33.650390625 61.2998046875 c 1
 24.900390625 52.5 l 1
 7.4501953125 52.5 l 1
 26.150390625 71.2001953125 l 1
 27.349609375 70 l 1
 19.849609375 62.5 l 1
 32.5 62.5 l 1
EndSplineSet
EndChar

StartChar: c.ext.right
Encoding: 90 -1 5
Width: 80
VWidth: 102
Flags: HW
AnchorPoint: "Extension_mkmk" 35 65 mark 0
LayerCount: 2
Fore
SplineSet
40 70 m 1
 30.0498046875 60 l 1
 23.7998046875 60 l 1
 31.2666015625 63.8662109375 33.349609375 67.2001953125 30.0498046875 70 c 1
 37.650390625 70 l 1
 47.599609375 80 l 1
 65.0498046875 80 l 1
 46.349609375 61.2998046875 l 1
 45.150390625 62.5 l 1
 52.650390625 70 l 1
 40 70 l 1
EndSplineSet
EndChar

StartChar: c.ext.up
Encoding: 91 -1 6
Width: 80
VWidth: 102
Flags: HW
AnchorPoint: "Extension_mkmk" 35 65 mark 0
LayerCount: 2
Fore
SplineSet
30.0498046875 57.599609375 m 1
 22.4501953125 50 l 1
 5 50 l 1
 23.7001953125 68.7001953125 l 1
 24.900390625 67.5 l 1
 17.400390625 60 l 1
 30.0498046875 60 l 1
 40 70 l 1
 40 56.5498046875 l 1
 36.3994140625 58.0830078125 33.06640625 56.75 30 52.5498046875 c 1
 30.0498046875 57.599609375 l 1
EndSplineSet
Substitution2: "Single Substitution lookup 29 subtable" c.ext.left
Substitution2: "Single Substitution lookup 28 subtable" c.ext.right
Substitution2: "Single Substitution lookup 27 subtable" c.ext.diagup
Substitution2: "Single Substitution lookup 23 subtable" c.ext.left
Substitution2: "Single Substitution lookup 22 subtable" c.ext.right
Substitution2: "Single Substitution lookup 21 subtable" c.ext.diagup
EndChar

StartChar: two.hund
Encoding: 92 -1 7
Width: 80
GlyphClass: 4
Flags: HW
AnchorPoint: "Extension_mkmk" 66 73 mark 0
LayerCount: 2
Fore
SplineSet
68.8759765625 77.3251953125 m 2
 66.4560546875 71.005859375 63.130859375 69.2099609375 59.6650390625 68.1142578125 c 1
 59.6650390625 80.9228515625 l 1
 68.8759765625 80.80859375 l 1
 68.8759765625 77.3251953125 l 2
29.7734375 85.7890625 m 2
 20 76.015625 l 1
 24.2421875 113.234375 68.8759765625 103.73046875 68.8759765625 80.80859375 c 0
 65.2607421875 75.6025390625 63.810546875 75.2041015625 59.6650390625 71.45703125 c 1
 59.6650390625 96.294921875 28.349609375 105.224609375 29.7734375 85.7890625 c 2
EndSplineSet
EndChar

StartChar: one.ten
Encoding: 93 -1 8
Width: 80
GlyphClass: 4
Flags: HW
AnchorPoint: "Extension_mkmk" 24 12 mark 0
LayerCount: 2
Fore
SplineSet
20 8.7890625 m 2
 22.6806640625 15.7705078125 26.041015625 15.9345703125 29.2109375 18 c 1
 29.2109375 5.220703125 l 1
 20 -3.990234375 l 1
 20 8.7890625 l 2
20 -3.990234375 m 1
 21.845703125 2.0068359375 24.986328125 4.9072265625 29.2109375 5.220703125 c 0
 40.220703125 2.724609375 45.0283203125 -3.1904296875 48.587890625 -9.2314453125 c 2
 40.58984375 -17.2294921875 l 1
 36.5966796875 -9.84375 29.978515625 -3.0673828125 20 -3.990234375 c 1
EndSplineSet
EndChar

StartChar: two.ten
Encoding: 94 -1 9
Width: 80
Flags: HW
AnchorPoint: "Extension_mkmk" 24 12 mark 0
LayerCount: 2
Fore
SplineSet
20 8.7890625 m 2
 22.419921875 15.1083984375 25.7451171875 16.904296875 29.2109375 18 c 1
 29.2109375 5.1884765625 l 1
 20 5.3056640625 l 1
 20 8.7890625 l 2
59.1025390625 0.3251953125 m 2
 68.8759765625 10.0986328125 l 1
 64.6337890625 -27.1201171875 20 -17.6162109375 20 5.3056640625 c 0
 23.615234375 10.51171875 25.0654296875 10.91015625 29.2109375 14.6572265625 c 1
 29.2109375 -10.1806640625 60.529296875 -19.1103515625 59.1025390625 0.3251953125 c 2
EndSplineSet
EndChar

StartChar: three.ten
Encoding: 95 -1 10
Width: 80
Flags: HW
AnchorPoint: "Extension_mkmk" 40 12 mark 0
LayerCount: 2
Fore
SplineSet
35.29296875 7.7890625 m 0
 37.3701171875 13.0537109375 40.5751953125 15.8310546875 44.50390625 17 c 1
 44.50390625 -6.6396484375 28.578125 -6.33203125 28.578125 -6.33203125 c 1
 28.578125 -6.33203125 27.259765625 -7.52734375 26.521484375 -4.0439453125 c 1
 35.22265625 -4.31640625 35.7001953125 -1.8701171875 35.29296875 7.7890625 c 0
39.9951171875 -23.646484375 m 1
 20 -10.45703125 l 1
 26.521484375 -4.0439453125 l 1
 46.82421875 -16.4833984375 l 1
 39.9951171875 -23.646484375 l 1
EndSplineSet
EndChar

StartChar: four.ten
Encoding: 96 -1 11
Width: 80
Flags: HW
AnchorPoint: "Extension_mkmk" 32 12 mark 0
LayerCount: 2
Fore
SplineSet
27.8837890625 8.7451171875 m 0
 29.451171875 15.9345703125 36.7138671875 18.369140625 37.09765625 17.9560546875 c 0
 37.1240234375 7.5439453125 43.2529296875 5.6982421875 49.203125 3.6884765625 c 1
 38.8994140625 -2.25 l 1
 38.8994140625 -2.25 27.8837890625 2.923828125 27.8837890625 8.7451171875 c 0
49.203125 3.6884765625 m 1
 40.7333984375 -1.658203125 26.36328125 -10.9921875 20 -12.697265625 c 1
 29.703125 -5.1708984375 31.9912109375 -2.9794921875 44.9931640625 5.220703125 c 2
 49.203125 3.6884765625 l 1
EndSplineSet
EndChar

StartChar: five.ten
Encoding: 97 -1 12
Width: 80
Flags: HW
AnchorPoint: "Extension_mkmk" 50 12 mark 0
LayerCount: 2
Fore
SplineSet
44.814453125 8.7890625 m 2
 47.796875 13.681640625 50.9140625 15.8115234375 54.025390625 18 c 1
 54.025390625 7.2890625 l 1
 47.69140625 0.955078125 l 1
 20 0.955078125 l 1
 26.333984375 7.2890625 l 1
 44.8466796875 7.2890625 l 1
 44.814453125 8.7890625 l 2
48.9921875 -21.3251953125 m 1
 39.3271484375 -7.3916015625 35.873046875 -5.091796875 20 0.955078125 c 1
 26.333984375 7.2890625 l 2
 37.7744140625 1.939453125 44.1142578125 -1.7255859375 55.7890625 -14.2294921875 c 2
 48.9921875 -21.3251953125 l 1
EndSplineSet
EndChar

StartChar: six.ten
Encoding: 98 -1 13
Width: 80
Flags: HW
AnchorPoint: "Extension_mkmk" 27 12 mark 0
LayerCount: 2
Fore
SplineSet
22.5517578125 8.7890625 m 2
 25.232421875 15.7705078125 28.5927734375 15.9345703125 31.7626953125 18 c 1
 31.7626953125 7.7783203125 l 1
 22.5517578125 1.1630859375 l 1
 22.5517578125 8.7890625 l 2
31.7626953125 7.7783203125 m 2
 57.40625 7.7783203125 l 1
 49.7509765625 1.1630859375 l 1
 22.5517578125 1.1630859375 l 1
 25.138671875 4.142578125 27.8720703125 6.8876953125 31.7626953125 7.7783203125 c 2
20 -22.013671875 m 1
 20 -4.79296875 42.13671875 0.2841796875 57.40625 7.7783203125 c 1
 49.7509765625 1.1630859375 l 2
 46.3203125 -0.8173828125 31.4111328125 -1.078125 31.4111328125 -12.4892578125 c 2
 20 -22.013671875 l 1
EndSplineSet
EndChar

StartChar: seven.ten
Encoding: 99 -1 14
Width: 80
Flags: HW
AnchorPoint: "Extension_mkmk" 41 12 mark 0
LayerCount: 2
Fore
SplineSet
37.0771484375 8.7890625 m 2
 39.7548828125 15.7705078125 43.1181640625 15.9345703125 46.2880859375 18 c 1
 46.2880859375 5.220703125 l 1
 37.0771484375 0.046875 l 1
 37.0771484375 8.7890625 l 2
37.0771484375 0.046875 m 1
 37.0771484375 0.046875 l 1
 39.86328125 2.185546875 42.5205078125 4.5205078125 46.2880859375 5.220703125 c 0
 81.072265625 4.4091796875 55.6572265625 -25.1484375 20 -8.173828125 c 1
 25.89453125 -2.279296875 l 1
 32.673828125 -11.4521484375 71.287109375 -11.2763671875 52.5634765625 -2.4580078125 c 0
 49.982421875 -1.2421875 42.32421875 -0.05859375 37.0771484375 0.046875 c 1
EndSplineSet
EndChar

StartChar: eight.ten
Encoding: 100 -1 15
Width: 80
Flags: HW
AnchorPoint: "Extension_mkmk" 42 12 mark 0
LayerCount: 2
Fore
SplineSet
37.4111328125 8.7890625 m 2
 40.0888671875 15.7705078125 43.4521484375 15.9345703125 46.6220703125 18 c 1
 46.6220703125 3.732421875 l 1
 37.4111328125 3.75 l 1
 37.4111328125 8.7890625 l 2
46.6220703125 3.732421875 m 1
 38.80859375 -4.083984375 l 2
 35.31640625 -3.521484375 28.7421875 -2.0712890625 25.958984375 -6.3251953125 c 0
 22.77734375 -11.19140625 46.4345703125 -14.349609375 56.322265625 -8.970703125 c 1
 50.75 -27 -8.705078125 -19.3564453125 37.4111328125 3.75 c 0
 41.65625 5.9970703125 43.8505859375 4.3125 46.6220703125 3.732421875 c 2
 46.6220703125 3.732421875 l 1
EndSplineSet
EndChar

StartChar: nine.ten
Encoding: 101 -1 16
Width: 80
Flags: HW
AnchorPoint: "Extension_mkmk" 24 13 mark 0
LayerCount: 2
Fore
SplineSet
20 8.7890625 m 6
 22.6806640625 15.7705078125 26.041015625 15.9345703125 29.2109375 18 c 5
 29.2109375 3.732421875 l 5
 20 -2.103515625 l 5
 20 8.7890625 l 6
20 -2.103515625 m 5
 40.75390625 24.1025390625 60.828125 2.103515625 31.84765625 -20.6865234375 c 5
 34.3173828125 -15.9521484375 36.20703125 -13.166015625 37.947265625 -8.2939453125 c 4
 41.169921875 0.71484375 34.6396484375 8.068359375 20 -2.103515625 c 5
EndSplineSet
EndChar

StartChar: one.hund
Encoding: 102 -1 17
Width: 80
Flags: HW
HStem: 68.7705 21G<39.377 40.9619> 81.5498 9.21094<37.3841 42.6795>
VStem: 39.377 9.21094<76.1898 81.5498>
AnchorPoint: "Extension_mkmk" 45 73 mark 0
LayerCount: 2
Fore
SplineSet
48.587890625 77.9814453125 m 2x60
 45.9072265625 70.9970703125 42.546875 70.8359375 39.376953125 68.7705078125 c 1xa0
 39.376953125 81.5498046875 l 1
 48.587890625 90.7607421875 l 1
 48.587890625 77.9814453125 l 2x60
48.587890625 90.7607421875 m 1x60
 46.7421875 84.7607421875 43.6015625 81.8603515625 39.376953125 81.5498046875 c 0
 28.3671875 84.0458984375 23.556640625 89.9609375 20 96.001953125 c 2
 27.998046875 104 l 1
 31.9912109375 96.611328125 38.609375 89.8349609375 48.587890625 90.7607421875 c 1x60
EndSplineSet
EndChar

StartChar: three.hund
Encoding: 103 -1 18
Width: 80
Flags: HW
AnchorPoint: "Extension_mkmk" 27 73 mark 0
LayerCount: 2
Fore
SplineSet
31.5341796875 77.564453125 m 0
 29.4541015625 72.2998046875 26.2490234375 69.5224609375 22.3203125 68.353515625 c 1
 22.3203125 91.9931640625 38.24609375 91.685546875 38.24609375 91.685546875 c 1
 38.24609375 91.685546875 39.564453125 92.880859375 40.302734375 89.3974609375 c 1
 31.6015625 89.669921875 31.1240234375 87.2236328125 31.5341796875 77.564453125 c 0
26.8291015625 109 m 1
 46.82421875 95.810546875 l 1
 40.302734375 89.3974609375 l 1
 20 101.836914062 l 1
 26.8291015625 109 l 1
EndSplineSet
EndChar

StartChar: four.hund
Encoding: 104 -1 19
Width: 80
Flags: HW
AnchorPoint: "Extension_mkmk" 38 73 mark 0
LayerCount: 2
Fore
SplineSet
41.31640625 77.5576171875 m 0
 39.751953125 70.3681640625 32.486328125 67.93359375 32.10546875 68.3466796875 c 0
 32.0791015625 78.7587890625 25.947265625 80.6044921875 20 82.6142578125 c 1
 30.3037109375 88.552734375 l 1
 30.3037109375 88.552734375 41.31640625 83.37890625 41.31640625 77.5576171875 c 0
20 82.6142578125 m 1
 28.4697265625 87.9609375 42.8369140625 97.294921875 49.203125 99 c 1
 39.4970703125 91.4736328125 37.208984375 89.2822265625 24.2099609375 81.08203125 c 2
 20 82.6142578125 l 1
EndSplineSet
EndChar

StartChar: five.hund
Encoding: 105 -1 20
Width: 80
Flags: HW
AnchorPoint: "Extension_mkmk" 28 73 mark 0
LayerCount: 2
Fore
SplineSet
30.974609375 77.8857421875 m 2
 27.9921875 72.9931640625 24.875 70.86328125 21.763671875 68.6748046875 c 1
 21.763671875 79.3857421875 l 1
 28.09765625 85.7197265625 l 1
 55.7890625 85.7197265625 l 1
 49.455078125 79.3857421875 l 1
 30.9423828125 79.3857421875 l 1
 30.974609375 77.8857421875 l 2
26.796875 108 m 1
 36.4619140625 94.0693359375 39.916015625 91.76953125 55.7890625 85.7197265625 c 1
 49.455078125 79.3857421875 l 2
 38.0146484375 84.7353515625 31.6748046875 88.400390625 20 100.907226562 c 2
 26.796875 108 l 1
EndSplineSet
EndChar

StartChar: six.hund
Encoding: 106 -1 21
Width: 80
Flags: HW
AnchorPoint: "Extension_mkmk" 52 73 mark 0
LayerCount: 2
Fore
SplineSet
54.8544921875 77.197265625 m 2
 52.173828125 70.2158203125 48.8134765625 70.0517578125 45.640625 67.986328125 c 1
 45.640625 78.2080078125 l 1
 54.8544921875 84.8232421875 l 1
 54.8544921875 77.197265625 l 2
45.640625 78.2080078125 m 2
 20 78.2080078125 l 1
 27.65234375 84.8232421875 l 1
 54.8544921875 84.8232421875 l 1
 52.2646484375 81.84375 49.5341796875 79.0986328125 45.640625 78.2080078125 c 2
57.40625 108 m 1
 57.40625 90.779296875 35.26953125 85.705078125 20 78.2080078125 c 1
 27.65234375 84.8232421875 l 2
 31.0859375 86.8037109375 45.9951171875 87.064453125 45.9951171875 98.4755859375 c 2
 57.40625 108 l 1
EndSplineSet
EndChar

StartChar: seven.hund
Encoding: 107 -1 22
Width: 80
Flags: HW
AnchorPoint: "Extension_mkmk" 42 73 mark 0
LayerCount: 2
Fore
SplineSet
45.78125 77.7900390625 m 2
 43.1005859375 70.8056640625 39.740234375 70.6416015625 36.5673828125 68.576171875 c 1
 36.5673828125 81.3583984375 l 1
 45.78125 86.5322265625 l 1
 45.78125 77.7900390625 l 2
45.78125 86.5322265625 m 1
 45.78125 86.5322265625 l 1
 42.9951171875 84.3935546875 40.337890625 82.0556640625 36.5673828125 81.3583984375 c 0
 1.7861328125 82.169921875 27.1982421875 111.724609375 62.85546875 94.75 c 1
 56.9638671875 88.8583984375 l 1
 50.1845703125 98.03125 11.568359375 97.8525390625 30.294921875 89.0341796875 c 0
 32.873046875 87.818359375 40.5341796875 86.6376953125 45.78125 86.5322265625 c 1
EndSplineSet
EndChar

StartChar: eight.hund
Encoding: 108 -1 23
Width: 80
Flags: HW
AnchorPoint: "Extension_mkmk" 35 73 mark 0
LayerCount: 2
Fore
SplineSet
38.9111328125 75.25 m 2
 36.2333984375 68.265625 32.8701171875 68.1015625 29.7001953125 66.0361328125 c 1
 29.7001953125 80.306640625 l 1
 38.9111328125 80.2861328125 l 1
 38.9111328125 75.25 l 2
29.7001953125 80.306640625 m 1
 37.5166015625 88.1201171875 l 2
 41.005859375 87.5576171875 47.5830078125 86.107421875 50.36328125 90.3642578125 c 0
 53.544921875 95.2275390625 29.8876953125 98.3857421875 20 93.0068359375 c 1
 25.572265625 111.0390625 85.02734375 103.392578125 38.9111328125 80.2861328125 c 0
 34.666015625 78.0419921875 32.4716796875 79.7236328125 29.7001953125 80.3037109375 c 2
 29.7001953125 80.306640625 l 1
EndSplineSet
EndChar

StartChar: nine.hund
Encoding: 109 -1 24
Width: 80
Flags: HW
AnchorPoint: "Extension_mkmk" 43 73 mark 0
LayerCount: 2
Fore
SplineSet
46.33203125 77.52734375 m 2
 43.6513671875 70.54296875 40.291015625 70.37890625 37.1181640625 68.3134765625 c 1
 37.1181640625 82.583984375 l 1
 46.33203125 88.4169921875 l 1
 46.33203125 77.52734375 l 2
46.33203125 88.4169921875 m 1
 25.578125 62.2109375 5.50390625 84.212890625 34.4814453125 107 c 1
 32.01171875 102.265625 30.125 99.4794921875 28.384765625 94.6103515625 c 0
 25.162109375 85.5986328125 31.689453125 78.248046875 46.33203125 88.4169921875 c 1
EndSplineSet
EndChar

StartChar: b
Encoding: 28 98 25
Width: 80
Flags: HW
AnchorPoint: "Diacritic_right" 65 35 basechar 0
AnchorPoint: "Diacritic_left" 15 35 basechar 0
AnchorPoint: "Diacritic_up" 40 90 basechar 0
AnchorPoint: "Diacritic_down" 40 -15 basechar 0
AnchorPoint: "Extension_up" 65 65 basechar 0
AnchorPoint: "Extension_down" 44 5 basechar 0
LayerCount: 2
Fore
SplineSet
69.6748046875 70 m 1
 69.724609375 69.9501953125 l 1
 59.724609375 59.9501953125 l 1
 23.525390625 59.9501953125 l 1
 40.025390625 36.4501953125 l 1
 40.6748046875 37.099609375 l 1
 42.625 39.099609375 l 2
 44.6142578125 41.08203125 46.59765625 43.0654296875 48.5751953125 45.0498046875 c 2
 49.6748046875 46.150390625 l 1
 49.6748046875 10 l 1
 39.6748046875 0 l 1
 39.6748046875 33.7998046875 l 1
 33.474609375 27.5498046875 l 1
 10.275390625 60.599609375 l 1
 19.6748046875 70 l 1
 69.6748046875 70 l 1
EndSplineSet
Substitution2: "Single Substitution lookup 19 subtable" b.ext.up
Substitution2: "Single Substitution lookup 18 subtable" b.ext.down
EndChar

StartChar: c
Encoding: 29 99 26
Width: 80
Flags: HW
AnchorPoint: "Diacritic_right" 49 35 basechar 0
AnchorPoint: "Diacritic_left" -1 35 basechar 0
AnchorPoint: "Extension_up" 20 65 basechar 0
AnchorPoint: "Extension_down" 60 5 basechar 0
AnchorPoint: "Diacritic_down" 40 -15 basechar 0
AnchorPoint: "Diacritic_up" 40 90 basechar 0
LayerCount: 2
Fore
SplineSet
25 70 m 1
 25 10 l 1
 65 10 l 1
 55 0 l 1
 15 0 l 1
 15 60 l 1
 25 70 l 1
EndSplineSet
Substitution2: "Single Substitution lookup 19 subtable" c.ext.up
Substitution2: "Single Substitution lookup 18 subtable" c.ext.down
EndChar

StartChar: d
Encoding: 30 100 27
Width: 80
Flags: HW
AnchorPoint: "Diacritic_left" -1 35 basechar 0
AnchorPoint: "Diacritic_right" 49 35 basechar 0
AnchorPoint: "Extension_down" 30 5 basechar 0
AnchorPoint: "Extension_up" 60 65 basechar 0
AnchorPoint: "Diacritic_down" 40 -15 basechar 0
AnchorPoint: "Diacritic_up" 40 90 basechar 0
LayerCount: 2
Fore
SplineSet
25 70 m 1
 65 70 l 1
 55 60 l 1
 25 60 l 1
 25 36.150390625 l 1
 35 46.150390625 l 1
 35 10 l 1
 25 0 l 1
 25 33.75 l 1
 15 23.7001953125 l 1
 15 60 l 1
 25 70 l 1
EndSplineSet
Substitution2: "Single Substitution lookup 19 subtable" d.ext.up
Substitution2: "Single Substitution lookup 18 subtable" d.ext.down
EndChar

StartChar: f
Encoding: 32 102 28
Width: 80
Flags: HW
AnchorPoint: "Diacritic_right" 65 35 basechar 0
AnchorPoint: "Diacritic_left" -5 35 basechar 0
AnchorPoint: "Extension_down" 45 5 basechar 0
AnchorPoint: "Extension_up" 65 65 basechar 0
AnchorPoint: "Diacritic_up" 40 90 basechar 0
AnchorPoint: "Diacritic_down" 40 -15 basechar 0
LayerCount: 2
Fore
SplineSet
60 60 m 1
 20 60 l 1
 20 40 l 1
 50 40 l 1
 50 10 l 1
 40 0 l 1
 40 30 l 1
 10 30 l 1
 10 60 l 1
 20 70 l 1
 70 70 l 1
 60 60 l 1
EndSplineSet
Substitution2: "Single Substitution lookup 19 subtable" f.ext.up
Substitution2: "Single Substitution lookup 18 subtable" f.ext.down
EndChar

StartChar: g
Encoding: 33 103 29
Width: 80
VWidth: 67
Flags: HW
HStem: 0.0751953 21G<47.7348 71.4746> 59.9248 10<15.6748 67.8252>
AnchorPoint: "Diacritic_left" 5 35 basechar 0
AnchorPoint: "Diacritic_right" 69 35 basechar 0
AnchorPoint: "Extension_up" 72 65 basechar 0
AnchorPoint: "Extension_down" 68 5 basechar 0
AnchorPoint: "Diacritic_up" 40 90 basechar 0
AnchorPoint: "Diacritic_down" 40 -15 basechar 0
LayerCount: 2
Fore
SplineSet
67.8251953125 59.9248046875 m 1
 15.6748046875 59.9248046875 l 1
 38.775390625 31.0751953125 l 1
 46.275390625 38.525390625 l 1
 71.474609375 7.474609375 l 1
 64.025390625 0.0751953125 l 1
 39.875 29.724609375 l 1
 32.625 22.4248046875 l 1
 2.1748046875 59.974609375 l 1
 12.0751953125 69.9248046875 l 1
 77.8251953125 69.9248046875 l 1
 67.8251953125 59.9248046875 l 1
EndSplineSet
Substitution2: "Single Substitution lookup 19 subtable" g.ext.up
Substitution2: "Single Substitution lookup 18 subtable" g.ext.down
EndChar

StartChar: h
Encoding: 34 104 30
Width: 80
VWidth: 67
Flags: HW
AnchorPoint: "Diacritic_right" 75 35 basechar 0
AnchorPoint: "Diacritic_left" 5 35 basechar 0
AnchorPoint: "Extension_up" 23 65 basechar 0
AnchorPoint: "Extension_down" 57 5 basechar 0
AnchorPoint: "Diacritic_up" 40 90 basechar 0
AnchorPoint: "Diacritic_down" 40 -15 basechar 0
LayerCount: 2
Fore
SplineSet
27.5 70 m 1
 27.5 35 l 1
 51.349609375 35 l 1
 62.5 46.150390625 l 1
 62.5 10 l 1
 52.5 0 l 1
 52.5 33.75 l 1
 43.7998046875 25 l 1
 17.5 25 l 1
 17.5 60 l 1
 27.5 70 l 1
EndSplineSet
Substitution2: "Single Substitution lookup 19 subtable" h.ext.up
Substitution2: "Single Substitution lookup 18 subtable" h.ext.down
EndChar

StartChar: j
Encoding: 36 106 31
Width: 80
VWidth: 67
Flags: HW
AnchorPoint: "Diacritic_right" 55 35 basechar 0
AnchorPoint: "Diacritic_left" 5 35 basechar 0
AnchorPoint: "Extension_up" 65 65 basechar 0
AnchorPoint: "Extension_down" 60 5 basechar 0
AnchorPoint: "Diacritic_up" 40 90 basechar 0
AnchorPoint: "Diacritic_down" 40 -15 basechar 0
LayerCount: 2
Fore
SplineSet
30 70 m 1
 70 70 l 1
 60 60 l 1
 30 60 l 1
 30 17.599609375 l 1
 22.400390625 10 l 1
 65 10 l 1
 55 0 l 1
 10 0 l 1
 20 10 l 1
 20 60 l 1
 30 70 l 1
EndSplineSet
Substitution2: "Single Substitution lookup 19 subtable" j.ext.up
Substitution2: "Single Substitution lookup 18 subtable" j.ext.down
EndChar

StartChar: k
Encoding: 37 107 32
Width: 80
VWidth: 67
Flags: HW
AnchorPoint: "Diacritic_right" 55 35 basechar 0
AnchorPoint: "Diacritic_left" 5 35 basechar 0
AnchorPoint: "Extension_up" 72 65 basechar 0
AnchorPoint: "Extension_down" 56 5 basechar 0
AnchorPoint: "Diacritic_up" 40 90 basechar 0
AnchorPoint: "Diacritic_down" 40 -15 basechar 0
LayerCount: 2
Fore
SplineSet
12.0751953125 70.025390625 m 1
 77.8251953125 70.025390625 l 1
 67.8251953125 60.025390625 l 1
 15.775390625 60.025390625 l 1
 58.474609375 7.474609375 l 1
 50.974609375 -0.025390625 l 1
 49.5751953125 1.724609375 l 1
 49.525390625 1.724609375 l 1
 2.1748046875 60.0751953125 l 1
 12.0751953125 70.025390625 l 1
EndSplineSet
Substitution2: "Single Substitution lookup 19 subtable" k.ext.up
Substitution2: "Single Substitution lookup 18 subtable" k.ext.down
EndChar

StartChar: l
Encoding: 38 108 33
Width: 80
VWidth: 67
Flags: HW
AnchorPoint: "Diacritic_right" 65 35 basechar 0
AnchorPoint: "Diacritic_left" 5 35 basechar 0
AnchorPoint: "Extension_down" 60 5 basechar 0
AnchorPoint: "Extension_up" 25 65 basechar 0
AnchorPoint: "Diacritic_up" 40 90 basechar 0
AnchorPoint: "Diacritic_down" 40 -15 basechar 0
LayerCount: 2
Fore
SplineSet
30 70 m 1
 30 35 l 1
 52.25 35 l 1
 27.400390625 10 l 1
 65 10 l 1
 55 0 l 1
 15 0 l 1
 39.9501953125 25 l 1
 20 25 l 1
 20 60 l 1
 30 70 l 1
EndSplineSet
Substitution2: "Single Substitution lookup 19 subtable" l.ext.up
Substitution2: "Single Substitution lookup 18 subtable" l.ext.down
EndChar

StartChar: m
Encoding: 39 109 34
Width: 80
VWidth: 67
Flags: HW
AnchorPoint: "Diacritic_right" 55 35 basechar 0
AnchorPoint: "Diacritic_left" 5 35 basechar 0
AnchorPoint: "Extension_down" 56 5 basechar 0
AnchorPoint: "Extension_up" 27 65 basechar 0
AnchorPoint: "Diacritic_up" 40 90 basechar 0
AnchorPoint: "Diacritic_down" 40 -15 basechar 0
LayerCount: 2
Fore
SplineSet
31.25 70 m 1
 31.25 35 l 1
 58.75 7.5 l 1
 51.25 0 l 1
 21.25 30 l 1
 21.25 60 l 1
 31.25 70 l 1
EndSplineSet
Substitution2: "Single Substitution lookup 19 subtable" m.ext.up
Substitution2: "Single Substitution lookup 18 subtable" m.ext.down
EndChar

StartChar: n
Encoding: 40 110 35
Width: 80
VWidth: 67
Flags: HW
AnchorPoint: "Diacritic_right" 56 35 basechar 0
AnchorPoint: "Diacritic_left" 6 35 basechar 0
AnchorPoint: "Extension_down" 56 5 basechar 0
AnchorPoint: "Extension_up" 27 65 basechar 0
AnchorPoint: "Diacritic_up" 40 90 basechar 0
AnchorPoint: "Diacritic_down" 40 -15 basechar 0
LayerCount: 2
Fore
SplineSet
31.150390625 69.9248046875 m 2
 31.150390625 32.3251953125 l 1
 37.25 38.4248046875 l 1
 58.849609375 7.5751953125 l 1
 51.349609375 0.0751953125 l 1
 30.7001953125 29.474609375 l 1
 21.150390625 19.9248046875 l 1
 21.150390625 59.9248046875 l 1
 31.150390625 69.9248046875 l 2
EndSplineSet
Substitution2: "Single Substitution lookup 19 subtable" n.ext.up
Substitution2: "Single Substitution lookup 18 subtable" n.ext.down
EndChar

StartChar: p
Encoding: 42 112 36
Width: 80
VWidth: 67
Flags: HW
AnchorPoint: "Diacritic_right" 60 35 basechar 0
AnchorPoint: "Diacritic_left" 10 35 basechar 0
AnchorPoint: "Extension_down" 40 5 basechar 0
AnchorPoint: "Extension_up" 65 65 basechar 0
AnchorPoint: "Diacritic_down" 40 -15 basechar 0
AnchorPoint: "Diacritic_up" 40 90 basechar 0
LayerCount: 2
Fore
SplineSet
25.0498046875 60 m 1
 45 40.0498046875 l 1
 45 10 l 1
 35 0 l 1
 35 35 l 1
 10 60 l 1
 20 70 l 1
 70 70 l 1
 60 60 l 1
 25.0498046875 60 l 1
EndSplineSet
Substitution2: "Single Substitution lookup 19 subtable" p.ext.up
Substitution2: "Single Substitution lookup 18 subtable" p.ext.down
EndChar

StartChar: r
Encoding: 43 114 37
Width: 80
VWidth: 67
Flags: HW
AnchorPoint: "Diacritic_left" 20 35 basechar 0
AnchorPoint: "Diacritic_right" 70 35 basechar 0
AnchorPoint: "Extension_down" 60 5 basechar 0
AnchorPoint: "Extension_up" 18 65 basechar 0
AnchorPoint: "Diacritic_down" 40 -15 basechar 0
AnchorPoint: "Diacritic_up" 40 90 basechar 0
LayerCount: 2
Fore
SplineSet
22.5 70 m 1
 54.900390625 37.599609375 l 1
 27.400390625 10 l 1
 65 10 l 1
 55 0 l 1
 15 0 l 1
 46.25 31.25 l 1
 15 62.5 l 1
 22.5 70 l 1
EndSplineSet
Substitution2: "Single Substitution lookup 19 subtable" r.ext.up
Substitution2: "Single Substitution lookup 18 subtable" r.ext.down
EndChar

StartChar: s
Encoding: 44 115 38
Width: 80
VWidth: 67
Flags: HW
AnchorPoint: "Diacritic_right" 75 35 basechar 0
AnchorPoint: "Diacritic_left" 5 35 basechar 0
AnchorPoint: "Extension_up" 63 65 basechar 0
AnchorPoint: "Extension_down" 47 5 basechar 0
AnchorPoint: "Diacritic_down" 40 -15 basechar 0
AnchorPoint: "Diacritic_up" 40 90 basechar 0
LayerCount: 2
Fore
SplineSet
67.5 69.974609375 m 2
 67.5 39.974609375 l 1
 57.5 29.974609375 l 1
 27.5 29.974609375 l 1
 49.9501953125 7.525390625 l 1
 42.4501953125 0.025390625 l 1
 12.5 29.974609375 l 1
 22.5 39.974609375 l 1
 57.5 39.974609375 l 1
 57.5 59.974609375 l 1
 67.5 69.974609375 l 2
EndSplineSet
Substitution2: "Single Substitution lookup 19 subtable" s.ext.up
Substitution2: "Single Substitution lookup 18 subtable" s.ext.down
EndChar

StartChar: t
Encoding: 45 116 39
Width: 80
VWidth: 67
Flags: HW
AnchorPoint: "Diacritic_left" -1 35 basechar 0
AnchorPoint: "Diacritic_right" 49 35 basechar 0
AnchorPoint: "Extension_up" 60 65 basechar 0
AnchorPoint: "Extension_down" 20 5 basechar 0
AnchorPoint: "Diacritic_down" 40 -15 basechar 0
AnchorPoint: "Diacritic_up" 40 90 basechar 0
LayerCount: 2
Fore
SplineSet
25 70 m 1
 65 70 l 1
 55 60 l 1
 25 60 l 1
 25 10 l 1
 15 0 l 1
 15 60 l 1
 25 70 l 1
EndSplineSet
Substitution2: "Single Substitution lookup 19 subtable" t.ext.up
Substitution2: "Single Substitution lookup 18 subtable" t.ext.down
EndChar

StartChar: v
Encoding: 47 118 40
Width: 80
VWidth: 67
Flags: HW
HStem: 0 21G<35 45> 35 10<27.6504 35> 60 10<20 60>
VStem: 10 10<37.4004 60> 35 10<10 35>
AnchorPoint: "Diacritic_right" 60 35 basechar 0
AnchorPoint: "Diacritic_left" 0 35 basechar 0
AnchorPoint: "Extension_up" 65 65 basechar 0
AnchorPoint: "Extension_down" 40 5 basechar 0
AnchorPoint: "Diacritic_down" 40 -15 basechar 0
AnchorPoint: "Diacritic_up" 40 90 basechar 0
LayerCount: 2
Fore
SplineSet
60 60 m 1
 20 60 l 1
 20 37.400390625 l 1
 27.650390625 45 l 1
 45 45 l 1
 45 10 l 1
 35 0 l 1
 35 35 l 1
 20 35 l 1
 10 25 l 1
 10 60 l 1
 20 70 l 1
 70 70 l 1
 60 60 l 1
EndSplineSet
Substitution2: "Single Substitution lookup 19 subtable" v.ext.up
Substitution2: "Single Substitution lookup 18 subtable" v.ext.down
EndChar

StartChar: x
Encoding: 49 120 41
Width: 80
VWidth: 67
Flags: HW
HStem: -0.0253906 21G<27.2754 54.7754> 60.0254 10<17.2246 67.8252>
AnchorPoint: "Diacritic_left" 0 35 basechar 0
AnchorPoint: "Diacritic_right" 60 35 basechar 0
AnchorPoint: "Extension_up" 73 65 basechar 0
AnchorPoint: "Extension_down" 52 5 basechar 0
AnchorPoint: "Diacritic_down" 40 -15 basechar 0
AnchorPoint: "Diacritic_up" 40 90 basechar 0
LayerCount: 2
Fore
SplineSet
77.8251953125 70.025390625 m 1
 67.8251953125 60.025390625 l 1
 17.224609375 60.025390625 l 1
 36.525390625 40.724609375 l 1
 29.0751953125 33.1748046875 l 1
 54.775390625 7.474609375 l 1
 47.275390625 -0.025390625 l 1
 20.375 26.875 l 1
 27.875 34.375 l 1
 2.1748046875 60.0751953125 l 1
 12.0751953125 70.025390625 l 1
 77.8251953125 70.025390625 l 1
EndSplineSet
Substitution2: "Single Substitution lookup 19 subtable" x.ext.up
Substitution2: "Single Substitution lookup 18 subtable" x.ext.down
EndChar

StartChar: z
Encoding: 51 122 42
Width: 80
VWidth: 67
Flags: HW
AnchorPoint: "Diacritic_right" 75 35 basechar 0
AnchorPoint: "Diacritic_left" 5 35 basechar 0
AnchorPoint: "Extension_up" 30 65 basechar 0
AnchorPoint: "Extension_down" 46 5 basechar 0
AnchorPoint: "Diacritic_down" 40 -15 basechar 0
AnchorPoint: "Diacritic_up" 40 90 basechar 0
LayerCount: 2
Fore
SplineSet
55 30.375 m 1
 25 30.375 l 1
 48.099609375 7.275390625 l 1
 40.599609375 -0.224609375 l 1
 15 25.375 l 1
 30 40.375 l 1
 50 40.375 l 1
 27.650390625 62.724609375 l 1
 35.150390625 70.224609375 l 1
 65 40.375 l 1
 55 30.375 l 1
EndSplineSet
Substitution2: "Single Substitution lookup 19 subtable" z.ext.up
Substitution2: "Single Substitution lookup 18 subtable" z.ext.down
EndChar

StartChar: zcaron
Encoding: 72 382 43
Width: 80
VWidth: -21
Flags: H
AnchorPoint: "Diacritic_left" 5 35 basechar 0
AnchorPoint: "Diacritic_right" 75 35 basechar 0
AnchorPoint: "Extension_up" 28 65 basechar 0
AnchorPoint: "Extension_down" 60 5 basechar 0
AnchorPoint: "Diacritic_down" 40 -15 basechar 0
AnchorPoint: "Diacritic_up" 40 90 basechar 0
LayerCount: 2
Fore
SplineSet
31.9501953125 70.025390625 m 1
 63.5 38.474609375 l 1
 55 29.974609375 l 1
 25 29.974609375 l 1
 25 9.974609375 l 1
 65 9.974609375 l 1
 55 -0.025390625 l 1
 15 -0.025390625 l 1
 15 22.3251953125 l 1
 32.599609375 39.974609375 l 1
 47 39.974609375 l 1
 24.4501953125 62.525390625 l 1
 31.9501953125 70.025390625 l 1
EndSplineSet
Substitution2: "Single Substitution lookup 19 subtable" zcaron.ext.up
Substitution2: "Single Substitution lookup 18 subtable" zcaron.ext.down
EndChar

StartChar: zdotaccent
Encoding: 71 380 44
Width: 80
VWidth: -21
Flags: H
AnchorPoint: "Diacritic_left" 0 35 basechar 0
AnchorPoint: "Diacritic_right" 60 35 basechar 0
AnchorPoint: "Extension_up" 28 65 basechar 0
AnchorPoint: "Extension_down" 62 5 basechar 0
AnchorPoint: "Diacritic_down" 40 -15 basechar 0
AnchorPoint: "Diacritic_up" 40 90 basechar 0
LayerCount: 2
Fore
SplineSet
32.5 70 m 1
 32.5 17.599609375 l 1
 24.900390625 10 l 1
 67.5 10 l 1
 57.5 0 l 1
 12.5 0 l 1
 22.5 10 l 1
 22.5 60 l 1
 32.5 70 l 1
EndSplineSet
Substitution2: "Single Substitution lookup 19 subtable" zdotaccent.ext.up
Substitution2: "Single Substitution lookup 18 subtable" zdotaccent.ext.down
EndChar

StartChar: tcedilla
Encoding: 70 355 45
Width: 80
VWidth: -21
Flags: H
AnchorPoint: "Diacritic_right" 55 35 basechar 0
AnchorPoint: "Diacritic_left" -5 35 basechar 0
AnchorPoint: "Extension_down" 48 5 basechar 0
AnchorPoint: "Extension_up" 65 65 basechar 0
AnchorPoint: "Diacritic_down" 40 -15 basechar 0
AnchorPoint: "Diacritic_up" 40 90 basechar 0
LayerCount: 2
Fore
SplineSet
70 70.0498046875 m 1
 60 60.0498046875 l 1
 20 60.0498046875 l 1
 20 38.0498046875 l 1
 50.599609375 7.4501953125 l 1
 43.099609375 -0.0498046875 l 1
 10 33.0498046875 l 1
 10 60.0498046875 l 1
 20 70.0498046875 l 1
 70 70.0498046875 l 1
EndSplineSet
Substitution2: "Single Substitution lookup 19 subtable" tcedilla.ext.up
Substitution2: "Single Substitution lookup 18 subtable" tcedilla.ext.down
EndChar

StartChar: scaron
Encoding: 69 353 46
Width: 80
VWidth: -21
Flags: H
AnchorPoint: "Diacritic_right" 75 35 basechar 0
AnchorPoint: "Diacritic_left" 5 35 basechar 0
AnchorPoint: "Extension_down" 55 5 basechar 0
AnchorPoint: "Extension_up" 55 65 basechar 0
AnchorPoint: "Diacritic_down" 40 -15 basechar 0
AnchorPoint: "Diacritic_up" 40 90 basechar 0
LayerCount: 2
Fore
SplineSet
60 70 m 1
 60 40 l 1
 50 30 l 1
 30 30 l 1
 30 10 l 1
 60 10 l 1
 50 0 l 1
 20 0 l 1
 20 30 l 1
 30 40 l 1
 50 40 l 1
 50 60 l 1
 60 70 l 1
EndSplineSet
Substitution2: "Single Substitution lookup 19 subtable" scaron.ext.up
Substitution2: "Single Substitution lookup 18 subtable" scaron.ext.down
EndChar

StartChar: rcaron
Encoding: 68 345 47
Width: 80
VWidth: -21
Flags: H
AnchorPoint: "Diacritic_left" 10 35 basechar 0
AnchorPoint: "Diacritic_right" 60 35 basechar 0
AnchorPoint: "Extension_down" 59 5 basechar 0
AnchorPoint: "Extension_up" 19 65 basechar 0
AnchorPoint: "Diacritic_down" 40 -15 basechar 0
AnchorPoint: "Diacritic_up" 40 90 basechar 0
LayerCount: 2
Fore
SplineSet
23.4501953125 69.974609375 m 1
 23.400390625 70.025390625 l 1
 47.400390625 46.025390625 l 1
 38.849609375 37.525390625 l 1
 38.9501953125 9.974609375 l 1
 63.9501953125 9.974609375 l 1
 53.9501953125 -0.025390625 l 1
 28.9501953125 -0.025390625 l 1
 28.9501953125 29.974609375 l 1
 38.7001953125 39.775390625 l 1
 15.9501953125 62.474609375 l 1
 23.4501953125 69.974609375 l 1
EndSplineSet
Substitution2: "Single Substitution lookup 19 subtable" rcaron.ext.up
Substitution2: "Single Substitution lookup 18 subtable" rcaron.ext.down
EndChar

StartChar: ncaron
Encoding: 66 328 48
Width: 80
VWidth: -21
Flags: HW
AnchorPoint: "Diacritic_right" 65 35 basechar 0
AnchorPoint: "Diacritic_left" 5 35 basechar 0
AnchorPoint: "Extension_down" 54 5 basechar 0
AnchorPoint: "Extension_up" 37 65 basechar 0
AnchorPoint: "Diacritic_down" 40 -15 basechar 0
AnchorPoint: "Diacritic_up" 40 90 basechar 0
LayerCount: 2
Fore
SplineSet
31.349609375 60.0498046875 m 1
 41.349609375 70.0498046875 l 1
 41.349609375 42.650390625 l 1
 31.599609375 32.9501953125 l 1
 57.099609375 7.4501953125 l 1
 49.599609375 -0.0498046875 l 1
 22.900390625 26.599609375 l 1
 31.349609375 35.0498046875 l 1
 31.349609375 60.0498046875 l 1
EndSplineSet
Substitution2: "Single Substitution lookup 19 subtable" ncaron.ext.up
Substitution2: "Single Substitution lookup 18 subtable" ncaron.ext.down
EndChar

StartChar: lcedilla
Encoding: 65 316 49
Width: 80
VWidth: -21
Flags: H
HStem: 0 21G<33.7324 61.2246> 30 10<28.7754 36.4746> 50 20G<18.7754 28.7754> 50 20G<18.7754 28.7754>
VStem: 18.7754 10<40 60>
AnchorPoint: "Diacritic_left" 5 35 basechar 0
AnchorPoint: "Diacritic_right" 65 35 basechar 0
AnchorPoint: "Extension_down" 58 5 basechar 0
AnchorPoint: "Extension_up" 24 65 basechar 0
AnchorPoint: "Diacritic_down" 40 -15 basechar 0
AnchorPoint: "Diacritic_up" 40 90 basechar 0
LayerCount: 2
Fore
SplineSet
28.775390625 70 m 1xe8
 28.775390625 40 l 1
 48.775390625 40 l 1
 38.724609375 30 l 1
 61.224609375 7.5 l 1
 53.775390625 0 l 1
 30.125 23.599609375 l 1
 36.474609375 30 l 1
 18.775390625 30 l 1
 18.775390625 60 l 1
 28.775390625 70 l 1xe8
EndSplineSet
Substitution2: "Single Substitution lookup 19 subtable" lcedilla.ext.up
Substitution2: "Single Substitution lookup 18 subtable" lcedilla.ext.down
EndChar

StartChar: ccedilla
Encoding: 57 231 50
Width: 80
VWidth: -21
Flags: H
AnchorPoint: "Diacritic_right" 70 35 basechar 0
AnchorPoint: "Diacritic_left" -5 35 basechar 0
AnchorPoint: "Extension_down" 34 5 basechar 0
AnchorPoint: "Extension_up" 72 65 basechar 0
AnchorPoint: "Diacritic_down" 40 -15 basechar 0
AnchorPoint: "Diacritic_up" 40 90 basechar 0
LayerCount: 2
Fore
SplineSet
26.849609375 70 m 2
 76.849609375 70 l 1
 66.849609375 60 l 1
 31.849609375 60 l 1
 51.849609375 40 l 1
 44.349609375 32.5 l 1
 12 32.5 l 1
 37 7.5 l 1
 29.5 0 l 1
 3.150390625 26.349609375 l 1
 19.349609375 42.5 l 1
 34.349609375 42.5 l 1
 16.849609375 60 l 1
 26.849609375 70 l 2
EndSplineSet
Substitution2: "Single Substitution lookup 19 subtable" ccedilla.ext.up
Substitution2: "Single Substitution lookup 18 subtable" ccedilla.ext.down
EndChar

StartChar: ccaron
Encoding: 64 269 51
Width: 80
VWidth: -21
Flags: H
AnchorPoint: "Diacritic_right" 55 35 basechar 0
AnchorPoint: "Diacritic_left" -5 35 basechar 0
AnchorPoint: "Extension_down" 60 5 basechar 0
AnchorPoint: "Extension_up" 60 65 basechar 0
AnchorPoint: "Diacritic_down" 40 -15 basechar 0
AnchorPoint: "Diacritic_up" 40 90 basechar 0
LayerCount: 2
Fore
SplineSet
25 70 m 1
 65 70 l 1
 55 60 l 1
 25 60 l 1
 25 10 l 1
 65 10 l 1
 55 0 l 1
 15 0 l 1
 15 60 l 1
 25 70 l 1
EndSplineSet
Substitution2: "Single Substitution lookup 19 subtable" ccaron.ext.up
Substitution2: "Single Substitution lookup 18 subtable" ccaron.ext.down
EndChar

StartChar: Z
Encoding: 23 90 52
Width: 80
VWidth: -21
Flags: HW
AnchorPoint: "Diacritic_left" 15 35 basechar 0
AnchorPoint: "Diacritic_right" 65 35 basechar 0
AnchorPoint: "Extension_down" 61 5 basechar 0
AnchorPoint: "Extension_up" 19 65 basechar 0
AnchorPoint: "Diacritic_down" 40 -15 basechar 0
AnchorPoint: "Diacritic_up" 40 90 basechar 0
LayerCount: 2
Fore
SplineSet
76.150390625 70 m 1
 16.349609375 10 l 1
 66.150390625 10 l 1
 56.25 0 l 1
 3.849609375 0 l 1
 63.849609375 60 l 1
 13.849609375 60 l 1
 23.849609375 70 l 1
 76.150390625 70 l 1
EndSplineSet
Ligature2: "FlipCores subtable" Z quotesingle
LCarets2: 1 0
EndChar

StartChar: bar
Encoding: 53 124 53
Width: 80
VWidth: -21
Flags: H
AnchorPoint: "Diacritic_right" 65 35 basechar 0
AnchorPoint: "Diacritic_left" 15 35 basechar 0
AnchorPoint: "Extension_up" 40 65 basechar 0
AnchorPoint: "Extension_down" 40 5 basechar 0
AnchorPoint: "Diacritic_down" 40 -15 basechar 0
AnchorPoint: "Diacritic_up" 40 90 basechar 0
LayerCount: 2
Fore
SplineSet
45 70 m 1
 45 10 l 1
 35 0 l 1
 35 60 l 1
 45 70 l 1
EndSplineSet
Ligature2: "FlipCores subtable" bar quotesingle
EndChar

StartChar: braceleft
Encoding: 52 123 54
Width: 80
VWidth: -21
Flags: HW
AnchorPoint: "Diacritic_left" 10 35 basechar 0
AnchorPoint: "Diacritic_right" 70 35 basechar 0
AnchorPoint: "Extension_up" 45 65 basechar 0
AnchorPoint: "Extension_down" 35 5 basechar 0
AnchorPoint: "Diacritic_down" 40 -15 basechar 0
AnchorPoint: "Diacritic_up" 40 90 basechar 0
LayerCount: 2
Fore
SplineSet
50 70 m 1
 50 43.75 l 1
 40 33.75 l 1
 40 10 l 1
 30 0 l 1
 30 26.150390625 l 1
 40 36.150390625 l 1
 40 60 l 1
 50 70 l 1
EndSplineSet
Ligature2: "FlipCores subtable" braceright quotesingle
LCarets2: 1 0
EndChar

StartChar: braceright
Encoding: 54 125 55
Width: 80
VWidth: -21
Flags: H
AnchorPoint: "Diacritic_right" 70 35 basechar 0
AnchorPoint: "Diacritic_left" 10 35 basechar 0
AnchorPoint: "Extension_up" 35 65 basechar 0
AnchorPoint: "Extension_down" 45 5 basechar 0
AnchorPoint: "Diacritic_down" 40 -15 basechar 0
AnchorPoint: "Diacritic_up" 40 90 basechar 0
LayerCount: 2
Fore
SplineSet
50 46.150390625 m 1
 50 10 l 1
 40 0 l 1
 40 33.75 l 1
 30 23.7998046875 l 1
 30 60 l 1
 40 70 l 1
 40 36.150390625 l 1
 50 46.150390625 l 1
EndSplineSet
Ligature2: "FlipCores subtable" braceleft quotesingle
LCarets2: 1 0
EndChar

StartChar: Sigma
Encoding: 77 931 56
Width: 80
VWidth: -21
Flags: HW
AnchorPoint: "Diacritic_left" 15 30 basechar 0
AnchorPoint: "Extension_up" 65 65 basechar 0
AnchorPoint: "Extension_down" 60 5 basechar 0
AnchorPoint: "Diacritic_right" 55 50 basechar 0
AnchorPoint: "Diacritic_down" 40 -15 basechar 0
AnchorPoint: "Diacritic_up" 40 90 basechar 0
LayerCount: 2
Fore
SplineSet
13.849609375 53.7998046875 m 1
 30 70 l 1
 70 70 l 1
 60 60 l 1
 22.650390625 60 l 1
 47.4501953125 35.2001953125 l 1
 22.400390625 10 l 1
 65 10 l 1
 55 0 l 1
 10 0 l 1
 38.7998046875 28.849609375 l 1
 13.849609375 53.7998046875 l 1
EndSplineSet
EndChar

StartChar: zero
Encoding: 5 48 58
Width: 80
Flags: HW
HStem: 5.54297 21G<20 22.3423> 58 20G<52.9473 62.1567>
VStem: 20 9.21094<14.7539 25.5123> 52.9473 9.21094<58.1147 68.7891>
AnchorPoint: "Diacritic_down" 40 -15 basechar 0
AnchorPoint: "Diacritic_up" 40 90 basechar 0
AnchorPoint: "Diacritic_left" 20 65 basechar 0
AnchorPoint: "Extension_down" 24 10 basechar 0
AnchorPoint: "Extension_up" 58 70 basechar 0
LayerCount: 2
Fore
SplineSet
29.2109375 14.75390625 m 0
 25.0859375 10.62890625 24.6845703125 10.2275390625 20 5.54296875 c 1
 20 16.5234375 20.0849609375 21.4365234375 23.7470703125 27.087890625 c 0
 27.576171875 32.3642578125 30.9013671875 35.0888671875 36.083984375 38.9853515625 c 0
 41.92578125 43.76953125 46.8740234375 48.1552734375 50.1142578125 55.3447265625 c 0
 51.9716796875 59.16796875 52.947265625 61.171875 52.947265625 68.7890625 c 2
 62.158203125 78 l 1
 62.1552734375 65.6455078125 61.0185546875 52.3623046875 48.1279296875 45.591796875 c 0
 41.7177734375 41.4697265625 37.712890625 39.3720703125 34.1416015625 33.45703125 c 0
 30.7607421875 27.919921875 29.2109375 20.8623046875 29.2109375 14.75390625 c 0
EndSplineSet
Substitution2: "Single Substitution lookup 16 subtable" zero.thou
Substitution2: "Single Substitution lookup 15 subtable" zero.hund
Substitution2: "Single Substitution lookup 14 subtable" zero.ten
EndChar

StartChar: one
Encoding: 6 49 59
Width: 80
Flags: HW
HStem: 5.54297 21G<20 29.2109> 58 20G<52.4844 61.6982>
VStem: 52.4844 9.21387<17.5811 68.7891>
AnchorPoint: "Diacritic_down" 40 -15 basechar 0
AnchorPoint: "Diacritic_up" 40 90 basechar 0
AnchorPoint: "Diacritic_left" 20 65 basechar 0
AnchorPoint: "Extension_up" 58 70 basechar 0
AnchorPoint: "Extension_down" 24 10 basechar 0
LayerCount: 2
Fore
SplineSet
52.484375 68.7890625 m 1
 61.6982421875 78 l 1
 61.6982421875 17.5810546875 l 1
 52.484375 8.3701171875 l 1
 52.484375 68.7890625 l 1
20 5.54296875 m 1
 20 14.935546875 33.7080078125 33.7412109375 61.6982421875 17.5810546875 c 1
 52.484375 8.3701171875 l 1
 48.2421875 15.31640625 29.2109375 29.1767578125 29.2109375 14.75390625 c 2
 20 5.54296875 l 1
EndSplineSet
Substitution2: "Single Substitution lookup 16 subtable" one.thou
Substitution2: "Single Substitution lookup 15 subtable" one.hund
Substitution2: "Single Substitution lookup 14 subtable" one.ten
EndChar

StartChar: two
Encoding: 7 50 60
Width: 80
Flags: HW
AnchorPoint: "Diacritic_down" 40 -15 basechar 0
AnchorPoint: "Diacritic_up" 40 90 basechar 0
AnchorPoint: "Diacritic_left" 20 65 basechar 0
AnchorPoint: "Extension_up" 54 70 basechar 0
AnchorPoint: "Extension_down" 24 10 basechar 0
LayerCount: 2
Fore
SplineSet
20 5.54296875 m 1
 20 5.54296875 l 1
 20.3515625 19.3330078125 35.0703125 31.669921875 53.5478515625 20.09765625 c 1
 53.486328125 9.2021484375 l 1
 53.486328125 9.2021484375 39.5673828125 21.6796875 33.7666015625 20.8359375 c 0
 29.181640625 20.16796875 29.2109375 16.4326171875 29.2109375 14.75390625 c 2
 20 5.54296875 l 1
57.6640625 78 m 1
 57.6640625 64.2451171875 52.841796875 60.0908203125 47.94921875 54.2724609375 c 0
 43.0537109375 48.4541015625 40.8447265625 46.125 41.5244140625 41.3671875 c 0
 42.9921875 31.060546875 62.7001953125 18.4130859375 62.7001953125 18.4130859375 c 1
 53.486328125 9.2021484375 l 1
 35.580078125 27.1083984375 28.2880859375 28.9013671875 32.2431640625 38.8974609375 c 0
 36.0048828125 47.4755859375 48.453125 46.9716796875 48.453125 68.7890625 c 1
 57.6640625 78 l 1
EndSplineSet
Substitution2: "Single Substitution lookup 16 subtable" two.thou
Substitution2: "Single Substitution lookup 15 subtable" two.hund
Substitution2: "Single Substitution lookup 14 subtable" two.ten
EndChar

StartChar: three
Encoding: 8 51 61
Width: 80
Flags: HW
HStem: 5.54297 21G<20 29.2109> 28.1699 20G<24.2773 42.418> 58 20G<50.8555 60.0693>
VStem: 20 9.21094<14.7539 18.3414> 50.8555 9.21387<62.8031 68.7891>
AnchorPoint: "Diacritic_down" 40 -15 basechar 0
AnchorPoint: "Diacritic_up" 40 90 basechar 0
AnchorPoint: "Diacritic_left" 20 65 basechar 0
AnchorPoint: "Extension_up" 56 70 basechar 0
AnchorPoint: "Extension_down" 24 10 basechar 0
LayerCount: 2
Fore
SplineSet
29.2109375 14.75390625 m 2
 20 5.54296875 l 1
 20 21.1728515625 28.484375 32.2646484375 51.08984375 21.6123046875 c 0
 51.08984375 12.099609375 50.85546875 9.498046875 50.85546875 9.498046875 c 1
 37.1708984375 22.2568359375 29.2109375 30.580078125 29.2109375 14.75390625 c 2
24.2744140625 38.8798828125 m 1
 28.5078125 43.11328125 29.24609375 43.998046875 33.41796875 48.169921875 c 0
 50.650390625 48.169921875 50.85546875 57.234375 50.85546875 68.7890625 c 2
 60.0693359375 78 l 1
 60.0693359375 60.5390625 53.052734375 56.3466796875 48.5615234375 51.85546875 c 0
 41.7763671875 45.0732421875 34.2998046875 38.8798828125 24.2744140625 38.8798828125 c 1
24.27734375 38.8798828125 m 1
 33.41796875 48.169921875 l 1
 51.41796875 42.5244140625 60.0693359375 30.66796875 60.0693359375 18.708984375 c 2
 50.85546875 9.498046875 l 1
 46.935546875 20.23828125 51.3798828125 32.5810546875 24.27734375 38.8798828125 c 1
EndSplineSet
Substitution2: "Single Substitution lookup 16 subtable" three.thou
Substitution2: "Single Substitution lookup 15 subtable" three.hund
Substitution2: "Single Substitution lookup 14 subtable" three.ten
EndChar

StartChar: four
Encoding: 9 52 62
Width: 80
Flags: HW
AnchorPoint: "Diacritic_down" 40 -15 basechar 0
AnchorPoint: "Diacritic_up" 40 90 basechar 0
AnchorPoint: "Diacritic_left" 20 65 basechar 0
AnchorPoint: "Extension_up" 52 70 basechar 0
AnchorPoint: "Extension_down" 24 10 basechar 0
LayerCount: 2
Fore
SplineSet
29.2109375 49.2890625 m 1
 46.26171875 49.2890625 46.630859375 55.658203125 46.630859375 68.7890625 c 2
 55.841796875 78 l 1
 55.841796875 48.5771484375 29.2109375 40.171875 20.0966796875 40.171875 c 1
 20.0966796875 40.171875 29.2109375 46.40625 29.2109375 49.2890625 c 1
20 40.078125 m 1
 29.2109375 49.2890625 l 1
 29.2109375 14.75390625 l 1
 20 5.54296875 l 1
 20 40.078125 l 1
EndSplineSet
Substitution2: "Single Substitution lookup 16 subtable" four.thou
Substitution2: "Single Substitution lookup 15 subtable" four.hund
Substitution2: "Single Substitution lookup 14 subtable" four.ten
EndChar

StartChar: five
Encoding: 10 53 63
Width: 80
Flags: HW
AnchorPoint: "Diacritic_down" 40 -15 basechar 0
AnchorPoint: "Diacritic_up" 40 90 basechar 0
AnchorPoint: "Diacritic_left" 20 65 basechar 0
AnchorPoint: "Extension_up" 50 70 basechar 0
AnchorPoint: "Extension_down" 24 10 basechar 0
LayerCount: 2
Fore
SplineSet
20 35.54296875 m 1
 29.2109375 44.7568359375 l 1
 29.2109375 14.75390625 l 1
 20 5.54296875 l 1
 20 35.54296875 l 1
44.3369140625 68.7890625 m 1
 53.5478515625 78 l 1
 53.5478515625 17.9443359375 l 1
 44.3369140625 8.73046875 l 1
 44.3369140625 68.7890625 l 1
29.2109375 44.7568359375 m 1
 32.404296875 32.70703125 29.2109375 29.033203125 53.5478515625 17.9443359375 c 1
 44.3369140625 8.73046875 l 2
 33.482421875 16.9423828125 23.7529296875 25.798828125 20 35.54296875 c 2
 29.2109375 44.7568359375 l 1
EndSplineSet
Substitution2: "Single Substitution lookup 16 subtable" five.thou
Substitution2: "Single Substitution lookup 15 subtable" five.hund
Substitution2: "Single Substitution lookup 14 subtable" five.ten
EndChar

StartChar: six
Encoding: 11 54 64
Width: 80
Flags: HW
HStem: 5.54297 21G<20 29.2109> 28.8174 20G<39.248 63.5073> 43.4941 21G<43.1152 44.6738> 58 20G<53.0146 62.2256>
VStem: 53.0146 9.21094<62.7688 68.7891>
AnchorPoint: "Diacritic_down" 40 -15 basechar 0
AnchorPoint: "Diacritic_up" 40 90 basechar 0
AnchorPoint: "Diacritic_left" 15 65 basechar 0
AnchorPoint: "Extension_up" 58.5 70 basechar 0
AnchorPoint: "Extension_down" 24 10 basechar 0
LayerCount: 2
Fore
SplineSet
20 5.54296875 m 1x88
 20 27.6884765625 l 1
 29.2109375 36.8994140625 l 1
 29.2109375 14.75390625 l 1
 20 5.54296875 l 1x88
53.0146484375 68.7890625 m 2
 62.2255859375 78 l 1x98
 62.2255859375 55.447265625 50.099609375 50.8359375 39.248046875 43.494140625 c 1xa8
 46.982421875 50.935546875 53.0146484375 52.1396484375 53.0146484375 68.7890625 c 2
20 27.6884765625 m 2
 29.2109375 36.8994140625 l 1
 35.8525390625 24.48046875 40.4873046875 14.37890625 45.0283203125 11.583984375 c 0
 58.5107421875 3.28125 62.298828125 28.3798828125 39.248046875 43.4912109375 c 1
 45.3212890625 48.8173828125 l 1xc8
 81.693359375 29.841796875 59.896484375 2.5693359375 40.478515625 9.12890625 c 0
 30.6083984375 12.462890625 27.330078125 18.474609375 20 27.6884765625 c 2
EndSplineSet
Substitution2: "Single Substitution lookup 16 subtable" six.thou
Substitution2: "Single Substitution lookup 15 subtable" six.hund
Substitution2: "Single Substitution lookup 14 subtable" six.ten
EndChar

StartChar: seven
Encoding: 12 55 65
Width: 80
Flags: HW
AnchorPoint: "Diacritic_down" 40 -15 basechar 0
AnchorPoint: "Diacritic_up" 40 90 basechar 0
AnchorPoint: "Diacritic_left" 20 65 basechar 0
AnchorPoint: "Extension_up" 56 70 basechar 0
AnchorPoint: "Extension_down" 24 10 basechar 0
LayerCount: 2
Fore
SplineSet
20 5.54296875 m 1
 20 39.19921875 31.4609375 70.7197265625 58.818359375 29.1943359375 c 1
 49.607421875 19.98046875 l 1
 28.6513671875 50.05078125 29.2109375 58.3125 29.2109375 14.75390625 c 1
 20 5.54296875 l 1
49.607421875 68.7890625 m 1
 58.818359375 78 l 1
 58.818359375 29.1943359375 l 1
 49.607421875 19.98046875 l 1
 49.607421875 68.7890625 l 1
EndSplineSet
Substitution2: "Single Substitution lookup 16 subtable" seven.thou
Substitution2: "Single Substitution lookup 15 subtable" seven.hund
Substitution2: "Single Substitution lookup 14 subtable" seven.ten
EndChar

StartChar: eight
Encoding: 13 56 66
Width: 80
Flags: HW
AnchorPoint: "Diacritic_down" 40 -15 basechar 0
AnchorPoint: "Diacritic_up" 40 90 basechar 0
AnchorPoint: "Diacritic_left" 35 65 basechar 0
AnchorPoint: "Extension_up" 63 70 basechar 0
AnchorPoint: "Extension_down" 24 10 basechar 0
LayerCount: 2
Fore
SplineSet
57.9111328125 36.3896484375 m 1
 18 36.3896484375 l 1
 27.2109375 45.6005859375 l 1
 67.1220703125 45.6005859375 l 1
 57.9111328125 36.3896484375 l 1
67.060546875 78 m 1
 67.060546875 52.0869140625 46.2158203125 47.4287109375 22.7490234375 41.1416015625 c 1
 22.7490234375 41.1416015625 24.7529296875 43.142578125 27.2109375 45.6005859375 c 0
 44.783203125 50.3115234375 57.849609375 49.25390625 57.849609375 68.7890625 c 2
 67.060546875 78 l 1
19.611328125 5.54296875 m 1
 19.611328125 31.4560546875 38.630859375 34.2890625 62.09765625 40.5791015625 c 1
 62.09765625 40.5791015625 60.0966796875 38.5751953125 57.6357421875 36.1171875 c 0
 40.0634765625 31.40625 28.822265625 34.2890625 28.822265625 14.75390625 c 2
 19.611328125 5.54296875 l 1
EndSplineSet
Substitution2: "Single Substitution lookup 16 subtable" eight.thou
Substitution2: "Single Substitution lookup 15 subtable" eight.hund
Substitution2: "Single Substitution lookup 14 subtable" eight.ten
EndChar

StartChar: nine
Encoding: 14 57 67
Width: 80
Flags: HW
HStem: 5.54297 21G<20 29.2109> 58 20G<53.6533 62.8643>
VStem: 20 9.21094<14.7539 24.0181> 53.6562 9.20801<48.8115 68.7891>
AnchorPoint: "Diacritic_down" 40 -15 basechar 0
AnchorPoint: "Diacritic_up" 40 90 basechar 0
AnchorPoint: "Diacritic_left" 25 65 basechar 0
AnchorPoint: "Extension_up" 59 70 basechar 0
AnchorPoint: "Extension_down" 24 10 basechar 0
LayerCount: 2
Fore
SplineSet
53.6533203125 68.7890625 m 1
 62.8642578125 78 l 1
 62.8642578125 20.51953125 64.9912109375 13.5556640625 49.3349609375 7.6845703125 c 0
 35.71484375 2.5751953125 19.666015625 26.1416015625 48.2158203125 39.2548828125 c 1
 40.25 25.4560546875 35.8349609375 9.767578125 47.5888671875 9.767578125 c 0
 53.5595703125 9.767578125 53.65625 33.2958984375 53.65625 68.7890625 c 1
 53.6533203125 68.7890625 l 1
41.71484375 32.6865234375 m 0
 31.6455078125 32.6865234375 29.2109375 34.0986328125 29.2109375 14.75390625 c 2
 20 5.54296875 l 1
 20 27.9755859375 27.9951171875 39.2548828125 48.2158203125 39.2548828125 c 1
 44.9345703125 35.9736328125 45.34765625 36.322265625 41.71484375 32.6865234375 c 0
EndSplineSet
Substitution2: "Single Substitution lookup 16 subtable" nine.thou
Substitution2: "Single Substitution lookup 15 subtable" nine.hund
Substitution2: "Single Substitution lookup 14 subtable" nine.ten
EndChar

StartChar: b.flip
Encoding: 110 -1 68
Width: 80
Flags: HW
AnchorPoint: "Diacritic_right" 70 35 basechar 0
AnchorPoint: "Diacritic_left" 15 35 basechar 0
AnchorPoint: "Extension_up" 36 65 basechar 0
AnchorPoint: "Extension_down" 16 5 basechar 0
AnchorPoint: "Diacritic_down" 40 -15 basechar 0
AnchorPoint: "Diacritic_up" 40 90 basechar 0
LayerCount: 2
Fore
SplineSet
10.3251953125 0 m 1
 10.275390625 0.0498046875 l 1
 20.275390625 10.0498046875 l 1
 56.474609375 10.0498046875 l 1
 39.974609375 33.5498046875 l 1
 39.3251953125 32.900390625 l 1
 37.375 30.900390625 l 2
 35.3857421875 28.91796875 33.40234375 26.9345703125 31.4248046875 24.9501953125 c 2
 30.3251953125 23.849609375 l 1
 30.3251953125 60 l 1
 40.3251953125 70 l 1
 40.3251953125 36.2001953125 l 1
 46.525390625 42.4501953125 l 1
 69.724609375 9.400390625 l 1
 60.3251953125 0 l 1
 10.3251953125 0 l 1
EndSplineSet
Ligature2: "FlipCores subtable" b quotesingle
LCarets2: 1 0
EndChar

StartChar: c.flip
Encoding: 111 -1 69
Width: 80
Flags: HW
AnchorPoint: "Diacritic_right" 80 35 basechar 0
AnchorPoint: "Diacritic_left" 25 35 basechar 0
AnchorPoint: "Extension_up" 20 65 basechar 0
AnchorPoint: "Extension_down" 60 5 basechar 0
AnchorPoint: "Diacritic_down" 40 -15 basechar 0
AnchorPoint: "Diacritic_up" 40 90 basechar 0
LayerCount: 2
Fore
SplineSet
55 0 m 1
 55 60 l 1
 15 60 l 1
 25 70 l 1
 65 70 l 1
 65 10 l 1
 55 0 l 1
EndSplineSet
Ligature2: "FlipCores subtable" c quotesingle
LCarets2: 1 0
EndChar

StartChar: d.flip
Encoding: 112 -1 70
Width: 80
Flags: HW
AnchorPoint: "Diacritic_right" 80 35 basechar 0
AnchorPoint: "Diacritic_left" 25 35 basechar 0
AnchorPoint: "Extension_up" 50 65 basechar 0
AnchorPoint: "Extension_down" 20 5 basechar 0
AnchorPoint: "Diacritic_down" 40 -15 basechar 0
AnchorPoint: "Diacritic_up" 40 90 basechar 0
LayerCount: 2
Fore
SplineSet
55 0 m 1
 15 0 l 1
 25 10 l 1
 55 10 l 1
 55 33.849609375 l 1
 45 23.849609375 l 1
 45 60 l 1
 55 70 l 1
 55 36.25 l 1
 65 46.2998046875 l 1
 65 10 l 1
 55 0 l 1
EndSplineSet
Ligature2: "FlipCores subtable" d quotesingle
LCarets2: 1 0
EndChar

StartChar: f.flip
Encoding: 113 -1 71
Width: 80
Flags: HW
AnchorPoint: "Diacritic_right" 80 35 basechar 0
AnchorPoint: "Diacritic_left" 15 35 basechar 0
AnchorPoint: "Extension_up" 35 65 basechar 0
AnchorPoint: "Extension_down" 15 5 basechar 0
AnchorPoint: "Diacritic_down" 40 -15 basechar 0
AnchorPoint: "Diacritic_up" 40 90 basechar 0
LayerCount: 2
Fore
SplineSet
20 10 m 1
 60 10 l 1
 60 30 l 1
 30 30 l 1
 30 60 l 1
 40 70 l 1
 40 40 l 1
 70 40 l 1
 70 10 l 1
 60 0 l 1
 10 0 l 1
 20 10 l 1
EndSplineSet
Ligature2: "FlipCores subtable" f quotesingle
LCarets2: 1 0
EndChar

StartChar: g.flip
Encoding: 114 -1 72
Width: 80
VWidth: 67
Flags: HW
HStem: 0.0751953 10<12.1748 64.3252> 49.9248 20G<8.52539 32.2652 40.125 63.5936>
AnchorPoint: "Diacritic_right" 75 35 basechar 0
AnchorPoint: "Diacritic_left" 10 35 basechar 0
AnchorPoint: "Extension_up" 11 65 basechar 0
AnchorPoint: "Extension_down" 8 5 basechar 0
AnchorPoint: "Diacritic_down" 40 -15 basechar 0
AnchorPoint: "Diacritic_up" 40 90 basechar 0
LayerCount: 2
Fore
SplineSet
12.1748046875 10.0751953125 m 1
 64.3251953125 10.0751953125 l 1
 41.224609375 38.9248046875 l 1
 33.724609375 31.474609375 l 1
 8.525390625 62.525390625 l 1
 15.974609375 69.9248046875 l 1
 40.125 40.275390625 l 1
 47.375 47.5751953125 l 1
 77.8251953125 10.025390625 l 1
 67.9248046875 0.0751953125 l 1
 2.1748046875 0.0751953125 l 1
 12.1748046875 10.0751953125 l 1
EndSplineSet
Ligature2: "FlipCores subtable" g quotesingle
LCarets2: 1 0
EndChar

StartChar: h.flip
Encoding: 115 -1 73
Width: 80
VWidth: 67
Flags: HW
AnchorPoint: "Diacritic_right" 75 35 basechar 0
AnchorPoint: "Diacritic_left" 5 35 basechar 0
AnchorPoint: "Extension_up" 23 65 basechar 0
AnchorPoint: "Extension_down" 57 5 basechar 0
AnchorPoint: "Diacritic_down" 40 -15 basechar 0
AnchorPoint: "Diacritic_up" 40 90 basechar 0
LayerCount: 2
Fore
SplineSet
52.5 0 m 1
 52.5 35 l 1
 28.650390625 35 l 1
 17.5 23.849609375 l 1
 17.5 60 l 1
 27.5 70 l 1
 27.5 36.25 l 1
 36.2001953125 45 l 1
 62.5 45 l 1
 62.5 10 l 1
 52.5 0 l 1
EndSplineSet
Ligature2: "FlipCores subtable" h quotesingle
LCarets2: 1 0
EndChar

StartChar: j.flip
Encoding: 116 -1 74
Width: 80
VWidth: 67
Flags: HW
AnchorPoint: "Diacritic_right" 80 35 basechar 0
AnchorPoint: "Diacritic_left" 30 35 basechar 0
AnchorPoint: "Extension_up" 20 65 basechar 0
AnchorPoint: "Extension_down" 15 5 basechar 0
AnchorPoint: "Diacritic_down" 40 -15 basechar 0
AnchorPoint: "Diacritic_up" 40 90 basechar 0
LayerCount: 2
Fore
SplineSet
50 0 m 1
 10 0 l 1
 20 10 l 1
 50 10 l 1
 50 52.400390625 l 1
 57.599609375 60 l 1
 15 60 l 1
 25 70 l 1
 70 70 l 1
 60 60 l 1
 60 10 l 1
 50 0 l 1
EndSplineSet
Ligature2: "FlipCores subtable" j quotesingle
LCarets2: 1 0
EndChar

StartChar: k.flip
Encoding: 117 -1 75
Width: 80
VWidth: 67
Flags: HW
AnchorPoint: "Diacritic_right" 80 35 basechar 0
AnchorPoint: "Diacritic_left" 20 35 basechar 0
AnchorPoint: "Extension_up" 25 65 basechar 0
AnchorPoint: "Extension_down" 8 5 basechar 0
AnchorPoint: "Diacritic_down" 40 -15 basechar 0
AnchorPoint: "Diacritic_up" 40 90 basechar 0
LayerCount: 2
Fore
SplineSet
67.9248046875 -0.025390625 m 1
 2.1748046875 -0.025390625 l 1
 12.1748046875 9.974609375 l 1
 64.224609375 9.974609375 l 1
 21.525390625 62.525390625 l 1
 29.025390625 70.025390625 l 1
 30.4248046875 68.275390625 l 1
 30.474609375 68.275390625 l 1
 77.8251953125 9.9248046875 l 1
 67.9248046875 -0.025390625 l 1
EndSplineSet
Ligature2: "FlipCores subtable" k quotesingle
LCarets2: 1 0
EndChar

StartChar: l.flip
Encoding: 118 -1 76
Width: 80
VWidth: 67
Flags: HW
AnchorPoint: "Diacritic_right" 75 35 basechar 0
AnchorPoint: "Diacritic_left" 5 35 basechar 0
AnchorPoint: "Extension_up" 20 65 basechar 0
AnchorPoint: "Extension_down" 55 5 basechar 0
AnchorPoint: "Diacritic_down" 40 -15 basechar 0
AnchorPoint: "Diacritic_up" 40 90 basechar 0
LayerCount: 2
Fore
SplineSet
50 0 m 1
 50 35 l 1
 27.75 35 l 1
 52.599609375 60 l 1
 15 60 l 1
 25 70 l 1
 65 70 l 1
 40.0498046875 45 l 1
 60 45 l 1
 60 10 l 1
 50 0 l 1
EndSplineSet
Ligature2: "FlipCores subtable" l quotesingle
LCarets2: 1 0
EndChar

StartChar: m.flip
Encoding: 119 -1 77
Width: 80
VWidth: 67
Flags: HW
AnchorPoint: "Diacritic_right" 75 35 basechar 0
AnchorPoint: "Diacritic_left" 15 35 basechar 0
AnchorPoint: "Extension_up" 24 65 basechar 0
AnchorPoint: "Extension_down" 53 5 basechar 0
AnchorPoint: "Diacritic_down" 40 -15 basechar 0
AnchorPoint: "Diacritic_up" 40 90 basechar 0
LayerCount: 2
Fore
SplineSet
48.75 0 m 1
 48.75 35 l 1
 21.25 62.5 l 1
 28.75 70 l 1
 58.75 40 l 1
 58.75 10 l 1
 48.75 0 l 1
EndSplineSet
Ligature2: "FlipCores subtable" m quotesingle
LCarets2: 1 0
EndChar

StartChar: n.flip
Encoding: 120 -1 78
Width: 80
VWidth: 67
Flags: HW
AnchorPoint: "Diacritic_right" 75 35 basechar 0
AnchorPoint: "Diacritic_left" 15 35 basechar 0
AnchorPoint: "Extension_up" 24 65 basechar 0
AnchorPoint: "Extension_down" 53 5 basechar 0
AnchorPoint: "Diacritic_down" 40 -15 basechar 0
AnchorPoint: "Diacritic_up" 40 90 basechar 0
LayerCount: 2
Fore
SplineSet
48.849609375 0.0751953125 m 2
 48.849609375 37.6748046875 l 1
 42.75 31.5751953125 l 1
 21.150390625 62.4248046875 l 1
 28.650390625 69.9248046875 l 1
 49.2998046875 40.525390625 l 1
 58.849609375 50.0751953125 l 1
 58.849609375 10.0751953125 l 1
 48.849609375 0.0751953125 l 2
EndSplineSet
Ligature2: "FlipCores subtable" n quotesingle
LCarets2: 1 0
EndChar

StartChar: p.flip
Encoding: 121 -1 79
Width: 80
VWidth: 67
Flags: HW
AnchorPoint: "Diacritic_right" 75 35 basechar 0
AnchorPoint: "Diacritic_left" 15 35 basechar 0
AnchorPoint: "Extension_up" 40 65 basechar 0
AnchorPoint: "Extension_down" 15 5 basechar 0
AnchorPoint: "Diacritic_down" 40 -15 basechar 0
AnchorPoint: "Diacritic_up" 40 90 basechar 0
LayerCount: 2
Fore
SplineSet
54.9501953125 10 m 1
 35 29.9501953125 l 1
 35 60 l 1
 45 70 l 1
 45 35 l 1
 70 10 l 1
 60 0 l 1
 10 0 l 1
 20 10 l 1
 54.9501953125 10 l 1
EndSplineSet
Ligature2: "FlipCores subtable" p quotesingle
LCarets2: 1 0
EndChar

StartChar: r.flip
Encoding: 122 -1 80
Width: 80
VWidth: 67
Flags: HW
AnchorPoint: "Diacritic_right" 65 35 basechar 0
AnchorPoint: "Diacritic_left" 5 35 basechar 0
AnchorPoint: "Extension_up" 20 65 basechar 0
AnchorPoint: "Extension_down" 62 5 basechar 0
AnchorPoint: "Diacritic_down" 40 -15 basechar 0
AnchorPoint: "Diacritic_up" 40 90 basechar 0
LayerCount: 2
Fore
SplineSet
57.5 0 m 1
 25.099609375 32.400390625 l 1
 52.599609375 60 l 1
 15 60 l 1
 25 70 l 1
 65 70 l 1
 33.75 38.75 l 1
 65 7.5 l 1
 57.5 0 l 1
EndSplineSet
Ligature2: "FlipCores subtable" r quotesingle
LCarets2: 1 0
EndChar

StartChar: s.flip
Encoding: 123 -1 81
Width: 80
VWidth: 67
Flags: HW
AnchorPoint: "Diacritic_right" 75 35 basechar 0
AnchorPoint: "Diacritic_left" 5 35 basechar 0
AnchorPoint: "Extension_up" 33 65 basechar 0
AnchorPoint: "Extension_down" 17 5 basechar 0
AnchorPoint: "Diacritic_down" 40 -15 basechar 0
AnchorPoint: "Diacritic_up" 40 90 basechar 0
LayerCount: 2
Fore
SplineSet
12.5 0.025390625 m 2
 12.5 30.025390625 l 1
 22.5 40.025390625 l 1
 52.5 40.025390625 l 1
 30.0498046875 62.474609375 l 1
 37.5498046875 69.974609375 l 1
 67.5 40.025390625 l 1
 57.5 30.025390625 l 1
 22.5 30.025390625 l 1
 22.5 10.025390625 l 1
 12.5 0.025390625 l 2
EndSplineSet
Ligature2: "FlipCores subtable" s quotesingle
LCarets2: 1 0
EndChar

StartChar: t.flip
Encoding: 124 -1 82
Width: 80
VWidth: 67
Flags: HW
AnchorPoint: "Diacritic_right" 80 35 basechar 0
AnchorPoint: "Diacritic_left" 25 35 basechar 0
AnchorPoint: "Extension_up" 60 65 basechar 0
AnchorPoint: "Extension_down" 20 5 basechar 0
AnchorPoint: "Diacritic_down" 40 -15 basechar 0
AnchorPoint: "Diacritic_up" 40 90 basechar 0
LayerCount: 2
Fore
SplineSet
55 0 m 1
 15 0 l 1
 25 10 l 1
 55 10 l 1
 55 60 l 1
 65 70 l 1
 65 10 l 1
 55 0 l 1
EndSplineSet
Ligature2: "FlipCores subtable" t quotesingle
LCarets2: 1 0
EndChar

StartChar: v.flip
Encoding: 125 -1 83
Width: 80
VWidth: 67
Flags: HW
HStem: 0 10<20 60> 25 10<45 52.3496> 50 20G<35 45 60 70>
VStem: 35 10<35 60> 60 10<10 32.5996>
AnchorPoint: "Diacritic_right" 80 35 basechar 0
AnchorPoint: "Diacritic_left" 15 35 basechar 0
AnchorPoint: "Extension_up" 40 65 basechar 0
AnchorPoint: "Extension_down" 15 5 basechar 0
AnchorPoint: "Diacritic_down" 40 -15 basechar 0
AnchorPoint: "Diacritic_up" 40 90 basechar 0
LayerCount: 2
Fore
SplineSet
20 10 m 1
 60 10 l 1
 60 32.599609375 l 1
 52.349609375 25 l 1
 35 25 l 1
 35 60 l 1
 45 70 l 1
 45 35 l 1
 60 35 l 1
 70 45 l 1
 70 10 l 1
 60 0 l 1
 10 0 l 1
 20 10 l 1
EndSplineSet
Ligature2: "FlipCores subtable" v quotesingle
LCarets2: 1 0
EndChar

StartChar: x.flip
Encoding: 126 -1 84
Width: 80
VWidth: 67
Flags: HW
HStem: -0.0253906 10<12.1748 62.7754> 50.0254 20G<25.2246 52.7246> 50.0254 20G<25.2246 52.7246>
AnchorPoint: "Diacritic_right" 80 35 basechar 0
AnchorPoint: "Diacritic_left" 15 35 basechar 0
AnchorPoint: "Extension_up" 28 65 basechar 0
AnchorPoint: "Extension_down" 8 5 basechar 0
AnchorPoint: "Diacritic_down" 40 -15 basechar 0
AnchorPoint: "Diacritic_up" 40 90 basechar 0
LayerCount: 2
Fore
SplineSet
2.1748046875 -0.025390625 m 1xc0
 12.1748046875 9.974609375 l 1
 62.775390625 9.974609375 l 1
 43.474609375 29.275390625 l 1
 50.9248046875 36.8251953125 l 1
 25.224609375 62.525390625 l 1
 32.724609375 70.025390625 l 1
 59.625 43.125 l 1
 52.125 35.625 l 1
 77.8251953125 9.9248046875 l 1
 67.9248046875 -0.025390625 l 1
 2.1748046875 -0.025390625 l 1xc0
EndSplineSet
Ligature2: "FlipCores subtable" x quotesingle
LCarets2: 1 0
EndChar

StartChar: z.flip
Encoding: 127 -1 85
Width: 80
VWidth: 67
Flags: HW
AnchorPoint: "Diacritic_right" 75 35 basechar 0
AnchorPoint: "Diacritic_left" 5 35 basechar 0
AnchorPoint: "Extension_up" 35 65 basechar 0
AnchorPoint: "Extension_down" 50 5 basechar 0
AnchorPoint: "Diacritic_down" 40 -15 basechar 0
AnchorPoint: "Diacritic_up" 40 90 basechar 0
LayerCount: 2
Fore
SplineSet
25 39.625 m 1
 55 39.625 l 1
 31.900390625 62.724609375 l 1
 39.400390625 70.224609375 l 1
 65 44.625 l 1
 50 29.625 l 1
 30 29.625 l 1
 52.349609375 7.275390625 l 1
 44.849609375 -0.224609375 l 1
 15 29.625 l 1
 25 39.625 l 1
EndSplineSet
Ligature2: "FlipCores subtable" z quotesingle
LCarets2: 1 0
EndChar

StartChar: ccedilla.flip
Encoding: 128 -1 86
Width: 80
VWidth: -21
Flags: HW
AnchorPoint: "Diacritic_right" 85 35 basechar 0
AnchorPoint: "Diacritic_left" 10 35 basechar 0
AnchorPoint: "Extension_up" 46 65 basechar 0
AnchorPoint: "Extension_down" 9 5 basechar 0
AnchorPoint: "Diacritic_down" 40 -15 basechar 0
AnchorPoint: "Diacritic_up" 40 90 basechar 0
LayerCount: 2
Fore
SplineSet
53.150390625 0 m 2
 3.150390625 0 l 1
 13.150390625 10 l 1
 48.150390625 10 l 1
 28.150390625 30 l 1
 35.650390625 37.5 l 1
 68 37.5 l 1
 43 62.5 l 1
 50.5 70 l 1
 76.849609375 43.650390625 l 1
 60.650390625 27.5 l 1
 45.650390625 27.5 l 1
 63.150390625 10 l 1
 53.150390625 0 l 2
EndSplineSet
Ligature2: "FlipCores subtable" ccedilla quotesingle
LCarets2: 1 0
EndChar

StartChar: ccaron.flip
Encoding: 129 -1 87
Width: 80
VWidth: -21
Flags: HW
AnchorPoint: "Diacritic_right" 80 35 basechar 0
AnchorPoint: "Diacritic_left" 25 35 basechar 0
AnchorPoint: "Extension_up" 20 65 basechar 0
AnchorPoint: "Extension_down" 20 5 basechar 0
AnchorPoint: "Diacritic_down" 40 -15 basechar 0
AnchorPoint: "Diacritic_up" 40 90 basechar 0
LayerCount: 2
Fore
SplineSet
55 0 m 1
 15 0 l 1
 25 10 l 1
 55 10 l 1
 55 60 l 1
 15 60 l 1
 25 70 l 1
 65 70 l 1
 65 10 l 1
 55 0 l 1
EndSplineSet
Ligature2: "FlipCores subtable" ccaron quotesingle
LCarets2: 1 0
EndChar

StartChar: lcedilla.flip
Encoding: 130 -1 88
Width: 80
VWidth: -21
Flags: HW
HStem: 0 21G<51.2246 61.2246> 30 10<43.5254 51.2246> 50 20G<18.7754 46.2676> 50 20G<18.7754 46.2676>
VStem: 51.2246 10<10 30>
AnchorPoint: "Diacritic_right" 80 35 basechar 0
AnchorPoint: "Diacritic_left" 10 35 basechar 0
AnchorPoint: "Extension_up" 22 65 basechar 0
AnchorPoint: "Extension_down" 56 5 basechar 0
AnchorPoint: "Diacritic_down" 40 -15 basechar 0
AnchorPoint: "Diacritic_up" 40 90 basechar 0
LayerCount: 2
Fore
SplineSet
51.224609375 0 m 1xe8
 51.224609375 30 l 1
 31.224609375 30 l 1
 41.275390625 40 l 1
 18.775390625 62.5 l 1
 26.224609375 70 l 1
 49.875 46.400390625 l 1
 43.525390625 40 l 1
 61.224609375 40 l 1
 61.224609375 10 l 1
 51.224609375 0 l 1xe8
EndSplineSet
Ligature2: "FlipCores subtable" lcedilla quotesingle
LCarets2: 1 0
EndChar

StartChar: ncaron.flip
Encoding: 131 -1 89
Width: 80
VWidth: -21
Flags: HW
AnchorPoint: "Diacritic_right" 70 35 basechar 0
AnchorPoint: "Diacritic_left" 20 35 basechar 0
AnchorPoint: "Extension_up" 26 65 basechar 0
AnchorPoint: "Extension_down" 43 5 basechar 0
AnchorPoint: "Diacritic_down" 40 -15 basechar 0
AnchorPoint: "Diacritic_up" 40 90 basechar 0
LayerCount: 2
Fore
SplineSet
48.650390625 9.9501953125 m 1
 38.650390625 -0.0498046875 l 1
 38.650390625 27.349609375 l 1
 48.400390625 37.0498046875 l 1
 22.900390625 62.5498046875 l 1
 30.400390625 70.0498046875 l 1
 57.099609375 43.400390625 l 1
 48.650390625 34.9501953125 l 1
 48.650390625 9.9501953125 l 1
EndSplineSet
Ligature2: "FlipCores subtable" ncaron quotesingle
LCarets2: 1 0
EndChar

StartChar: rcaron.flip
Encoding: 132 -1 90
Width: 80
VWidth: -21
Flags: HW
AnchorPoint: "Diacritic_right" 70 35 basechar 0
AnchorPoint: "Diacritic_left" 15 35 basechar 0
AnchorPoint: "Extension_up" 21 65 basechar 0
AnchorPoint: "Extension_down" 61 5 basechar 0
AnchorPoint: "Diacritic_down" 40 -15 basechar 0
AnchorPoint: "Diacritic_up" 40 90 basechar 0
LayerCount: 2
Fore
SplineSet
56.4501953125 0.025390625 m 1
 56.5 -0.025390625 l 1
 32.5 23.974609375 l 1
 41.05078125 32.474609375 l 1
 40.9501953125 60.025390625 l 1
 15.9501953125 60.025390625 l 1
 25.9501953125 70.025390625 l 1
 50.9501953125 70.025390625 l 1
 50.9501953125 40.025390625 l 1
 41.2001953125 30.224609375 l 1
 63.9501953125 7.525390625 l 1
 56.4501953125 0.025390625 l 1
EndSplineSet
Ligature2: "FlipCores subtable" rcaron quotesingle
LCarets2: 1 0
EndChar

StartChar: scaron.flip
Encoding: 133 -1 91
Width: 80
VWidth: -21
Flags: HW
AnchorPoint: "Diacritic_left" 0 35 basechar 0
AnchorPoint: "Diacritic_right" 75 35 basechar 0
AnchorPoint: "Extension_up" 25 65 basechar 0
AnchorPoint: "Extension_down" 25 5 basechar 0
AnchorPoint: "Diacritic_down" 40 -15 basechar 0
AnchorPoint: "Diacritic_up" 40 90 basechar 0
LayerCount: 2
Fore
SplineSet
20 0 m 1
 20 30 l 1
 30 40 l 1
 50 40 l 1
 50 60 l 1
 20 60 l 1
 30 70 l 1
 60 70 l 1
 60 40 l 1
 50 30 l 1
 30 30 l 1
 30 10 l 1
 20 0 l 1
EndSplineSet
Ligature2: "FlipCores subtable" scaron quotesingle
LCarets2: 1 0
EndChar

StartChar: tcedilla.flip
Encoding: 134 -1 92
Width: 80
VWidth: -21
Flags: HW
HStem: -0.0498047 10<20 60> 50.0498 20G<29.4004 56.9004> 50.0498 20G<29.4004 56.9004>
VStem: 60 10<9.9502 31.9502>
AnchorPoint: "Diacritic_right" 80 35 basechar 0
AnchorPoint: "Diacritic_left" 25 35 basechar 0
AnchorPoint: "Extension_up" 32 65 basechar 0
AnchorPoint: "Extension_down" 15 5 basechar 0
AnchorPoint: "Diacritic_down" 40 -15 basechar 0
AnchorPoint: "Diacritic_up" 40 90 basechar 0
LayerCount: 2
Fore
SplineSet
10 -0.0498046875 m 1xd0
 20 9.9501953125 l 1
 60 9.9501953125 l 1
 60 31.9501953125 l 1
 29.400390625 62.5498046875 l 1
 36.900390625 70.0498046875 l 1
 70 36.9501953125 l 1
 70 9.9501953125 l 1
 60 -0.0498046875 l 1
 10 -0.0498046875 l 1xd0
EndSplineSet
Ligature2: "FlipCores subtable" tcedilla quotesingle
LCarets2: 1 0
EndChar

StartChar: zdotaccent.flip
Encoding: 135 -1 93
Width: 80
VWidth: -21
Flags: HW
AnchorPoint: "Diacritic_right" 75 35 basechar 0
AnchorPoint: "Diacritic_left" 20 35 basechar 0
AnchorPoint: "Extension_up" 18 65 basechar 0
AnchorPoint: "Extension_down" 52 5 basechar 0
AnchorPoint: "Diacritic_down" 40 -15 basechar 0
AnchorPoint: "Diacritic_up" 40 90 basechar 0
LayerCount: 2
Fore
SplineSet
47.5 0 m 1
 47.5 52.400390625 l 1
 55.099609375 60 l 1
 12.5 60 l 1
 22.5 70 l 1
 67.5 70 l 1
 57.5 60 l 1
 57.5 10 l 1
 47.5 0 l 1
EndSplineSet
Ligature2: "FlipCores subtable" zdotaccent quotesingle
LCarets2: 1 0
EndChar

StartChar: zcaron.flip
Encoding: 136 -1 94
Width: 80
VWidth: -21
Flags: HW
AnchorPoint: "Diacritic_left" 5 35 basechar 0
AnchorPoint: "Diacritic_right" 75 35 basechar 0
AnchorPoint: "Extension_up" 20 65 basechar 0
AnchorPoint: "Extension_down" 53 5 basechar 0
AnchorPoint: "Diacritic_down" 40 -15 basechar 0
AnchorPoint: "Diacritic_up" 40 90 basechar 0
LayerCount: 2
Fore
SplineSet
48.0498046875 -0.025390625 m 1
 16.5 31.525390625 l 1
 25 40.025390625 l 1
 55 40.025390625 l 1
 55 60.025390625 l 1
 15 60.025390625 l 1
 25 70.025390625 l 1
 65 70.025390625 l 1
 65 47.6748046875 l 1
 47.400390625 30.025390625 l 1
 33 30.025390625 l 1
 55.5498046875 7.474609375 l 1
 48.0498046875 -0.025390625 l 1
EndSplineSet
Ligature2: "FlipCores subtable" zcaron quotesingle
LCarets2: 1 0
EndChar

StartChar: Sigma.flip
Encoding: 137 -1 95
Width: 80
VWidth: -21
Flags: HW
AnchorPoint: "Diacritic_right" 65 30 basechar 0
AnchorPoint: "Extension_down" 15 5 basechar 0
AnchorPoint: "Extension_up" 20 65 basechar 0
AnchorPoint: "Diacritic_left" 25 50 basechar 0
AnchorPoint: "Diacritic_down" 40 -15 basechar 0
AnchorPoint: "Diacritic_up" 40 90 basechar 0
LayerCount: 2
Fore
SplineSet
66.150390625 16.2001953125 m 1
 50 0 l 1
 10 0 l 1
 20 10 l 1
 57.349609375 10 l 1
 32.5498046875 34.7998046875 l 1
 57.599609375 60 l 1
 15 60 l 1
 25 70 l 1
 70 70 l 1
 41.2001953125 41.150390625 l 1
 66.150390625 16.2001953125 l 1
EndSplineSet
Ligature2: "FlipCores subtable" Sigma quotesingle
LCarets2: 1 0
EndChar

StartChar: ddotbelow.flip
Encoding: 138 -1 96
Width: 80
VWidth: -21
Flags: HW
AnchorPoint: "Diacritic_left" 30 35 basechar 0
AnchorPoint: "Diacritic_right" 85 35 basechar 0
AnchorPoint: "Extension_up" 35 65 basechar 0
AnchorPoint: "Extension_down" 15 5 basechar 0
AnchorPoint: "Diacritic_down" 40 -15 basechar 0
AnchorPoint: "Diacritic_up" 40 90 basechar 0
LayerCount: 2
Fore
SplineSet
10 0.0751953125 m 1
 20 10.0751953125 l 1
 60 10.0751953125 l 1
 60 37.6748046875 l 1
 53.7998046875 31.474609375 l 1
 32.150390625 62.275390625 l 1
 39.7998046875 69.9248046875 l 1
 60.4501953125 40.525390625 l 1
 70 50.0751953125 l 1
 70 10.0751953125 l 1
 60 0.0751953125 l 1
 10 0.0751953125 l 1
EndSplineSet
Ligature2: "FlipCores subtable" ddotbelow quotesingle
LCarets2: 1 0
EndChar

StartChar: a
Encoding: 27 97 97
Width: 80
Flags: HW
AnchorPoint: "Diacritic_mkmk" 42 40 mark 0
LayerCount: 2
Fore
SplineSet
35 40 m 5
 42.5 47.5 l 5
 50 40 l 5
 42.5 32.5 l 5
 35 40 l 5
EndSplineSet
EndChar

StartChar: e
Encoding: 31 101 98
Width: 80
Flags: HW
AnchorPoint: "Diacritic_mkmk" 43 40 mark 0
LayerCount: 2
Fore
SplineSet
50 35 m 5
 22.400390625 35 l 5
 32.400390625 45 l 5
 62.400390625 45 l 5
 42.400390625 25 l 5
 41.2001953125 26.2001953125 l 5
 50 35 l 5
EndSplineSet
EndChar

StartChar: i
Encoding: 35 105 99
Width: 80
Flags: HW
AnchorPoint: "Diacritic_mkmk" 40 40 mark 0
LayerCount: 2
Fore
SplineSet
27 46 m 5
 34.5 53.5 l 5
 54.5 33.5 l 5
 47 26 l 5
 27 46 l 5
EndSplineSet
EndChar

StartChar: o
Encoding: 41 111 100
Width: 80
Flags: HW
HStem: 39.0996 7.5<21.6504 27.0291>
VStem: 14.1504 25.8496
AnchorPoint: "Diacritic_mkmk" 43 40 mark 0
LayerCount: 2
Fore
SplineSet
50 41 m 0
 50.5 37.5 49.650390625 33.7998046875 47.4501953125 29.900390625 c 0
 45.083984375 25.7666015625 41.4501953125 21.966796875 36.5498046875 18.5 c 1
 35.2998046875 19.650390625 l 1
 42.7666015625 25.4501953125 45.25 31.0830078125 42.75 36.5498046875 c 0
 40.283203125 41.9833984375 34.0830078125 44.8330078125 24.150390625 45.099609375 c 1
 31.650390625 52.599609375 l 1
 37.0166015625 52.6669921875 41.3330078125 51.6005859375 44.599609375 49.400390625 c 0
 47.7001953125 47.3330078125 49.5 44.533203125 50 41 c 0
EndSplineSet
EndChar

StartChar: u
Encoding: 46 117 101
Width: 80
Flags: HW
AnchorPoint: "Diacritic_mkmk" 43 40 mark 0
LayerCount: 2
Fore
SplineSet
36 46 m 5
 46 56 l 5
 46 33.400390625 l 5
 54.7998046875 42.2001953125 l 5
 56 41 l 5
 36 21 l 5
 36 46 l 5
EndSplineSet
EndChar

StartChar: adieresis
Encoding: 56 228 102
Width: 80
Flags: HW
AnchorPoint: "Diacritic_mkmk" 40 40 mark 0
LayerCount: 2
Fore
SplineSet
50 36 m 5
 20 36 l 5
 30 46 l 5
 60 46 l 5
 50 36 l 5
EndSplineSet
EndChar

StartChar: edieresis
Encoding: 58 235 103
Width: 80
Flags: HW
AnchorPoint: "Diacritic_mkmk" 41 40 mark 0
LayerCount: 2
Fore
SplineSet
34 46 m 5
 61.599609375 46 l 5
 51.599609375 36 l 5
 21.599609375 36 l 5
 41.599609375 56 l 5
 42.7998046875 54.7998046875 l 5
 34 46 l 5
EndSplineSet
EndChar

StartChar: idieresis
Encoding: 59 239 104
Width: 80
Flags: HW
AnchorPoint: "Diacritic_mkmk" 41 40 mark 0
LayerCount: 2
Fore
SplineSet
46 57 m 5
 46 32 l 5
 36 22 l 5
 36 47 l 5
 46 57 l 5
EndSplineSet
EndChar

StartChar: odieresis
Encoding: 62 246 105
Width: 80
Flags: HW
AnchorPoint: "Diacritic_mkmk" 47 40 mark 0
LayerCount: 2
Fore
SplineSet
30 32 m 0
 29.5 35.5 30.349609375 39.2001953125 32.5498046875 43.099609375 c 0
 34.916015625 47.2333984375 38.5498046875 51.033203125 43.4501953125 54.5 c 1
 44.7001953125 53.349609375 l 1
 37.2333984375 47.5498046875 34.75 41.9169921875 37.25 36.4501953125 c 0
 39.716796875 31.0166015625 45.9169921875 28.1669921875 55.849609375 27.900390625 c 1
 48.349609375 20.400390625 l 1
 42.9833984375 20.3330078125 38.6669921875 21.3994140625 35.400390625 23.599609375 c 0
 32.2998046875 25.6669921875 30.5 28.466796875 30 32 c 0
EndSplineSet
EndChar

StartChar: udieresis
Encoding: 63 252 106
Width: 80
Flags: HW
AnchorPoint: "Diacritic_mkmk" 42 40 mark 0
LayerCount: 2
Fore
SplineSet
47 33 m 5
 37 23 l 5
 37 45.599609375 l 5
 28.2001953125 36.7998046875 l 5
 27 38 l 5
 47 58 l 5
 47 33 l 5
EndSplineSet
EndChar

StartChar: ohungarumlaut
Encoding: 67 337 107
Width: 80
Flags: HW
AnchorPoint: "Diacritic_mkmk" 47 40 mark 0
LayerCount: 2
Fore
SplineSet
33 42 m 4
 35.3662109375 46.1337890625 39 49.93359375 43.900390625 53.400390625 c 5
 45.150390625 52.25 l 5
 37.68359375 46.4501953125 35.2001953125 40.81640625 37.7001953125 35.349609375 c 4
 40.1669921875 29.9169921875 46.3671875 27.06640625 56.2998046875 26.7998046875 c 5
 38.7998046875 9.2998046875 l 5
 37.599609375 10.5 l 5
 46.4501953125 19.349609375 l 5
 42.158203125 19.5810546875 38.6240234375 20.6318359375 35.849609375 22.5 c 4
 32.75 24.56640625 30.9501953125 27.3662109375 30.4501953125 30.900390625 c 4
 29.9501953125 34.400390625 30.7998046875 38.1005859375 33 42 c 4
EndSplineSet
EndChar

StartChar: ograve
Encoding: 60 242 109
Width: 80
Flags: HW
AnchorPoint: "Diacritic_mkmk" 42 40 mark 0
LayerCount: 2
Fore
SplineSet
60 46 m 1
 53.6337890625 35.466796875 46.3671875 29.3671875 38.2001953125 27.7001953125 c 0
 30.099609375 26.033203125 23.8662109375 29.216796875 19.5 37.25 c 1
 27 44.75 l 1
 33.43359375 37.9169921875 39.25 34.6669921875 44.4501953125 35 c 0
 49.68359375 35.3662109375 54.4833984375 39.4501953125 58.849609375 47.25 c 1
 60 46 l 1
EndSplineSet
EndChar

StartChar: oacute
Encoding: 61 243 110
Width: 80
Flags: HW
AnchorPoint: "Diacritic_mkmk" 47 40 mark 0
LayerCount: 2
Fore
SplineSet
20 26 m 5
 26.3662109375 36.533203125 33.6328125 42.6328125 41.7998046875 44.2998046875 c 4
 49.900390625 45.966796875 56.1337890625 42.783203125 60.5 34.75 c 5
 53 27.25 l 5
 46.56640625 34.0830078125 40.75 37.3330078125 35.5498046875 37 c 4
 30.31640625 36.6337890625 25.5166015625 32.5498046875 21.150390625 24.75 c 5
 20 26 l 5
EndSplineSet
EndChar

StartChar: a_ograve
Encoding: 139 -1 111
Width: 80
Flags: HW
AnchorPoint: "Diacritic_mkmk" 42 40 mark 0
LayerCount: 2
Fore
SplineSet
60 46 m 1
 53.6337890625 35.466796875 46.3671875 29.3671875 38.2001953125 27.7001953125 c 0
 30.099609375 26.033203125 23.8662109375 29.216796875 19.5 37.25 c 1
 27 44.75 l 1
 33.43359375 37.9169921875 39.25 34.6669921875 44.4501953125 35 c 0
 49.68359375 35.3662109375 54.4833984375 39.4501953125 58.849609375 47.25 c 1
 60 46 l 1
50.400390625 47.25 m 1
 42.900390625 39.75 l 1
 35.400390625 47.25 l 1
 42.900390625 54.75 l 1
 50.400390625 47.25 l 1
EndSplineSet
Ligature2: "VowelLigature subtable" ograve a
Ligature2: "VowelLigature subtable" a ograve
LCarets2: 1 0
EndChar

StartChar: a_oacute
Encoding: 140 -1 112
Width: 80
Flags: HW
AnchorPoint: "Diacritic_mkmk" 47 40 mark 0
LayerCount: 2
Fore
SplineSet
20 26 m 5
 26.3662109375 36.533203125 33.6328125 42.6328125 41.7998046875 44.2998046875 c 4
 49.900390625 45.966796875 56.1337890625 42.783203125 60.5 34.75 c 5
 53 27.25 l 5
 46.56640625 34.0830078125 40.75 37.3330078125 35.5498046875 37 c 4
 30.31640625 36.6337890625 25.5166015625 32.5498046875 21.150390625 24.75 c 5
 20 26 l 5
29.599609375 24.75 m 5
 37.099609375 32.25 l 5
 44.599609375 24.75 l 5
 37.099609375 17.25 l 5
 29.599609375 24.75 l 5
EndSplineSet
Ligature2: "VowelLigature subtable" oacute a
Ligature2: "VowelLigature subtable" a oacute
LCarets2: 1 0
EndChar

StartChar: one.thou
Encoding: 141 -1 113
Width: 80
Flags: HW
AnchorPoint: "Diacritic_mkmk" 45 55 mark 0
LayerCount: 2
Fore
SplineSet
27.4853515625 49.451171875 m 1
 34.900390625 59.2744140625 l 1
 65.029296875 59.2744140625 l 1
 57.611328125 49.451171875 l 1
 27.4853515625 49.451171875 l 1
EndSplineSet
EndChar

StartChar: two.thou
Encoding: 142 -1 114
Width: 80
Flags: HW
AnchorPoint: "Diacritic_mkmk" 45 55 mark 0
LayerCount: 2
Fore
SplineSet
30.671875 56.1962890625 m 1
 37.5478515625 63.072265625 l 1
 42.5517578125 30.4619140625 55.421875 48.7431640625 58.5947265625 58.4404296875 c 1
 59.8662109375 48.8779296875 41.34765625 27.6875 30.671875 56.1962890625 c 1
EndSplineSet
EndChar

StartChar: three.thou
Encoding: 143 -1 115
Width: 80
Flags: HW
AnchorPoint: "Diacritic_mkmk" 45 55 mark 0
LayerCount: 2
Fore
SplineSet
32.4970703125 58.39453125 m 1
 37.4453125 63.03515625 l 1
 55.005859375 46.5703125 l 1
 50.0546875 41.9296875 l 1
 32.4970703125 58.39453125 l 1
EndSplineSet
EndChar

StartChar: four.thou
Encoding: 144 -1 116
Width: 80
Flags: HW
AnchorPoint: "Diacritic_mkmk" 45 55 mark 0
LayerCount: 2
Fore
SplineSet
55.005859375 58.39453125 m 1
 37.4453125 41.9296875 l 1
 32.4970703125 46.5703125 l 1
 50.0546875 63.03515625 l 1
 55.005859375 58.39453125 l 1
EndSplineSet
EndChar

StartChar: five.thou
Encoding: 145 -1 117
Width: 80
Flags: HW
AnchorPoint: "Diacritic_mkmk" 45 55 mark 0
LayerCount: 2
Fore
SplineSet
25.4873046875 56.7021484375 m 1
 34.0888671875 63.9267578125 l 1
 69.025390625 63.9267578125 l 1
 60.4267578125 56.7021484375 l 1
 25.4873046875 56.7021484375 l 1
31.8359375 62.0341796875 m 1
 60.9072265625 46.38671875 l 1
 54.55859375 40.146484375 l 1
 25.4873046875 56.7021484375 l 1
 31.8359375 62.0341796875 l 1
EndSplineSet
EndChar

StartChar: six.thou
Encoding: 146 -1 118
Width: 80
Flags: HW
AnchorPoint: "Diacritic_mkmk" 45 55 mark 0
LayerCount: 2
Fore
SplineSet
27.4853515625 54.990234375 m 1
 34.900390625 64.8134765625 l 1
 65.029296875 64.8134765625 l 1
 57.611328125 54.990234375 l 1
 27.4853515625 54.990234375 l 1
34.748046875 38.373046875 m 1
 43.0390625 48.052734375 53.85546875 56.4169921875 65.029296875 64.8134765625 c 1
 57.611328125 54.990234375 l 2
 48.166015625 48.09375 53.603515625 51.1435546875 34.748046875 38.373046875 c 1
EndSplineSet
EndChar

StartChar: seven.thou
Encoding: 147 -1 119
Width: 80
Flags: HW
AnchorPoint: "Diacritic_mkmk" 45 55 mark 0
LayerCount: 2
Fore
SplineSet
39.8037109375 65.328125 m 1
 68.3125 54.65234375 47.1220703125 36.1337890625 37.5595703125 37.4052734375 c 1
 47.2568359375 40.578125 65.5380859375 53.4482421875 32.927734375 58.4521484375 c 1
 39.8037109375 65.328125 l 1
EndSplineSet
EndChar

StartChar: eight.thou
Encoding: 148 -1 120
Width: 80
Flags: HW
AnchorPoint: "Diacritic_mkmk" 45 55 mark 0
LayerCount: 2
Fore
SplineSet
47.2685546875 37.34375 m 1
 18.759765625 48.01953125 39.947265625 66.53515625 49.5126953125 65.2666015625 c 1
 39.8125 62.09375 21.53125 49.220703125 54.14453125 44.2197265625 c 1
 47.2685546875 37.34375 l 1
EndSplineSet
EndChar

StartChar: nine.thou
Encoding: 149 -1 121
Width: 80
Flags: HW
AnchorPoint: "Diacritic_mkmk" 45 55 mark 0
LayerCount: 2
Fore
SplineSet
58.65625 48.7314453125 m 1
 51.7802734375 41.85546875 l 1
 46.779296875 74.46875 33.90625 56.1875 30.7333984375 46.4873046875 c 1
 29.46484375 56.052734375 47.98046875 77.240234375 58.65625 48.7314453125 c 1
EndSplineSet
EndChar

StartChar: backslash.flip
Encoding: 152 -1 129
Width: 80
Flags: HW
AnchorPoint: "Diacritic_down" 40 -15 basechar 0
AnchorPoint: "Diacritic_up" 40 90 basechar 0
AnchorPoint: "Extension_down" 69 5 basechar 0
AnchorPoint: "Extension_up" 10 65 basechar 0
AnchorPoint: "Diacritic_right" 65 60 basechar 0
AnchorPoint: "Diacritic_left" 15 20 basechar 0
LayerCount: 2
Fore
SplineSet
15 70 m 1
 72.5 7.5 l 1
 65 0 l 1
 7.5 62.5 l 1
 15 70 l 1
EndSplineSet
Ligature2: "FlipCores subtable" backslash quotesingle
LCarets2: 1 0
EndChar

StartChar: backslash
Encoding: 24 92 135
Width: 80
Flags: HW
AnchorPoint: "Diacritic_down" 40 -15 basechar 0
AnchorPoint: "Diacritic_up" 40 90 basechar 0
AnchorPoint: "Extension_down" 69 5 basechar 0
AnchorPoint: "Extension_up" 10 65 basechar 0
AnchorPoint: "Diacritic_right" 65 60 basechar 0
AnchorPoint: "Diacritic_left" 15 20 basechar 0
LayerCount: 2
Fore
SplineSet
15 70 m 1
 72.5 7.5 l 1
 65 0 l 1
 7.5 62.5 l 1
 15 70 l 1
EndSplineSet
EndChar

StartChar: colon
Encoding: 15 58 137
Width: 80
Flags: HW
AnchorPoint: "Diacritic_down" 40 -15 basechar 0
AnchorPoint: "Diacritic_up" 40 90 basechar 0
AnchorPoint: "Extension_up" 20 65 basechar 0
AnchorPoint: "Extension_down" 60 5 basechar 0
AnchorPoint: "Diacritic_left" 10 20 basechar 0
AnchorPoint: "Diacritic_right" 70 60 basechar 0
LayerCount: 2
Fore
SplineSet
48.75 30 m 1
 16.25 62.5 l 1
 23.75 70 l 1
 56.25 37.5 l 1
 48.75 30 l 1
31.25 40 m 1
 63.75 7.5 l 1
 56.25 0 l 1
 23.75 32.5 l 1
 31.25 40 l 1
EndSplineSet
EndChar

StartChar: parenleft
Encoding: 3 40 142
Width: 80
Flags: HW
AnchorPoint: "Diacritic_down" 40 -15 basechar 0
AnchorPoint: "Diacritic_up" 40 90 basechar 0
AnchorPoint: "Extension_up" 8 65 basechar 0
AnchorPoint: "Extension_down" 72 5 basechar 0
AnchorPoint: "Diacritic_left" 15 20 basechar 0
AnchorPoint: "Diacritic_right" 65 60 basechar 0
LayerCount: 2
Fore
SplineSet
33 26.900390625 m 2
 5 62.5 l 1
 12.5 70 l 1
 39.4501953125 35.7001953125 l 1
 47.2001953125 43.5 l 1
 75 7.5 l 1
 67.5 0 l 1
 40.4501953125 34.400390625 l 1
 33 26.900390625 l 2
EndSplineSet
Ligature2: "FlipCores subtable" parenright quotesingle
LCarets2: 1 0
EndChar

StartChar: parenright
Encoding: 4 41 143
Width: 80
Flags: HW
AnchorPoint: "Diacritic_down" 40 -15 basechar 0
AnchorPoint: "Diacritic_up" 40 90 basechar 0
AnchorPoint: "Extension_up" 16 65 basechar 0
AnchorPoint: "Extension_down" 65 5 basechar 0
AnchorPoint: "Diacritic_left" 15 20 basechar 0
AnchorPoint: "Diacritic_right" 65 60 basechar 0
LayerCount: 2
Fore
SplineSet
60 0 m 1
 31.900390625 28.099609375 l 1
 39.400390625 35.599609375 l 1
 12.5 62.5 l 1
 20 70 l 1
 48.0498046875 41.9501953125 l 1
 40.599609375 34.400390625 l 1
 67.5 7.5 l 1
 60 0 l 1
EndSplineSet
Ligature2: "FlipCores subtable" parenleft quotesingle
EndChar

StartChar: adieresis_i
Encoding: 156 -1 144
Width: 80
Flags: HW
AnchorPoint: "Diacritic_mkmk" 37 40 mark 0
LayerCount: 2
Fore
SplineSet
30 46 m 5
 37.5 53.5 l 5
 57.5 33.5 l 5
 47.5 23.5 l 5
 17.5 23.5 l 5
 27.5 33.5 l 5
 42.5 33.5 l 5
 30 46 l 5
EndSplineSet
Ligature2: "VowelLigature subtable" i adieresis
Ligature2: "VowelLigature subtable" adieresis i
EndChar

StartChar: ellipses.vert
Encoding: 85 8942 146
Width: 80
Flags: HW
AnchorPoint: "Tertiary_mkmk" 40 60 mark 0
LayerCount: 2
Fore
SplineSet
45 56 m 1
 35 46 l 1
 35 76 l 1
 45 86 l 1
 45 56 l 1
EndSplineSet
Ligature2: "TertiaryLigature subtable" ellipses.vert a idieresis a
EndChar

StartChar: equivalence
Encoding: 84 8801 153
Width: 80
Flags: HW
AnchorPoint: "Diacritic_down" 40 -15 basechar 0
AnchorPoint: "Diacritic_up" 40 90 basechar 0
AnchorPoint: "Tertiary_down" 40 0 basechar 0
AnchorPoint: "Tertiary_up" 40 60 basechar 0
LayerCount: 2
Fore
SplineSet
20 40 m 1
 70 40 l 1
 60 30 l 1
 10 30 l 1
 20 40 l 1
EndSplineSet
Ligature2: "TertiaryLigature subtable" equivalence a a
EndChar

StartChar: ithk_valence.CNG
Encoding: 159 -1 154
Width: 80
Flags: HW
AnchorPoint: "Diacritic_up" 40 90 basechar 0
AnchorPoint: "Diacritic_down" 40 -15 basechar 0
AnchorPoint: "Tertiary_up" 40 60 basechar 0
AnchorPoint: "Tertiary_down" 40 0 basechar 0
LayerCount: 2
Fore
SplineSet
60 30 m 1
 10 30 l 1
 20 40 l 1
 67.599609375 40 l 1
 75.150390625 47.5 l 1
 79.5166015625 34.2001953125 85.966796875 29.9501953125 94.5 34.75 c 1
 89.6005859375 29.216796875 84.4833984375 26.8505859375 79.150390625 27.650390625 c 0
 73.8271484375 28.4482421875 70.376953125 32.1650390625 68.7998046875 38.7998046875 c 1
 60 30 l 1
EndSplineSet
Ligature2: "TertiaryLigature subtable" equivalence a v
LCarets2: 2 0 0
EndChar

StartChar: ithk_valence.CPL
Encoding: 160 -1 155
Width: 80
Flags: HW
AnchorPoint: "Diacritic_up" 40 90 basechar 0
AnchorPoint: "Diacritic_down" 40 -15 basechar 0
AnchorPoint: "Tertiary_up" 40 60 basechar 0
AnchorPoint: "Tertiary_down" 40 0 basechar 0
LayerCount: 2
Fore
SplineSet
20 40 m 1
 70 40 l 1
 60 30 l 1
 12.400390625 30 l 1
 3.7001953125 21.2998046875 l 1
 2.5 22.5 l 1
 20 40 l 1
EndSplineSet
Ligature2: "TertiaryLigature subtable" equivalence s a
LCarets2: 1 0
EndChar

StartChar: ithk_valence.CRO
Encoding: 161 -1 156
Width: 80
Flags: HW
AnchorPoint: "Diacritic_up" 40 90 basechar 0
AnchorPoint: "Diacritic_down" 40 -15 basechar 0
AnchorPoint: "Tertiary_up" 40 60 basechar 0
AnchorPoint: "Tertiary_down" 40 0 basechar 0
LayerCount: 2
Fore
SplineSet
23 40 m 1
 70.599609375 40 l 1
 60.599609375 30 l 1
 10.599609375 30 l 1
 28.099609375 47.5 l 1
 29.2998046875 46.2998046875 l 1
 23 40 l 1
EndSplineSet
Ligature2: "TertiaryLigature subtable" equivalence z a
LCarets2: 1 0
EndChar

StartChar: ithk_valence.DEM
Encoding: 162 -1 157
Width: 80
Flags: HW
AnchorPoint: "Diacritic_up" 40 90 basechar 0
AnchorPoint: "Diacritic_down" 40 -15 basechar 0
AnchorPoint: "Tertiary_up" 40 60 basechar 0
AnchorPoint: "Tertiary_down" 40 0 basechar 0
LayerCount: 2
Fore
SplineSet
20 40 m 1
 67.599609375 40 l 1
 75.150390625 47.5 l 1
 81.5830078125 46.2998046875 84.81640625 42.9169921875 84.849609375 37.349609375 c 0
 84.9169921875 31.6162109375 81.3837890625 26.2333984375 74.25 21.2001953125 c 1
 77.31640625 26.2998046875 78.4833984375 30.2666015625 77.75 33.099609375 c 0
 76.9521484375 36.091796875 73.9853515625 38.0087890625 68.849609375 38.849609375 c 1
 66.599609375 36.650390625 l 2
 64.4033203125 34.4267578125 62.203125 32.2099609375 60 30 c 2
 10 30 l 1
 20 40 l 1
EndSplineSet
Ligature2: "TertiaryLigature subtable" equivalence a f
LCarets2: 1 0
EndChar

StartChar: ithk_valence.DUP
Encoding: 163 -1 158
Width: 80
Flags: HW
AnchorPoint: "Diacritic_up" 40 90 basechar 0
AnchorPoint: "Diacritic_down" 40 -15 basechar 0
AnchorPoint: "Tertiary_up" 40 60 basechar 0
AnchorPoint: "Tertiary_down" 40 0 basechar 0
LayerCount: 2
Fore
SplineSet
20 40 m 1
 67.599609375 40 l 1
 76.2998046875 48.7001953125 l 1
 77.5 47.5 l 1
 60 30 l 1
 10 30 l 1
 20 40 l 1
EndSplineSet
Ligature2: "TertiaryLigature subtable" equivalence a s
LCarets2: 1 0
EndChar

StartChar: ithk_valence.PRL
Encoding: 164 -1 159
Width: 80
Flags: HW
AnchorPoint: "Diacritic_up" 40 90 basechar 0
AnchorPoint: "Diacritic_down" 40 -15 basechar 0
AnchorPoint: "Tertiary_up" 40 60 basechar 0
AnchorPoint: "Tertiary_down" 40 0 basechar 0
LayerCount: 2
Fore
SplineSet
20 40 m 1
 70 40 l 1
 52.5 22.5 l 1
 51.2998046875 23.7001953125 l 1
 57.599609375 30 l 1
 10 30 l 1
 20 40 l 1
EndSplineSet
Ligature2: "TertiaryLigature subtable" equivalence a z
LCarets2: 1 0
EndChar

StartChar: ithk_valence.PTI
Encoding: 165 -1 160
Width: 80
Flags: HW
AnchorPoint: "Diacritic_up" 40 90 basechar 0
AnchorPoint: "Diacritic_down" 40 -15 basechar 0
AnchorPoint: "Tertiary_up" 40 60 basechar 0
AnchorPoint: "Tertiary_down" 40 0 basechar 0
LayerCount: 2
Fore
SplineSet
3 22.5 m 1
 20.5 40 l 1
 68.099609375 40 l 1
 75.650390625 47.5 l 1
 82.0830078125 46.2998046875 85.31640625 42.9169921875 85.349609375 37.349609375 c 0
 85.4169921875 31.6162109375 81.8837890625 26.2333984375 74.75 21.2001953125 c 1
 77.81640625 26.2998046875 78.9833984375 30.2666015625 78.25 33.099609375 c 0
 77.4521484375 36.091796875 74.4853515625 38.0087890625 69.349609375 38.849609375 c 1
 60.5 30 l 1
 12.900390625 30 l 1
 4.2001953125 21.2998046875 l 1
 3 22.5 l 1
EndSplineSet
Ligature2: "TertiaryLigature subtable" equivalence s f
LCarets2: 1 0
EndChar

StartChar: ithk_valence.RCP
Encoding: 166 -1 161
Width: 80
Flags: HW
AnchorPoint: "Diacritic_up" 40 90 basechar 0
AnchorPoint: "Diacritic_down" 40 -15 basechar 0
AnchorPoint: "Tertiary_up" 40 60 basechar 0
AnchorPoint: "Tertiary_down" 40 0 basechar 0
LayerCount: 2
Fore
SplineSet
23 40 m 1
 70.599609375 40 l 1
 53.099609375 22.5 l 1
 51.900390625 23.7001953125 l 1
 58.2001953125 30 l 1
 10.599609375 30 l 1
 28.099609375 47.5 l 1
 29.2998046875 46.2998046875 l 1
 23 40 l 1
EndSplineSet
Ligature2: "TertiaryLigature subtable" equivalence z z
LCarets2: 1 0
EndChar

StartChar: ithk_phase.FLC
Encoding: 167 -1 162
Width: 80
Flags: HW
AnchorPoint: "Tertiary_mkmk" 40 60 mark 0
LayerCount: 2
Fore
SplineSet
45 87.9501953125 m 1
 45 67.2001953125 l 1
 54.25 55.4501953125 l 1
 46.75 48 l 1
 35 62.9501953125 l 1
 35 77.9501953125 l 1
 45 87.9501953125 l 1
EndSplineSet
Ligature2: "TertiaryLigature subtable" ellipses.vert a idieresis p
LCarets2: 1 0
EndChar

StartChar: ithk_phase.FRE
Encoding: 168 -1 163
Width: 80
Flags: HW
AnchorPoint: "Tertiary_mkmk" 40 60 mark 0
LayerCount: 2
Fore
SplineSet
45 57.400390625 m 2
 51.2998046875 63.7001953125 l 1
 52.5 62.5 l 1
 35 45 l 1
 35 65.75 l 1
 25.75 77.5 l 1
 33.25 84.9501953125 l 1
 45 70 l 1
 45 57.400390625 l 2
EndSplineSet
Ligature2: "TertiaryLigature subtable" ellipses.vert p idieresis s
EndChar

StartChar: ithk_phase.FRG
Encoding: 169 -1 164
Width: 80
Flags: HW
AnchorPoint: "Tertiary_mkmk" 40 60 mark 0
LayerCount: 2
Fore
SplineSet
45 84.9501953125 m 1
 45 64.2001953125 l 1
 54.25 52.4501953125 l 1
 46.75 45 l 1
 35 59.9501953125 l 1
 35 72.5498046875 l 1
 28.7001953125 66.25 l 1
 27.5 67.4501953125 l 1
 45 84.9501953125 l 1
EndSplineSet
Ligature2: "TertiaryLigature subtable" ellipses.vert s idieresis p
EndChar

StartChar: ithk_phase.ITM
Encoding: 170 -1 165
Width: 80
Flags: HW
AnchorPoint: "Tertiary_mkmk" 40 60 mark 0
LayerCount: 2
Fore
SplineSet
28 67.5 m 1
 45.5 85 l 1
 45.5 57.400390625 l 1
 51.7998046875 63.7001953125 l 1
 53 62.5 l 1
 35.5 45 l 1
 35.5 72.599609375 l 1
 29.2001953125 66.2998046875 l 1
 28 67.5 l 1
EndSplineSet
Ligature2: "TertiaryLigature subtable" ellipses.vert s idieresis s
EndChar

StartChar: ithk_phase.ITR
Encoding: 171 -1 166
Width: 80
Flags: HW
AnchorPoint: "Tertiary_mkmk" 40 60 mark 0
LayerCount: 2
Fore
SplineSet
28 67.5 m 1
 45.5 85 l 1
 45.5 55 l 1
 35.5 45 l 1
 35.5 72.599609375 l 1
 29.2001953125 66.2998046875 l 1
 28 67.5 l 1
EndSplineSet
Ligature2: "TertiaryLigature subtable" ellipses.vert s idieresis a
EndChar

StartChar: ithk_phase.RCT
Encoding: 172 -1 167
Width: 80
Flags: HW
AnchorPoint: "Tertiary_mkmk" 40 60 mark 0
LayerCount: 2
Fore
SplineSet
35 75.5 m 1
 45 85.5 l 1
 45 55.5 l 1
 28.7001953125 39.2001953125 l 1
 27.5 40.400390625 l 1
 35 47.900390625 l 1
 35 75.5 l 1
EndSplineSet
Ligature2: "TertiaryLigature subtable" ellipses.vert a idieresis z
EndChar

StartChar: ithk_phase.REP
Encoding: 173 -1 168
Width: 80
Flags: HW
AnchorPoint: "Tertiary_mkmk" 40 60 mark 0
LayerCount: 2
Fore
SplineSet
52 62.5 m 1
 34.5 45 l 1
 34.5 75 l 1
 44.5 85 l 1
 44.5 57.400390625 l 1
 50.7998046875 63.7001953125 l 1
 52 62.5 l 1
EndSplineSet
Ligature2: "TertiaryLigature subtable" ellipses.vert a idieresis s
EndChar

StartChar: ithk_phase.VAC
Encoding: 174 -1 169
Width: 80
Flags: HW
AnchorPoint: "Tertiary_mkmk" 40 60 mark 0
LayerCount: 2
Fore
SplineSet
35 45 m 1
 35 65.75 l 1
 25.75 77.5 l 1
 33.25 84.9501953125 l 1
 45 70 l 1
 45 55 l 1
 35 45 l 1
EndSplineSet
LCarets2: 3 0 0 0
Ligature2: "TertiaryLigature subtable" ellipses.vert p idieresis a
EndChar

StartChar: ithk_effect.oneben
Encoding: 175 -1 170
Width: 80
Flags: HW
AnchorPoint: "Tertiary_mkmk" 40 60 mark 0
LayerCount: 2
Fore
SplineSet
30 80 m 1
 51.599609375 52.5 l 1
 44.150390625 45 l 1
 22.5 72.5 l 1
 30 80 l 1
EndSplineSet
Ligature2: "TertiaryLigature subtable" ellipses.vert a i a
EndChar

StartChar: ithk_effect.onedet
Encoding: 176 -1 171
Width: 80
Flags: HW
AnchorPoint: "Tertiary_mkmk" 40 60 mark 0
LayerCount: 2
Fore
SplineSet
30 80 m 1
 49.599609375 55 l 1
 64.150390625 55 l 1
 54.150390625 45 l 1
 44.150390625 45 l 1
 22.5 72.5 l 1
 30 80 l 1
EndSplineSet
LCarets2: 3 0 0 0
Ligature2: "TertiaryLigature subtable" ellipses.vert a i m
EndChar

StartChar: ithk_effect.twoben
Encoding: 177 -1 172
Width: 80
Flags: HW
AnchorPoint: "Tertiary_mkmk" 40 60 mark 0
LayerCount: 2
Fore
SplineSet
15 65 m 5
 30 80 l 5
 51.599609375 52.5 l 5
 44.150390625 45 l 5
 23.5498046875 71.150390625 l 5
 16.2001953125 63.7998046875 l 5
 15 65 l 5
EndSplineSet
LCarets2: 3 0 0 0
Ligature2: "TertiaryLigature subtable" ellipses.vert s i a
EndChar

StartChar: ithk_effect.twodet
Encoding: 178 -1 173
Width: 80
Flags: HW
AnchorPoint: "Tertiary_mkmk" 40 60 mark 0
LayerCount: 2
Fore
SplineSet
10 70 m 1
 20 80 l 1
 30 80 l 1
 51.599609375 52.5 l 1
 44.150390625 45 l 1
 24.4501953125 70 l 1
 10 70 l 1
EndSplineSet
Ligature2: "TertiaryLigature subtable" ellipses.vert m i a
EndChar

StartChar: ithk_effect.threeben
Encoding: 179 -1 174
Width: 80
Flags: HW
AnchorPoint: "Tertiary_mkmk" 40 60 mark 0
LayerCount: 2
Fore
SplineSet
50 53.849609375 m 1
 57.349609375 61.2001953125 l 1
 58.5498046875 60 l 1
 43.599609375 45 l 1
 21.9501953125 72.5 l 1
 29.4501953125 80 l 1
 50 53.849609375 l 1
EndSplineSet
LCarets2: 3 0 0 0
Ligature2: "TertiaryLigature subtable" ellipses.vert a i s
EndChar

StartChar: ithk_effect.threedet
Encoding: 180 -1 175
Width: 80
Flags: HW
AnchorPoint: "Tertiary_mkmk" 40 60 mark 0
LayerCount: 2
Fore
SplineSet
16 63.7998046875 m 1
 14.7998046875 65 l 1
 29.7998046875 80 l 1
 49.400390625 55 l 1
 63.9501953125 55 l 1
 53.9501953125 45 l 1
 43.9501953125 45 l 1
 23.349609375 71.150390625 l 1
 16 63.7998046875 l 1
EndSplineSet
Ligature2: "TertiaryLigature subtable" ellipses.vert s i m
EndChar

StartChar: ithk_effect.slfben
Encoding: 181 -1 176
Width: 80
Flags: HW
AnchorPoint: "Tertiary_mkmk" 40 60 mark 0
LayerCount: 2
Fore
SplineSet
16 63.7998046875 m 1
 14.7998046875 65 l 1
 29.7998046875 80 l 1
 50.349609375 53.849609375 l 1
 57.7001953125 61.2001953125 l 1
 58.900390625 60 l 1
 43.9501953125 45 l 1
 23.349609375 71.150390625 l 1
 16 63.7998046875 l 1
EndSplineSet
Ligature2: "TertiaryLigature subtable" ellipses.vert s i s
EndChar

StartChar: ithk_effect.slfdet
Encoding: 182 -1 177
Width: 80
Flags: HW
AnchorPoint: "Tertiary_mkmk" 40 60 mark 0
LayerCount: 2
Fore
SplineSet
30 80 m 1
 51.599609375 52.5 l 1
 36.650390625 37.5 l 1
 35.4501953125 38.7001953125 l 1
 42.9501953125 46.2001953125 l 2
 42.85546875 46.427734375 42.7724609375 46.6435546875 42.7001953125 46.849609375 c 2
 22.5 72.5 l 1
 30 80 l 1
EndSplineSet
LCarets2: 3 0 0 0
Ligature2: "TertiaryLigature subtable" ellipses.vert a i z
EndChar

StartChar: ithk_effect.unk
Encoding: 183 -1 178
Width: 80
Flags: HW
AnchorPoint: "Tertiary_mkmk" 40 60 mark 0
LayerCount: 2
Fore
SplineSet
31 78.150390625 m 2
 51.150390625 52.5 l 1
 43.7001953125 45 l 1
 22.0498046875 72.5 l 1
 37.0498046875 87.5 l 1
 38.25 86.2998046875 l 1
 30.75 78.7998046875 l 2
 30.8447265625 78.5703125 30.9287109375 78.353515625 31 78.150390625 c 2
EndSplineSet
LCarets2: 3 0 0 0
Ligature2: "TertiaryLigature subtable" ellipses.vert z i a
EndChar

StartChar: ddotbelow
Encoding: 78 7693 183
Width: 80
VWidth: -21
Flags: HW
AnchorPoint: "Diacritic_right" 55 35 basechar 0
AnchorPoint: "Diacritic_left" -5 35 basechar 0
AnchorPoint: "Extension_up" 65 65 basechar 0
AnchorPoint: "Extension_down" 45 5 basechar 0
AnchorPoint: "Diacritic_down" 40 -15 basechar 0
AnchorPoint: "Diacritic_up" 40 90 basechar 0
LayerCount: 2
Fore
SplineSet
70 69.9248046875 m 1
 60 59.9248046875 l 1
 20 59.9248046875 l 1
 20 32.3251953125 l 1
 26.2001953125 38.525390625 l 1
 47.849609375 7.724609375 l 1
 40.2001953125 0.0751953125 l 1
 19.5498046875 29.474609375 l 1
 10 19.9248046875 l 1
 10 59.9248046875 l 1
 20 69.9248046875 l 1
 70 69.9248046875 l 1
EndSplineSet
Substitution2: "Single Substitution lookup 19 subtable" ddotbelow.ext.up
Substitution2: "Single Substitution lookup 18 subtable" ddotbelow.ext.down
EndChar

StartChar: ithk_aspect.ATP
Encoding: 184 -1 184
Width: 80
Flags: HW
AnchorPoint: "Tertiary_mkmk" 40 60 mark 0
LayerCount: 2
Fore
SplineSet
26 65 m 1
 66 65 l 1
 47.2998046875 46.2998046875 l 1
 46.099609375 47.5 l 1
 53.599609375 55 l 1
 16 55 l 1
 15.7666015625 71.5 23.083984375 79.56640625 37.9501953125 79.2001953125 c 1
 39.150390625 78.099609375 l 1
 30.3173828125 76.2001953125 25.93359375 71.8330078125 26 65 c 1
EndSplineSet
Ligature2: "TertiaryLigature subtable" ellipses.vert f adieresis z
EndChar

StartChar: ithk_aspect.CCL
Encoding: 185 -1 185
Width: 80
Flags: HW
AnchorPoint: "Tertiary_mkmk" 40 60 mark 0
LayerCount: 2
Fore
SplineSet
56 55 m 1
 16 55 l 1
 26 65 l 1
 14.2001953125 76.7998046875 l 1
 21.2001953125 83.7998046875 l 1
 34.2001953125 70.900390625 l 1
 28.2998046875 65 l 1
 66 65 l 1
 56 55 l 1
EndSplineSet
Ligature2: "TertiaryLigature subtable" ellipses.vert g adieresis a
EndChar

StartChar: ithk_aspect.CLM
Encoding: 186 -1 186
Width: 80
Flags: HW
AnchorPoint: "Tertiary_mkmk" 40 60 mark 0
LayerCount: 2
Fore
SplineSet
26 65 m 1
 66 65 l 1
 56 55 l 1
 67.7998046875 43.2001953125 l 1
 60.7998046875 36.2001953125 l 1
 47.7998046875 49.099609375 l 1
 53.7001953125 55 l 1
 16 55 l 1
 26 65 l 1
EndSplineSet
Ligature2: "TertiaryLigature subtable" ellipses.vert a adieresis g
EndChar

StartChar: ithk_aspect.CNT
Encoding: 187 -1 187
Width: 80
Flags: HW
AnchorPoint: "Tertiary_mkmk" 40 60 mark 0
LayerCount: 2
Fore
SplineSet
16 55 m 1
 26 65 l 1
 63.599609375 65 l 1
 72.2998046875 73.7001953125 l 1
 73.5 72.5 l 1
 56 55 l 1
 36 55 l 1
 44.06640625 49.43359375 42.81640625 41.9501953125 32.25 32.5498046875 c 1
 31 33.7001953125 l 1
 37.2001953125 41.833984375 32.2001953125 48.93359375 16 55 c 1
EndSplineSet
Ligature2: "TertiaryLigature subtable" ellipses.vert ddotbelow adieresis s
EndChar

StartChar: ithk_aspect.CSS
Encoding: 188 -1 188
Width: 80
Flags: HW
AnchorPoint: "Tertiary_mkmk" 40 60 mark 0
LayerCount: 2
Fore
SplineSet
49 47.5498046875 m 1
 37.0771484375 37.0537109375 26.14453125 39.537109375 16.2001953125 55 c 1
 26.2001953125 65 l 1
 66.2001953125 65 l 1
 56.2001953125 55 l 1
 31.2001953125 55 l 1
 31.2333984375 49.8994140625 33.1337890625 46.783203125 36.900390625 45.650390625 c 0
 40.5 44.5830078125 44.1162109375 45.599609375 47.75 48.7001953125 c 1
 49 47.5498046875 l 1
EndSplineSet
Ligature2: "TertiaryLigature subtable" ellipses.vert tcedilla adieresis a
EndChar

StartChar: ithk_aspect.CUL
Encoding: 189 -1 189
Width: 80
Flags: HW
AnchorPoint: "Tertiary_mkmk" 40 60 mark 0
LayerCount: 2
Fore
SplineSet
28 65 m 1
 65.599609375 65 l 1
 55.599609375 55 l 1
 15.599609375 55 l 1
 25.599609375 65 l 1
 25.599609375 80.099609375 l 1
 35.599609375 90.099609375 l 1
 35.599609375 72.650390625 l 1
 27.9501953125 65 l 1
 28 65 l 1
EndSplineSet
LCarets2: 3 0 0 0
Ligature2: "TertiaryLigature subtable" ellipses.vert approxequal adieresis a
EndChar

StartChar: ithk_aspect.DCL
Encoding: 190 -1 190
Width: 80
Flags: HW
AnchorPoint: "Tertiary_mkmk" 40 60 mark 0
LayerCount: 2
Fore
SplineSet
56 55 m 1
 16 55 l 1
 26 65 l 1
 11 65 l 1
 21 75 l 1
 38.400390625 75 l 1
 28.4501953125 65 l 1
 66 65 l 1
 56 55 l 1
EndSplineSet
Ligature2: "TertiaryLigature subtable" ellipses.vert k adieresis a
EndChar

StartChar: ithk_aspect.DLT
Encoding: 191 -1 191
Width: 80
Flags: HW
AnchorPoint: "Tertiary_mkmk" 40 60 mark 0
LayerCount: 2
Fore
SplineSet
54 55 m 1
 16.400390625 55 l 1
 26.400390625 65 l 1
 66.400390625 65 l 1
 56.400390625 55 l 1
 56.400390625 39.900390625 l 1
 46.400390625 29.900390625 l 1
 46.400390625 47.349609375 l 1
 54.0498046875 55 l 1
 54 55 l 1
EndSplineSet
Ligature2: "TertiaryLigature subtable" ellipses.vert a adieresis approxequal
EndChar

StartChar: ithk_aspect.EPD
Encoding: 192 -1 192
Width: 80
Flags: HW
AnchorPoint: "Tertiary_mkmk" 40 60 mark 0
LayerCount: 2
Fore
SplineSet
26 65 m 1
 66 65 l 1
 56 55.0498046875 l 1
 67.8330078125 48.75 70.1162109375 41.666015625 62.849609375 33.7998046875 c 1
 64.283203125 41.966796875 59.1162109375 46.9169921875 47.349609375 48.650390625 c 1
 53.650390625 55 l 1
 16 55 l 1
 26 65 l 1
EndSplineSet
Ligature2: "TertiaryLigature subtable" ellipses.vert a adieresis rcaron
EndChar

StartChar: ithk_aspect.EXP
Encoding: 193 -1 193
Width: 80
Flags: HW
AnchorPoint: "Tertiary_mkmk" 40 60 mark 0
LayerCount: 2
Fore
SplineSet
16 55 m 1
 26 65 l 1
 66 65 l 1
 66.2333984375 48.5 58.916015625 40.43359375 44.0498046875 40.7998046875 c 1
 42.849609375 41.900390625 l 1
 51.6826171875 43.7998046875 56.06640625 48.1669921875 56 55 c 1
 31 55 l 1
 36 50 l 1
 28.5 42.5 l 1
 16 55 l 1
EndSplineSet
Ligature2: "TertiaryLigature subtable" ellipses.vert i adieresis f
EndChar

StartChar: ithk_aspect.HAB
Encoding: 194 -1 194
Width: 80
Flags: HW
AnchorPoint: "Tertiary_mkmk" 40 60 mark 0
LayerCount: 2
Fore
SplineSet
51 86.2998046875 m 1
 44.7958984375 78.1640625 49.7958984375 71.064453125 66 65 c 1
 56 55 l 1
 16 55 l 1
 26 65 l 1
 46 65 l 1
 37.9189453125 70.552734375 39.1689453125 78.0361328125 49.75 87.4501953125 c 1
 51 86.2998046875 l 1
EndSplineSet
Ligature2: "TertiaryLigature subtable" ellipses.vert a adieresis ddotbelow
EndChar

StartChar: ithk_aspect.ICS
Encoding: 195 -1 195
Width: 80
Flags: HW
AnchorPoint: "Tertiary_mkmk" 40 60 mark 0
LayerCount: 2
Fore
SplineSet
43 41.900390625 m 1
 51.8330078125 43.7998046875 56.216796875 48.1669921875 56.150390625 55 c 1
 16.150390625 55 l 1
 26.150390625 65 l 1
 66.150390625 65 l 1
 66.3837890625 48.5 59.06640625 40.43359375 44.2001953125 40.7998046875 c 1
 43 41.900390625 l 1
EndSplineSet
Ligature2: "TertiaryLigature subtable" ellipses.vert a adieresis f
EndChar

StartChar: ithk_aspect.IMD
Encoding: 196 -1 196
Width: 80
Flags: HW
AnchorPoint: "Tertiary_mkmk" 40 60 mark 0
LayerCount: 2
Fore
SplineSet
56 55 m 1
 18.400390625 55 l 1
 8.400390625 45 l 1
 8.400390625 67.4501953125 l 1
 18.400390625 77.349609375 l 1
 18.400390625 57.400390625 l 1
 26 65 l 1
 66 65 l 1
 56 55 l 1
EndSplineSet
Ligature2: "TertiaryLigature subtable" ellipses.vert scaron adieresis a
EndChar

StartChar: ithk_aspect.IMM
Encoding: 197 -1 197
Width: 80
Flags: HW
AnchorPoint: "Tertiary_mkmk" 40 60 mark 0
LayerCount: 2
Fore
SplineSet
33 72.4501953125 m 1
 44.93359375 82.9501953125 55.8671875 80.466796875 65.7998046875 65 c 1
 55.7998046875 55 l 1
 18.2001953125 55 l 1
 9.5 46.2998046875 l 1
 8.2998046875 47.5 l 1
 25.7998046875 65 l 1
 50.7998046875 65 l 1
 50.7666015625 70.1005859375 48.8662109375 73.216796875 45.099609375 74.349609375 c 0
 41.5 75.4169921875 37.8837890625 74.400390625 34.25 71.2998046875 c 1
 33 72.4501953125 l 1
EndSplineSet
Ligature2: "TertiaryLigature subtable" ellipses.vert s adieresis tcedilla
EndChar

StartChar: ithk_aspect.IRP
Encoding: 198 -1 198
Width: 80
Flags: HW
AnchorPoint: "Tertiary_mkmk" 40 60 mark 0
LayerCount: 2
Fore
SplineSet
56 55 m 1
 16 55 l 1
 34.7001953125 73.7001953125 l 1
 35.900390625 72.5 l 1
 28.400390625 65 l 1
 66 65 l 1
 66.2333984375 48.5 58.916015625 40.43359375 44.0498046875 40.7998046875 c 1
 42.849609375 41.900390625 l 1
 51.6826171875 43.7998046875 56.06640625 48.1669921875 56 55 c 1
EndSplineSet
Ligature2: "TertiaryLigature subtable" ellipses.vert z adieresis ddotbelow
EndChar

StartChar: ithk_aspect.ITC
Encoding: 199 -1 199
Width: 80
Flags: HW
AnchorPoint: "Tertiary_mkmk" 40 60 mark 0
LayerCount: 2
Fore
SplineSet
56 55 m 1
 16 55 l 1
 26 64.9501953125 l 1
 14.1669921875 71.25 11.8837890625 78.333984375 19.150390625 86.2001953125 c 1
 17.716796875 78.033203125 22.8837890625 73.0830078125 34.650390625 71.349609375 c 1
 28.349609375 65 l 1
 66 65 l 1
 56 55 l 1
EndSplineSet
Ligature2: "TertiaryLigature subtable" ellipses.vert rcaron adieresis a
EndChar

StartChar: ithk_aspect.LIM
Encoding: 200 -1 200
Width: 80
Flags: HW
AnchorPoint: "Tertiary_mkmk" 40 60 mark 0
LayerCount: 2
Fore
SplineSet
26 65 m 2
 63.599609375 65 l 1
 63.599609375 77.599609375 l 1
 73.599609375 87.599609375 l 1
 73.599609375 72.599609375 l 1
 56 55 l 1
 16 55 l 1
 26 65 l 2
EndSplineSet
Ligature2: "TertiaryLigature subtable" ellipses.vert a adieresis t
EndChar

StartChar: ithk_aspect.MTV
Encoding: 201 -1 201
Width: 80
Flags: HW
AnchorPoint: "Tertiary_mkmk" 40 60 mark 0
LayerCount: 2
Fore
SplineSet
28 65 m 1
 65.650390625 65 l 1
 55.650390625 55 l 1
 15.650390625 55 l 1
 25.650390625 65 l 1
 23.9169921875 72.2001953125 17.6328125 77.599609375 6.7998046875 81.2001953125 c 1
 21.400390625 81.43359375 30.56640625 78.1494140625 34.2998046875 71.349609375 c 1
 28 65 l 1
EndSplineSet
Ligature2: "TertiaryLigature subtable" ellipses.vert x adieresis a
EndChar

StartChar: ithk_aspect.PAU
Encoding: 202 -1 202
Width: 80
Flags: HW
AnchorPoint: "Tertiary_mkmk" 40 60 mark 0
LayerCount: 2
Fore
SplineSet
31 33.7001953125 m 1
 37.2041015625 41.8359375 32.2041015625 48.935546875 16 55 c 1
 26 65 l 1
 66 65 l 1
 56 55 l 1
 36 55 l 1
 44.0810546875 49.447265625 42.8310546875 41.9638671875 32.25 32.5498046875 c 1
 31 33.7001953125 l 1
EndSplineSet
Ligature2: "TertiaryLigature subtable" ellipses.vert ddotbelow adieresis a
EndChar

StartChar: ithk_aspect.PCL
Encoding: 203 -1 203
Width: 80
Flags: HW
AnchorPoint: "Tertiary_mkmk" 40 60 mark 0
LayerCount: 2
Fore
SplineSet
49 47.5498046875 m 1
 37.06640625 37.0498046875 26.1328125 39.533203125 16.2001953125 55 c 1
 26.2001953125 65 l 1
 63.7998046875 65 l 1
 72.5 73.7001953125 l 1
 73.7001953125 72.5 l 1
 56.2001953125 55 l 1
 31.2001953125 55 l 1
 31.2333984375 49.8994140625 33.1337890625 46.783203125 36.900390625 45.650390625 c 0
 40.5 44.5830078125 44.1162109375 45.599609375 47.75 48.7001953125 c 1
 49 47.5498046875 l 1
EndSplineSet
Ligature2: "TertiaryLigature subtable" ellipses.vert tcedilla adieresis s
EndChar

StartChar: ithk_aspect.PCS
Encoding: 204 -1 204
Width: 80
Flags: HW
AnchorPoint: "Tertiary_mkmk" 40 60 mark 0
LayerCount: 2
Fore
SplineSet
66 65 m 1
 56 55 l 1
 18.400390625 55 l 1
 9.7001953125 46.2998046875 l 1
 8.5 47.5 l 1
 26 65 l 1
 46 65 l 1
 37.93359375 70.56640625 39.18359375 78.0498046875 49.75 87.4501953125 c 1
 51 86.2998046875 l 1
 44.7998046875 78.166015625 49.7998046875 71.06640625 66 65 c 1
EndSplineSet
Ligature2: "TertiaryLigature subtable" ellipses.vert s adieresis ddotbelow
EndChar

StartChar: ithk_aspect.PMP
Encoding: 205 -1 205
Width: 80
Flags: HW
AnchorPoint: "Tertiary_mkmk" 40 60 mark 0
LayerCount: 2
Fore
SplineSet
26 65 m 1
 66 65 l 1
 56 55 l 1
 71 55 l 1
 61 45 l 1
 43.599609375 45 l 1
 53.5498046875 55 l 1
 16 55 l 1
 26 65 l 1
EndSplineSet
Ligature2: "TertiaryLigature subtable" ellipses.vert a adieresis k
EndChar

StartChar: ithk_aspect.PPR
Encoding: 206 -1 206
Width: 80
Flags: HW
AnchorPoint: "Tertiary_mkmk" 40 60 mark 0
LayerCount: 2
Fore
SplineSet
26 65 m 1
 66 65 l 1
 66 50 l 1
 56 40 l 1
 56 55 l 1
 16 55 l 1
 26 65 l 1
EndSplineSet
Ligature2: "TertiaryLigature subtable" ellipses.vert a adieresis equal
EndChar

StartChar: ithk_aspect.PRG
Encoding: 207 -1 207
Width: 80
Flags: HW
AnchorPoint: "Tertiary_mkmk" 40 60 mark 0
LayerCount: 2
Fore
SplineSet
46 85 m 2
 66 65 l 1
 56 55 l 1
 18.400390625 55 l 1
 9.7001953125 46.2998046875 l 1
 8.5 47.5 l 1
 26 65 l 1
 51 65 l 1
 38.5 77.5 l 1
 46 85 l 2
EndSplineSet
Ligature2: "TertiaryLigature subtable" ellipses.vert s adieresis i
EndChar

StartChar: ithk_aspect.PRS
Encoding: 208 -1 208
Width: 80
Flags: HW
AnchorPoint: "Tertiary_mkmk" 40 60 mark 0
LayerCount: 2
Fore
SplineSet
33 72.4501953125 m 1
 44.9228515625 82.9462890625 55.85546875 80.462890625 65.7998046875 65 c 1
 55.7998046875 55 l 1
 15.7998046875 55 l 1
 25.7998046875 65 l 1
 50.7998046875 65 l 1
 50.7666015625 70.1005859375 48.8662109375 73.216796875 45.099609375 74.349609375 c 0
 41.5 75.4169921875 37.8837890625 74.400390625 34.25 71.2998046875 c 1
 33 72.4501953125 l 1
EndSplineSet
Ligature2: "TertiaryLigature subtable" ellipses.vert a adieresis tcedilla
EndChar

StartChar: ithk_aspect.PTC
Encoding: 209 -1 209
Width: 80
Flags: HW
AnchorPoint: "Tertiary_mkmk" 40 60 mark 0
LayerCount: 2
Fore
SplineSet
54 55 m 1
 16.349609375 55 l 1
 26.349609375 65 l 1
 66.349609375 65 l 1
 56.349609375 55 l 1
 58.0830078125 47.7998046875 64.3671875 42.400390625 75.2001953125 38.7998046875 c 1
 60.599609375 38.56640625 51.43359375 41.8505859375 47.7001953125 48.650390625 c 1
 54 55 l 1
EndSplineSet
Ligature2: "TertiaryLigature subtable" ellipses.vert a adieresis x
EndChar

StartChar: ithk_aspect.REG
Encoding: 210 -1 210
Width: 80
Flags: HW
AnchorPoint: "Tertiary_mkmk" 40 60 mark 0
LayerCount: 2
Fore
SplineSet
39 78.099609375 m 1
 30.1669921875 76.2001953125 25.783203125 71.8330078125 25.849609375 65 c 1
 65.849609375 65 l 1
 55.849609375 55 l 1
 15.849609375 55 l 1
 15.6162109375 71.5 22.93359375 79.56640625 37.7998046875 79.2001953125 c 1
 39 78.099609375 l 1
EndSplineSet
Ligature2: "TertiaryLigature subtable" ellipses.vert f adieresis a
EndChar

StartChar: ithk_aspect.RGR
Encoding: 211 -1 211
Width: 80
Flags: HW
AnchorPoint: "Tertiary_mkmk" 40 60 mark 0
LayerCount: 2
Fore
SplineSet
36 35 m 2
 16 55 l 1
 26 65 l 1
 63.599609375 65 l 1
 72.2998046875 73.7001953125 l 1
 73.5 72.5 l 1
 56 55 l 1
 31 55 l 1
 43.5 42.5 l 1
 36 35 l 2
EndSplineSet
Ligature2: "TertiaryLigature subtable" ellipses.vert i adieresis s
EndChar

StartChar: ithk_aspect.RSM
Encoding: 212 -1 212
Width: 80
Flags: HW
AnchorPoint: "Tertiary_mkmk" 40 60 mark 0
LayerCount: 2
Fore
SplineSet
44 42.5 m 1
 36.5 35 l 1
 16.5 55 l 1
 26.5 65 l 1
 66.5 65 l 1
 56.5 55 l 1
 31.5 55 l 1
 44 42.5 l 1
EndSplineSet
Ligature2: "TertiaryLigature subtable" ellipses.vert i adieresis a
EndChar

StartChar: ithk_aspect.RTR
Encoding: 213 -1 213
Width: 80
Flags: HW
AnchorPoint: "Tertiary_mkmk" 40 60 mark 0
LayerCount: 2
Fore
SplineSet
38 77.5 m 1
 45.5 85 l 1
 65.5 65 l 1
 55.5 55 l 1
 15.5 55 l 1
 25.5 65 l 1
 50.5 65 l 1
 38 77.5 l 1
EndSplineSet
Ligature2: "TertiaryLigature subtable" ellipses.vert a adieresis i
EndChar

StartChar: ithk_aspect.SMM
Encoding: 214 -1 214
Width: 80
Flags: HW
AnchorPoint: "Tertiary_mkmk" 40 60 mark 0
LayerCount: 2
Fore
SplineSet
66 65 m 1
 56 55 l 1
 16 55 l 1
 15.7666015625 71.5 23.083984375 79.56640625 37.9501953125 79.2001953125 c 1
 39.150390625 78.099609375 l 1
 30.3173828125 76.2001953125 25.93359375 71.8330078125 26 65 c 1
 51 65 l 1
 46 70 l 1
 53.5 77.5 l 1
 66 65 l 1
EndSplineSet
Ligature2: "TertiaryLigature subtable" ellipses.vert f adieresis i
EndChar

StartChar: ithk_aspect.SQN
Encoding: 215 -1 215
Width: 80
Flags: HW
AnchorPoint: "Tertiary_mkmk" 40 60 mark 0
LayerCount: 2
Fore
SplineSet
56 55 m 1
 16 55 l 1
 16 70 l 1
 26 80 l 1
 26 65 l 1
 66 65 l 1
 56 55 l 1
EndSplineSet
Ligature2: "TertiaryLigature subtable" ellipses.vert equal adieresis a
EndChar

StartChar: ithk_aspect.TMP
Encoding: 216 -1 216
Width: 80
Flags: HW
AnchorPoint: "Tertiary_mkmk" 40 60 mark 0
LayerCount: 2
Fore
SplineSet
26 65 m 1
 63.599609375 65 l 1
 73.599609375 75 l 1
 73.599609375 52.5498046875 l 1
 63.599609375 42.650390625 l 1
 63.599609375 62.599609375 l 1
 56 55 l 1
 16 55 l 1
 26 65 l 1
EndSplineSet
Ligature2: "TertiaryLigature subtable" ellipses.vert a adieresis scaron
EndChar

StartChar: ithk_aspect.TNS
Encoding: 217 -1 217
Width: 80
Flags: HW
AnchorPoint: "Tertiary_mkmk" 40 60 mark 0
LayerCount: 2
Fore
SplineSet
56 55 m 2
 18.400390625 55 l 1
 18.400390625 42.400390625 l 1
 8.400390625 32.400390625 l 1
 8.400390625 47.400390625 l 1
 26 65 l 1
 66 65 l 1
 56 55 l 2
EndSplineSet
Ligature2: "TertiaryLigature subtable" ellipses.vert t adieresis a
EndChar

StartChar: ithk_aspect.TRD
Encoding: 218 -1 218
Width: 80
Flags: HW
AnchorPoint: "Tertiary_mkmk" 40 60 mark 0
LayerCount: 2
Fore
SplineSet
6 68.2998046875 m 2
 17.849609375 56.5498046875 l 1
 26.7001953125 65.400390625 l 1
 66.7001953125 65.400390625 l 1
 56.7001953125 55.400390625 l 1
 19 55.400390625 l 1
 11.9501953125 48.349609375 l 1
 -1 61.2998046875 l 1
 6 68.2998046875 l 2
EndSplineSet
Ligature2: "TertiaryLigature subtable" ellipses.vert p adieresis a
EndChar

StartChar: ithk_aspect.XPD
Encoding: 219 -1 219
Width: 80
Flags: HW
AnchorPoint: "Tertiary_mkmk" 40 60 mark 0
LayerCount: 2
Fore
SplineSet
77 52.7001953125 m 2
 65.150390625 64.4501953125 l 1
 56.2998046875 55.599609375 l 1
 16.2998046875 55.599609375 l 1
 26.2998046875 65.599609375 l 1
 64 65.599609375 l 1
 71.0498046875 72.650390625 l 1
 84 59.7001953125 l 1
 77 52.7001953125 l 2
EndSplineSet
Ligature2: "TertiaryLigature subtable" ellipses.vert a adieresis p
LCarets2: 2 0 0
EndChar

StartChar: .notdef
Encoding: 220 -1 220
Width: 80
Flags: HW
AnchorPoint: "Extension_down" 60 5 basechar 0
AnchorPoint: "Extension_up" 20 65 basechar 0
AnchorPoint: "Diacritic_up" 40 90 basechar 0
AnchorPoint: "Diacritic_down" 40 -15 basechar 0
AnchorPoint: "Diacritic_right" 75 35 basechar 0
AnchorPoint: "Diacritic_left" 5 35 basechar 0
LayerCount: 2
Fore
SplineSet
55 0 m 1
 55 60 l 1
 15 60 l 1
 25 70 l 1
 65 70 l 1
 65 10 l 1
 55 0 l 1
25 70 m 1
 25 10 l 1
 65 10 l 1
 55 0 l 1
 15 0 l 1
 15 60 l 1
 25 70 l 1
EndSplineSet
EndChar

StartChar: glottal.ext.up
Encoding: 222 -1 222
Width: 80
Flags: HW
AnchorPoint: "Extension_mkmk" 35 65 mark 0
LayerCount: 2
Fore
SplineSet
23.4501953125 71.150390625 m 1
 29.466796875 68.435546875 31.8671875 64.9189453125 30.650390625 60.599609375 c 1
 40 70 l 1
 40 60 l 1
 36.6669921875 60.6337890625 33.3330078125 56.900390625 30 48.7998046875 c 1
 30 57.599609375 l 1
 23.7001953125 51.2998046875 l 1
 22.5 52.5 l 1
 23.25 53.25 l 2
 29.169921875 59.556640625 26.736328125 63.0234375 15.9501953125 63.650390625 c 1
 23.4501953125 71.150390625 l 1
EndSplineSet
Substitution2: "Single Substitution lookup 29 subtable" glottal.ext.left
Substitution2: "Single Substitution lookup 28 subtable" glottal.ext.right
Substitution2: "Single Substitution lookup 27 subtable" glottal.ext.diagup
Substitution2: "Single Substitution lookup 23 subtable" glottal.ext.left
Substitution2: "Single Substitution lookup 22 subtable" glottal.ext.right
Substitution2: "Single Substitution lookup 21 subtable" glottal.ext.diagup
EndChar

StartChar: ncaron.ext.up
Encoding: 223 -1 223
Width: 80
Flags: HW
AnchorPoint: "Extension_mkmk" 35 65 mark 0
LayerCount: 2
Fore
SplineSet
40 55 m 1
 35.8994140625 56.8330078125 32.56640625 55.1669921875 30 50 c 1
 30 60 l 1
 17.400390625 60 l 1
 8.7001953125 51.2998046875 l 1
 7.5 52.5 l 1
 25 70 l 1
 40 70 l 1
 40 55 l 1
EndSplineSet
Substitution2: "Single Substitution lookup 29 subtable" ncaron.ext.left
Substitution2: "Single Substitution lookup 28 subtable" ncaron.ext.right
Substitution2: "Single Substitution lookup 27 subtable" ncaron.ext.diagup
Substitution2: "Single Substitution lookup 23 subtable" ncaron.ext.left
Substitution2: "Single Substitution lookup 22 subtable" ncaron.ext.right
Substitution2: "Single Substitution lookup 21 subtable" ncaron.ext.diagup
EndChar

StartChar: scaron.ext.up
Encoding: 224 -1 224
Width: 80
Flags: HW
AnchorPoint: "Extension_mkmk" 35 65 mark 0
LayerCount: 2
Fore
SplineSet
40 55 m 1
 36.6669921875 57.3994140625 33.3330078125 56.56640625 30 52.5 c 1
 30 57.650390625 l 1
 20 47.7001953125 l 1
 20 70.099609375 l 1
 30 80 l 1
 30 60 l 1
 40 70 l 1
 40 55 l 1
EndSplineSet
Substitution2: "Single Substitution lookup 29 subtable" scaron.ext.left
Substitution2: "Single Substitution lookup 28 subtable" scaron.ext.right
Substitution2: "Single Substitution lookup 27 subtable" scaron.ext.diagup
Substitution2: "Single Substitution lookup 23 subtable" scaron.ext.left
Substitution2: "Single Substitution lookup 22 subtable" scaron.ext.right
Substitution2: "Single Substitution lookup 21 subtable" scaron.ext.diagup
EndChar

StartChar: ddotbelow.ext.up
Encoding: 225 -1 225
Width: 80
Flags: HW
AnchorPoint: "Extension_mkmk" 35 65 mark 0
LayerCount: 2
Fore
SplineSet
61 69.25 m 1
 55.5244140625 64.146484375 48.5244140625 63.6298828125 40 67.7001953125 c 1
 40 54.349609375 l 1
 36.533203125 57.4833984375 33.2001953125 55.8828125 30 49.5498046875 c 1
 30 60 l 1
 46.349609375 76.349609375 l 1
 49.04296875 71.1435546875 53.9267578125 68.77734375 61 69.25 c 1
EndSplineSet
Substitution2: "Single Substitution lookup 29 subtable" ddotbelow.ext.left
Substitution2: "Single Substitution lookup 28 subtable" ddotbelow.ext.right
Substitution2: "Single Substitution lookup 27 subtable" ddotbelow.ext.diagup
Substitution2: "Single Substitution lookup 23 subtable" ddotbelow.ext.left
Substitution2: "Single Substitution lookup 22 subtable" ddotbelow.ext.right
Substitution2: "Single Substitution lookup 21 subtable" ddotbelow.ext.diagup
EndChar

StartChar: tcedilla.ext.up
Encoding: 226 -1 226
Width: 80
Flags: HW
AnchorPoint: "Extension_mkmk" 35 65 mark 0
LayerCount: 2
Fore
SplineSet
40 67.7001953125 m 1
 40 54.349609375 l 1
 36.533203125 57.4833984375 33.2001953125 55.8828125 30 49.5498046875 c 1
 30 60 l 1
 46.349609375 76.349609375 l 1
 53.9169921875 74.1826171875 58.0166015625 70 58.650390625 63.7998046875 c 0
 58.716796875 63.2666015625 58.75 62.7001953125 58.75 62.099609375 c 0
 58.75 61.7001953125 58.7333984375 61.2998046875 58.7001953125 60.900390625 c 1
 56.43359375 65.3662109375 50.2001953125 67.6328125 40 67.7001953125 c 1
EndSplineSet
Substitution2: "Single Substitution lookup 29 subtable" tcedilla.ext.left
Substitution2: "Single Substitution lookup 28 subtable" tcedilla.ext.right
Substitution2: "Single Substitution lookup 27 subtable" tcedilla.ext.diagup
Substitution2: "Single Substitution lookup 23 subtable" tcedilla.ext.left
Substitution2: "Single Substitution lookup 22 subtable" tcedilla.ext.right
Substitution2: "Single Substitution lookup 21 subtable" tcedilla.ext.diagup
EndChar

StartChar: ccedilla.ext.up
Encoding: 227 -1 227
Width: 80
Flags: HW
AnchorPoint: "Extension_mkmk" 35 65 mark 0
LayerCount: 2
Fore
SplineSet
66.2998046875 70.400390625 m 1
 51.7998046875 55.900390625 l 1
 40 67.599609375 l 1
 40 60 l 1
 37.5 62.6669921875 34.1669921875 61 30 55 c 1
 30 60 l 1
 45.849609375 75.849609375 l 1
 57.599609375 64.099609375 l 1
 65.099609375 71.599609375 l 1
 66.2998046875 70.400390625 l 1
EndSplineSet
Substitution2: "Single Substitution lookup 29 subtable" ccedilla.ext.left
Substitution2: "Single Substitution lookup 28 subtable" ccedilla.ext.right
Substitution2: "Single Substitution lookup 27 subtable" ccedilla.ext.diagup
Substitution2: "Single Substitution lookup 23 subtable" ccedilla.ext.left
Substitution2: "Single Substitution lookup 22 subtable" ccedilla.ext.right
Substitution2: "Single Substitution lookup 21 subtable" ccedilla.ext.diagup
EndChar

StartChar: ccaron.ext.up
Encoding: 228 -1 228
Width: 80
Flags: HW
AnchorPoint: "Extension_mkmk" 35 65 mark 0
LayerCount: 2
Fore
SplineSet
40 70 m 1
 39.900390625 69.900390625 l 1
 20 69.900390625 l 1
 30 80 l 1
 30.099609375 80 l 1
 38.7001953125 88.599609375 l 1
 39.900390625 87.400390625 l 1
 32.5 80 l 1
 52.400390625 80 l 1
 40 67.5498046875 l 1
 40 60 l 1
 36.6669921875 60.5 33.3330078125 58.8330078125 30 55 c 1
 30 60 l 1
 39.9501953125 69.900390625 l 1
 40 69.900390625 l 1
 40 70 l 1
EndSplineSet
Substitution2: "Single Substitution lookup 29 subtable" ccaron.ext.left
Substitution2: "Single Substitution lookup 28 subtable" ccaron.ext.right
Substitution2: "Single Substitution lookup 27 subtable" ccaron.ext.diagup
Substitution2: "Single Substitution lookup 23 subtable" ccaron.ext.left
Substitution2: "Single Substitution lookup 22 subtable" ccaron.ext.right
Substitution2: "Single Substitution lookup 21 subtable" ccaron.ext.diagup
EndChar

StartChar: lcedilla.ext.up
Encoding: 229 -1 229
Width: 80
Flags: HW
AnchorPoint: "Extension_mkmk" 35 65 mark 0
LayerCount: 2
Fore
SplineSet
40 70 m 1
 60 70 l 1
 50 60 l 1
 40 60 l 1
 40 55 l 1
 35.666015625 56.8349609375 32.3330078125 55.1689453125 30 50 c 1
 30 60 l 1
 40 70 l 1
EndSplineSet
Substitution2: "Single Substitution lookup 29 subtable" lcedilla.ext.left
Substitution2: "Single Substitution lookup 28 subtable" lcedilla.ext.right
Substitution2: "Single Substitution lookup 27 subtable" lcedilla.ext.diagup
Substitution2: "Single Substitution lookup 23 subtable" lcedilla.ext.left
Substitution2: "Single Substitution lookup 22 subtable" lcedilla.ext.right
Substitution2: "Single Substitution lookup 21 subtable" lcedilla.ext.diagup
EndChar

StartChar: zdotaccent.ext.up
Encoding: 230 -1 230
Width: 80
Flags: HW
AnchorPoint: "Extension_mkmk" 35 65 mark 0
LayerCount: 2
Fore
SplineSet
-2.5 42.5 m 1
 15 60 l 1
 30.0498046875 60 l 1
 40 70 l 1
 40 56.5498046875 l 1
 36.3994140625 58.0830078125 33.06640625 56.75 30 52.5498046875 c 1
 30.0498046875 57.599609375 l 1
 22.4501953125 50 l 1
 7.400390625 50 l 1
 -1.2998046875 41.2998046875 l 1
 -2.5 42.5 l 1
EndSplineSet
Substitution2: "Single Substitution lookup 29 subtable" zdotaccent.ext.left
Substitution2: "Single Substitution lookup 28 subtable" zdotaccent.ext.right
Substitution2: "Single Substitution lookup 27 subtable" zdotaccent.ext.diagup
Substitution2: "Single Substitution lookup 23 subtable" zdotaccent.ext.left
Substitution2: "Single Substitution lookup 22 subtable" zdotaccent.ext.right
Substitution2: "Single Substitution lookup 21 subtable" zdotaccent.ext.diagup
EndChar

StartChar: zcaron.ext.up
Encoding: 231 -1 231
Width: 80
Flags: HW
AnchorPoint: "Extension_mkmk" 35 65 mark 0
LayerCount: 2
Fore
SplineSet
30 80 m 1
 30 60 l 1
 40 70 l 1
 40 55 l 1
 36.6669921875 57.3994140625 33.3330078125 56.56640625 30 52.5 c 1
 30 57.650390625 l 1
 20 47.650390625 l 1
 20 67.599609375 l 1
 13.7001953125 61.2998046875 l 1
 12.5 62.5 l 1
 20 70 l 1
 20 70.099609375 l 1
 30 80 l 1
EndSplineSet
Substitution2: "Single Substitution lookup 29 subtable" zcaron.ext.left
Substitution2: "Single Substitution lookup 28 subtable" zcaron.ext.right
Substitution2: "Single Substitution lookup 27 subtable" zcaron.ext.diagup
Substitution2: "Single Substitution lookup 23 subtable" zcaron.ext.left
Substitution2: "Single Substitution lookup 22 subtable" zcaron.ext.right
Substitution2: "Single Substitution lookup 21 subtable" zcaron.ext.diagup
EndChar

StartChar: rcaron.ext.up
Encoding: 232 -1 232
Width: 80
Flags: HW
AnchorPoint: "Extension_mkmk" 35 65 mark 0
LayerCount: 2
Fore
SplineSet
40 67.599609375 m 1
 40 56.5 l 1
 36.5 58.533203125 33.1669921875 58.033203125 30 55 c 1
 30 60 l 1
 38.849609375 68.7998046875 l 1
 29.349609375 69.099609375 23.06640625 75.3662109375 20 87.599609375 c 1
 27.1337890625 78.9326171875 36.2998046875 74.783203125 47.5 75.150390625 c 1
 40 67.599609375 l 1
EndSplineSet
Substitution2: "Single Substitution lookup 29 subtable" rcaron.ext.left
Substitution2: "Single Substitution lookup 28 subtable" rcaron.ext.right
Substitution2: "Single Substitution lookup 27 subtable" rcaron.ext.diagup
Substitution2: "Single Substitution lookup 23 subtable" rcaron.ext.left
Substitution2: "Single Substitution lookup 22 subtable" rcaron.ext.right
Substitution2: "Single Substitution lookup 21 subtable" rcaron.ext.diagup
EndChar

StartChar: b.ext.up
Encoding: 233 -1 233
Width: 80
Flags: HW
AnchorPoint: "Extension_mkmk" 35 65 mark 0
LayerCount: 2
Fore
SplineSet
30 60 m 1
 30.0498046875 60 l 1
 40 70 l 1
 40 56.5498046875 l 1
 36.3994140625 58.0830078125 33.06640625 56.75 30 52.5498046875 c 1
 30.0498046875 57.599609375 l 1
 22.4501953125 50 l 1
 5 50 l 1
 15 60 l 1
 30 60 l 1
EndSplineSet
EndChar

StartChar: c.ext.up
Encoding: 234 -1 234
Width: 80
Flags: HW
AnchorPoint: "Extension_mkmk" 35 65 mark 0
LayerCount: 2
Fore
SplineSet
30.0498046875 57.599609375 m 1
 22.4501953125 50 l 1
 5 50 l 1
 23.7001953125 68.7001953125 l 1
 24.900390625 67.5 l 1
 17.400390625 60 l 1
 30.0498046875 60 l 1
 40 70 l 1
 40 56.5498046875 l 1
 36.3994140625 58.0830078125 33.06640625 56.75 30 52.5498046875 c 1
 30.0498046875 57.599609375 l 1
EndSplineSet
EndChar

StartChar: equal.ext.up
Encoding: 235 -1 235
Width: 80
Flags: HW
AnchorPoint: "Extension_mkmk" 35 65 mark 0
LayerCount: 2
Fore
SplineSet
40 70 m 1
 40 55 l 1
 35.8994140625 56.8330078125 32.56640625 55.1669921875 30 50 c 1
 30 60 l 1
 15 60 l 1
 15 75 l 1
 25 85 l 1
 25 70 l 1
 40 70 l 1
EndSplineSet
Substitution2: "Single Substitution lookup 29 subtable" equal.ext.left
Substitution2: "Single Substitution lookup 28 subtable" equal.ext.right
Substitution2: "Single Substitution lookup 27 subtable" equal.ext.diagup
Substitution2: "Single Substitution lookup 23 subtable" equal.ext.left
Substitution2: "Single Substitution lookup 22 subtable" equal.ext.right
Substitution2: "Single Substitution lookup 21 subtable" equal.ext.diagup
EndChar

StartChar: d.ext.up
Encoding: 236 -1 236
Width: 80
Flags: HW
AnchorPoint: "Extension_mkmk" 35 65 mark 0
LayerCount: 2
Fore
SplineSet
40.0498046875 67.7001953125 m 1
 40 67.7001953125 l 1
 40 55.4501953125 l 1
 36.93359375 56.5166015625 33.6005859375 55.599609375 30 52.7001953125 c 1
 30 60 l 1
 47.650390625 77.7001953125 l 1
 65.0498046875 77.7001953125 l 1
 55.0498046875 67.7001953125 l 1
 40.0498046875 67.7001953125 l 1
EndSplineSet
Substitution2: "Single Substitution lookup 29 subtable" d.ext.left
Substitution2: "Single Substitution lookup 28 subtable" d.ext.right
Substitution2: "Single Substitution lookup 27 subtable" d.ext.diagup
Substitution2: "Single Substitution lookup 23 subtable" d.ext.left
Substitution2: "Single Substitution lookup 22 subtable" d.ext.right
Substitution2: "Single Substitution lookup 21 subtable" d.ext.diagup
EndChar

StartChar: D.ext.up
Encoding: 237 -1 237
Width: 80
Flags: HW
AnchorPoint: "Extension_mkmk" 35 65 mark 0
LayerCount: 2
Fore
SplineSet
40.0498046875 67.7001953125 m 1
 40 67.7001953125 l 1
 40 55.4501953125 l 1
 36.93359375 56.5166015625 33.6005859375 55.599609375 30 52.7001953125 c 1
 30 60 l 1
 47.650390625 77.7001953125 l 1
 69.9501953125 77.7001953125 l 1
 59.9501953125 67.7001953125 l 1
 52.4501953125 60.2001953125 l 1
 51.25 61.400390625 l 1
 57.5498046875 67.7001953125 l 1
 40.0498046875 67.7001953125 l 1
EndSplineSet
Substitution2: "Single Substitution lookup 29 subtable" D.ext.left
Substitution2: "Single Substitution lookup 28 subtable" D.ext.right
Substitution2: "Single Substitution lookup 27 subtable" D.ext.diagup
Substitution2: "Single Substitution lookup 23 subtable" D.ext.left
Substitution2: "Single Substitution lookup 22 subtable" D.ext.right
Substitution2: "Single Substitution lookup 21 subtable" D.ext.diagup
EndChar

StartChar: glottal.flip.ext.up
Encoding: 238 -1 238
Width: 80
Flags: HW
AnchorPoint: "Extension_mkmk" 35 65 mark 0
LayerCount: 2
Fore
SplineSet
45.25 75.25 m 0
 45.3505859375 75.3505859375 45.43359375 75.4501953125 45.5 75.5498046875 c 0
 45.7666015625 75.783203125 46.0166015625 76.0166015625 46.25 76.25 c 1
 47.4501953125 75.0498046875 l 1
 40 67.599609375 l 1
 40 58.4501953125 l 1
 36.6669921875 59.4140625 33.3330078125 58.2646484375 30 55 c 1
 30 60 l 1
 36.4501953125 66.5 l 1
 31.283203125 62.1669921875 25.783203125 62.5166015625 19.9501953125 67.5498046875 c 1
 27.4501953125 75.099609375 l 1
 32.5166015625 68.7333984375 38.4501953125 68.783203125 45.25 75.25 c 0
EndSplineSet
Substitution2: "Single Substitution lookup 29 subtable" glottal.flip.ext.left
Substitution2: "Single Substitution lookup 28 subtable" glottal.flip.ext.right
Substitution2: "Single Substitution lookup 27 subtable" glottal.flip.ext.diagup
Substitution2: "Single Substitution lookup 23 subtable" glottal.flip.ext.left
Substitution2: "Single Substitution lookup 22 subtable" glottal.flip.ext.right
Substitution2: "Single Substitution lookup 21 subtable" glottal.flip.ext.diagup
EndChar

StartChar: approxequal.ext.up
Encoding: 239 -1 239
Width: 80
Flags: HW
AnchorPoint: "Extension_mkmk" 35 65 mark 0
LayerCount: 2
Fore
SplineSet
50 95 m 1
 50 77.650390625 l 1
 40 67.650390625 l 1
 40 55 l 1
 36.6669921875 57.3994140625 33.3330078125 56.56640625 30 52.5 c 1
 30 60 l 1
 40 70 l 1
 40 85 l 1
 50 95 l 1
EndSplineSet
Substitution2: "Single Substitution lookup 29 subtable" approxequal.ext.left
Substitution2: "Single Substitution lookup 28 subtable" approxequal.ext.right
Substitution2: "Single Substitution lookup 27 subtable" approxequal.ext.diagup
Substitution2: "Single Substitution lookup 23 subtable" approxequal.ext.left
Substitution2: "Single Substitution lookup 22 subtable" approxequal.ext.right
Substitution2: "Single Substitution lookup 21 subtable" approxequal.ext.diagup
EndChar

StartChar: f.ext.up
Encoding: 240 -1 240
Width: 80
Flags: HW
AnchorPoint: "Extension_mkmk" 35 65 mark 0
LayerCount: 2
Fore
SplineSet
40 54.349609375 m 1
 36.533203125 57.4833984375 33.2001953125 55.8828125 30 49.5498046875 c 1
 30 57.650390625 l 1
 23.650390625 51.2998046875 l 1
 16.8505859375 55.033203125 13.56640625 64.2001953125 13.7998046875 78.7998046875 c 1
 17.400390625 67.966796875 22.7998046875 61.68359375 30 59.9501953125 c 1
 40 70 l 1
 40 54.349609375 l 1
EndSplineSet
Substitution2: "Single Substitution lookup 29 subtable" f.ext.left
Substitution2: "Single Substitution lookup 28 subtable" f.ext.right
Substitution2: "Single Substitution lookup 27 subtable" f.ext.diagup
Substitution2: "Single Substitution lookup 23 subtable" f.ext.left
Substitution2: "Single Substitution lookup 22 subtable" f.ext.right
Substitution2: "Single Substitution lookup 21 subtable" f.ext.diagup
EndChar

StartChar: g.ext.up
Encoding: 241 -1 241
Width: 80
Flags: HW
AnchorPoint: "Extension_mkmk" 35 65 mark 0
LayerCount: 2
Fore
SplineSet
28.2001953125 81.7998046875 m 1
 35.2001953125 88.7998046875 l 1
 48.2001953125 75.900390625 l 1
 40 67.7001953125 l 1
 40 60 l 1
 36.7919921875 61.9755859375 33.458984375 60.3095703125 30 55 c 1
 30 60 l 1
 40 70 l 1
 28.2001953125 81.7998046875 l 1
EndSplineSet
Substitution2: "Single Substitution lookup 29 subtable" g.ext.left
Substitution2: "Single Substitution lookup 28 subtable" g.ext.right
Substitution2: "Single Substitution lookup 27 subtable" g.ext.diagup
Substitution2: "Single Substitution lookup 23 subtable" g.ext.left
Substitution2: "Single Substitution lookup 22 subtable" g.ext.right
Substitution2: "Single Substitution lookup 21 subtable" g.ext.diagup
EndChar

StartChar: G.ext.up
Encoding: 242 -1 242
Width: 80
Flags: HW
AnchorPoint: "Extension_mkmk" 35 65 mark 0
LayerCount: 2
Fore
SplineSet
28.2001953125 81.7998046875 m 1
 42.7001953125 96.2998046875 l 1
 43.900390625 95.099609375 l 1
 36.400390625 87.599609375 l 1
 48.2001953125 75.900390625 l 1
 40 67.7001953125 l 1
 40 60 l 1
 36.7919921875 61.9755859375 33.458984375 60.3095703125 30 55 c 1
 30 60 l 1
 40 70 l 1
 28.2001953125 81.7998046875 l 1
EndSplineSet
Substitution2: "Single Substitution lookup 29 subtable" G.ext.left
Substitution2: "Single Substitution lookup 28 subtable" G.ext.right
Substitution2: "Single Substitution lookup 27 subtable" G.ext.diagup
Substitution2: "Single Substitution lookup 23 subtable" G.ext.left
Substitution2: "Single Substitution lookup 22 subtable" G.ext.right
Substitution2: "Single Substitution lookup 21 subtable" G.ext.diagup
EndChar

StartChar: h.ext.up
Encoding: 243 -1 243
Width: 80
Flags: HW
AnchorPoint: "Extension_mkmk" 35 65 mark 0
LayerCount: 2
Fore
SplineSet
30 60 m 1
 47.650390625 77.7001953125 l 1
 62.650390625 77.7001953125 l 1
 71.349609375 86.400390625 l 1
 72.5498046875 85.2001953125 l 1
 55.0498046875 67.7001953125 l 1
 40 67.7001953125 l 1
 40 55.75 l 1
 36.3642578125 57.6416015625 33.0302734375 56.625 30 52.7001953125 c 1
 30 60 l 1
EndSplineSet
Substitution2: "Single Substitution lookup 29 subtable" h.ext.left
Substitution2: "Single Substitution lookup 28 subtable" h.ext.right
Substitution2: "Single Substitution lookup 27 subtable" h.ext.diagup
Substitution2: "Single Substitution lookup 23 subtable" h.ext.left
Substitution2: "Single Substitution lookup 22 subtable" h.ext.right
Substitution2: "Single Substitution lookup 21 subtable" h.ext.diagup
EndChar

StartChar: j.ext.up
Encoding: 244 -1 244
Width: 80
Flags: HW
AnchorPoint: "Extension_mkmk" 35 65 mark 0
LayerCount: 2
Fore
SplineSet
40 70 m 1
 39.900390625 69.900390625 l 1
 22.2998046875 69.900390625 l 1
 13.7001953125 61.2998046875 l 1
 12.5 62.5 l 1
 30 80 l 1
 52.400390625 80 l 1
 40 67.5498046875 l 1
 40 60 l 1
 36.6669921875 60.5 33.3330078125 58.8330078125 30 55 c 1
 30 60 l 1
 39.9501953125 69.900390625 l 1
 40 69.900390625 l 1
 40 70 l 1
EndSplineSet
Substitution2: "Single Substitution lookup 29 subtable" j.ext.left
Substitution2: "Single Substitution lookup 28 subtable" j.ext.right
Substitution2: "Single Substitution lookup 27 subtable" j.ext.diagup
Substitution2: "Single Substitution lookup 23 subtable" j.ext.left
Substitution2: "Single Substitution lookup 22 subtable" j.ext.right
Substitution2: "Single Substitution lookup 21 subtable" j.ext.diagup
EndChar

StartChar: k.ext.up
Encoding: 245 -1 245
Width: 80
Flags: HW
AnchorPoint: "Extension_mkmk" 35 65 mark 0
LayerCount: 2
Fore
SplineSet
52.400390625 80 m 1
 52.400390625 79.9501953125 l 1
 40 67.5498046875 l 1
 40 60 l 1
 36.6669921875 60.5166015625 33.3330078125 58.849609375 30 55 c 1
 30 60 l 1
 39.9501953125 69.900390625 l 1
 40 69.900390625 l 1
 40 70 l 1
 39.900390625 69.900390625 l 1
 20 69.900390625 l 1
 30 80 l 1
 52.400390625 80 l 1
EndSplineSet
Substitution2: "Single Substitution lookup 29 subtable" k.ext.left
Substitution2: "Single Substitution lookup 28 subtable" k.ext.right
Substitution2: "Single Substitution lookup 27 subtable" k.ext.diagup
Substitution2: "Single Substitution lookup 23 subtable" k.ext.left
Substitution2: "Single Substitution lookup 22 subtable" k.ext.right
Substitution2: "Single Substitution lookup 21 subtable" k.ext.diagup
EndChar

StartChar: l.ext.up
Encoding: 246 -1 246
Width: 80
Flags: HW
AnchorPoint: "Extension_mkmk" 35 65 mark 0
LayerCount: 2
Fore
SplineSet
40 90 m 1
 40 70 l 2
 38.2001953125 60 34.8662109375 56.6669921875 30 60 c 1
 30 80 l 1
 40 90 l 1
EndSplineSet
Substitution2: "Single Substitution lookup 29 subtable" l.ext.left
Substitution2: "Single Substitution lookup 28 subtable" l.ext.right
Substitution2: "Single Substitution lookup 27 subtable" l.ext.diagup
Substitution2: "Single Substitution lookup 23 subtable" l.ext.left
Substitution2: "Single Substitution lookup 22 subtable" l.ext.right
Substitution2: "Single Substitution lookup 21 subtable" l.ext.diagup
EndChar

StartChar: m.ext.up
Encoding: 247 -1 247
Width: 80
Flags: HW
AnchorPoint: "Extension_mkmk" 35 65 mark 0
LayerCount: 2
Fore
SplineSet
40 55 m 1
 35.916015625 56.8349609375 32.5830078125 55.1689453125 30 50 c 1
 30 60 l 1
 15 60 l 1
 25 70 l 1
 40 70 l 1
 40 55 l 1
EndSplineSet
Substitution2: "Single Substitution lookup 29 subtable" m.ext.left
Substitution2: "Single Substitution lookup 28 subtable" m.ext.right
Substitution2: "Single Substitution lookup 27 subtable" m.ext.diagup
Substitution2: "Single Substitution lookup 23 subtable" m.ext.left
Substitution2: "Single Substitution lookup 22 subtable" m.ext.right
Substitution2: "Single Substitution lookup 21 subtable" m.ext.diagup
EndChar

StartChar: n.ext.up
Encoding: 248 -1 248
Width: 80
Flags: HW
AnchorPoint: "Extension_mkmk" 35 65 mark 0
LayerCount: 2
Fore
SplineSet
40 55 m 1
 35.8994140625 56.8330078125 32.56640625 55.1669921875 30 50 c 1
 30 60 l 1
 15 60 l 1
 33.7001953125 78.7001953125 l 1
 34.900390625 77.5 l 1
 27.400390625 70 l 1
 40 70 l 1
 40 55 l 1
EndSplineSet
Substitution2: "Single Substitution lookup 29 subtable" n.ext.left
Substitution2: "Single Substitution lookup 28 subtable" n.ext.right
Substitution2: "Single Substitution lookup 27 subtable" n.ext.diagup
Substitution2: "Single Substitution lookup 23 subtable" n.ext.left
Substitution2: "Single Substitution lookup 22 subtable" n.ext.right
Substitution2: "Single Substitution lookup 21 subtable" n.ext.diagup
EndChar

StartChar: p.ext.up
Encoding: 249 -1 249
Width: 80
Flags: HW
AnchorPoint: "Extension_mkmk" 35 65 mark 0
LayerCount: 2
Fore
SplineSet
30.349609375 57.900390625 m 0
 30.1435546875 57.6865234375 30.0263671875 57.5693359375 30 57.5498046875 c 2
 24.150390625 51.650390625 l 1
 12.849609375 62.849609375 l 1
 20 70 l 1
 30 60 l 1
 40 70 l 1
 40 55.25 l 1
 38.5068359375 58.5166015625 35.673828125 59.783203125 31.5 59.0498046875 c 0
 30.9833984375 58.525390625 30.599609375 58.1416015625 30.349609375 57.900390625 c 0
EndSplineSet
Substitution2: "Single Substitution lookup 29 subtable" p.ext.left
Substitution2: "Single Substitution lookup 28 subtable" p.ext.right
Substitution2: "Single Substitution lookup 27 subtable" p.ext.diagup
Substitution2: "Single Substitution lookup 23 subtable" p.ext.left
Substitution2: "Single Substitution lookup 22 subtable" p.ext.right
Substitution2: "Single Substitution lookup 21 subtable" p.ext.diagup
EndChar

StartChar: P.ext.up
Encoding: 250 -1 250
Width: 80
Flags: HW
AnchorPoint: "Extension_mkmk" 35 65 mark 0
LayerCount: 2
Fore
SplineSet
30.349609375 57.900390625 m 0
 30.1435546875 57.6865234375 30.0263671875 57.5693359375 30 57.5498046875 c 2
 24.150390625 51.650390625 l 1
 12.849609375 62.849609375 l 1
 20 70 l 1
 27.5 77.5 l 1
 28.7001953125 76.2998046875 l 1
 21.2001953125 68.7998046875 l 1
 30 60 l 1
 40 70 l 1
 40 55.25 l 1
 38.5068359375 58.5166015625 35.673828125 59.783203125 31.5 59.0498046875 c 0
 30.9833984375 58.525390625 30.599609375 58.1416015625 30.349609375 57.900390625 c 0
EndSplineSet
Substitution2: "Single Substitution lookup 29 subtable" P.ext.left
Substitution2: "Single Substitution lookup 28 subtable" P.ext.right
Substitution2: "Single Substitution lookup 27 subtable" P.ext.diagup
Substitution2: "Single Substitution lookup 23 subtable" P.ext.left
Substitution2: "Single Substitution lookup 22 subtable" P.ext.right
Substitution2: "Single Substitution lookup 21 subtable" P.ext.diagup
EndChar

StartChar: r.upsidedown.ext.up
Encoding: 251 -1 251
Width: 80
Flags: HW
AnchorPoint: "Extension_mkmk" 35 65 mark 0
LayerCount: 2
Fore
SplineSet
30 80 m 1
 46.2998046875 96.2998046875 l 1
 47.5 95.099609375 l 1
 40 87.599609375 l 1
 40 70.099609375 l 2
 38.2001953125 60.033203125 34.8662109375 56.6669921875 30 60 c 1
 30 80 l 1
EndSplineSet
Substitution2: "Single Substitution lookup 29 subtable" r.upsidedown.ext.left
Substitution2: "Single Substitution lookup 28 subtable" r.upsidedown.ext.right
Substitution2: "Single Substitution lookup 27 subtable" r.upsidedown.ext.diagup
Substitution2: "Single Substitution lookup 23 subtable" r.upsidedown.ext.left
Substitution2: "Single Substitution lookup 22 subtable" r.upsidedown.ext.right
Substitution2: "Single Substitution lookup 21 subtable" r.upsidedown.ext.diagup
EndChar

StartChar: r.ext.up
Encoding: 252 -1 252
Width: 80
Flags: HW
AnchorPoint: "Extension_mkmk" 35 65 mark 0
LayerCount: 2
Fore
SplineSet
30 77.599609375 m 1
 23.7001953125 71.2998046875 l 1
 22.5 72.5 l 1
 40 90 l 1
 40 70 l 2
 38.2001953125 60 34.8662109375 56.6669921875 30 60 c 1
 30 77.599609375 l 1
EndSplineSet
Substitution2: "Single Substitution lookup 29 subtable" r.ext.left
Substitution2: "Single Substitution lookup 28 subtable" r.ext.right
Substitution2: "Single Substitution lookup 27 subtable" r.ext.diagup
Substitution2: "Single Substitution lookup 23 subtable" r.ext.left
Substitution2: "Single Substitution lookup 22 subtable" r.ext.right
Substitution2: "Single Substitution lookup 21 subtable" r.ext.diagup
EndChar

StartChar: s.ext.up
Encoding: 253 -1 253
Width: 80
Flags: HW
AnchorPoint: "Extension_mkmk" 35 65 mark 0
LayerCount: 2
Fore
SplineSet
30 48.7998046875 m 1
 30 57.599609375 l 1
 23.7001953125 51.2998046875 l 1
 22.5 52.5 l 1
 40 70 l 1
 40 60 l 1
 36.6669921875 60.626953125 33.3330078125 56.8935546875 30 48.7998046875 c 1
EndSplineSet
Substitution2: "Single Substitution lookup 29 subtable" s.ext.left
Substitution2: "Single Substitution lookup 28 subtable" s.ext.right
Substitution2: "Single Substitution lookup 27 subtable" s.ext.diagup
Substitution2: "Single Substitution lookup 23 subtable" s.ext.left
Substitution2: "Single Substitution lookup 22 subtable" s.ext.right
Substitution2: "Single Substitution lookup 21 subtable" s.ext.diagup
EndChar

StartChar: t.ext.up
Encoding: 254 -1 254
Width: 80
Flags: HW
AnchorPoint: "Extension_mkmk" 35 65 mark 0
LayerCount: 2
Fore
SplineSet
30 60 m 1
 45.849609375 75.849609375 l 1
 58.7998046875 62.900390625 l 1
 51.7998046875 55.900390625 l 1
 40 67.599609375 l 1
 40 60 l 1
 37.5 62.6669921875 34.1669921875 61 30 55 c 1
 30 60 l 1
EndSplineSet
Substitution2: "Single Substitution lookup 29 subtable" t.ext.left
Substitution2: "Single Substitution lookup 28 subtable" t.ext.right
Substitution2: "Single Substitution lookup 27 subtable" t.ext.diagup
Substitution2: "Single Substitution lookup 23 subtable" t.ext.left
Substitution2: "Single Substitution lookup 22 subtable" t.ext.right
Substitution2: "Single Substitution lookup 21 subtable" t.ext.diagup
EndChar

StartChar: v.ext.up
Encoding: 255 -1 255
Width: 80
Flags: HW
AnchorPoint: "Extension_mkmk" 35 65 mark 0
LayerCount: 2
Fore
SplineSet
40 54.349609375 m 1
 36.533203125 57.4833984375 33.2001953125 55.8828125 30 49.5498046875 c 1
 30 57.650390625 l 1
 23.650390625 51.349609375 l 1
 21.9169921875 63.1162109375 16.966796875 68.283203125 8.7998046875 66.849609375 c 1
 16.666015625 74.1162109375 23.7333984375 71.8330078125 30 60 c 1
 40 70 l 1
 40 54.349609375 l 1
EndSplineSet
Substitution2: "Single Substitution lookup 29 subtable" v.ext.left
Substitution2: "Single Substitution lookup 28 subtable" v.ext.right
Substitution2: "Single Substitution lookup 27 subtable" v.ext.diagup
Substitution2: "Single Substitution lookup 23 subtable" v.ext.left
Substitution2: "Single Substitution lookup 22 subtable" v.ext.right
Substitution2: "Single Substitution lookup 21 subtable" v.ext.diagup
EndChar

StartChar: velar.ext.up
Encoding: 256 -1 256
Width: 80
Flags: HW
AnchorPoint: "Extension_mkmk" 35 65 mark 0
LayerCount: 2
Fore
SplineSet
30.7998046875 60.7998046875 m 2
 30.849609375 60.7998046875 l 1
 40 70 l 1
 40 56.900390625 l 1
 30 52.5498046875 l 1
 30 57.7998046875 l 1
 27.1005859375 55.1328125 24.216796875 53.716796875 21.349609375 53.5498046875 c 0
 17.8837890625 53.31640625 14.5 54.93359375 11.2001953125 58.400390625 c 1
 18.7001953125 65.9501953125 l 1
 20.099609375 63.4169921875 22 61.6171875 24.400390625 60.5498046875 c 0
 26.8330078125 59.4501953125 28.966796875 59.533203125 30.7998046875 60.7998046875 c 2
EndSplineSet
Substitution2: "Single Substitution lookup 29 subtable" velar.ext.left
Substitution2: "Single Substitution lookup 28 subtable" velar.ext.right
Substitution2: "Single Substitution lookup 27 subtable" velar.ext.diagup
Substitution2: "Single Substitution lookup 23 subtable" velar.ext.left
Substitution2: "Single Substitution lookup 22 subtable" velar.ext.right
Substitution2: "Single Substitution lookup 21 subtable" velar.ext.diagup
EndChar

StartChar: w.ext.up
Encoding: 257 -1 257
Width: 80
Flags: HW
AnchorPoint: "Extension_mkmk" 35 65 mark 0
LayerCount: 2
Fore
SplineSet
36.2998046875 86.400390625 m 1
 37.5 85.2001953125 l 1
 30 77.7001953125 l 1
 30 60 l 1
 40 70 l 1
 40 55 l 1
 36.6669921875 57.3994140625 33.3330078125 56.56640625 30 52.5 c 1
 30 57.650390625 l 1
 20 47.650390625 l 1
 20 70.099609375 l 1
 36.2998046875 86.400390625 l 1
EndSplineSet
Substitution2: "Single Substitution lookup 29 subtable" w.ext.left
Substitution2: "Single Substitution lookup 28 subtable" w.ext.right
Substitution2: "Single Substitution lookup 27 subtable" w.ext.diagup
Substitution2: "Single Substitution lookup 23 subtable" w.ext.left
Substitution2: "Single Substitution lookup 22 subtable" w.ext.right
Substitution2: "Single Substitution lookup 21 subtable" w.ext.diagup
EndChar

StartChar: x.ext.up
Encoding: 258 -1 258
Width: 80
Flags: HW
AnchorPoint: "Extension_mkmk" 35 65 mark 0
LayerCount: 2
Fore
SplineSet
20 67.650390625 m 1
 26.533203125 78.3173828125 35.7001953125 80.8173828125 47.5 75.150390625 c 1
 40 67.599609375 l 1
 40 56.5 l 1
 36.5 58.533203125 33.1669921875 58.033203125 30 55 c 1
 30 60 l 1
 38.849609375 68.7998046875 l 1
 34.0830078125 72.900390625 27.7998046875 72.5166015625 20 67.650390625 c 1
EndSplineSet
Substitution2: "Single Substitution lookup 29 subtable" x.ext.left
Substitution2: "Single Substitution lookup 28 subtable" x.ext.right
Substitution2: "Single Substitution lookup 27 subtable" x.ext.diagup
Substitution2: "Single Substitution lookup 23 subtable" x.ext.left
Substitution2: "Single Substitution lookup 22 subtable" x.ext.right
Substitution2: "Single Substitution lookup 21 subtable" x.ext.diagup
EndChar

StartChar: y.ext.up
Encoding: 259 -1 259
Width: 80
Flags: HW
AnchorPoint: "Extension_mkmk" 35 65 mark 0
LayerCount: 2
Fore
SplineSet
10 70 m 1
 20 80 l 1
 37.400390625 80 l 1
 27.4501953125 70 l 1
 40 70 l 1
 40 55 l 1
 35.8994140625 56.8330078125 32.56640625 55.1669921875 30 50 c 1
 30 60 l 1
 15 60 l 1
 25 70 l 1
 10 70 l 1
EndSplineSet
Substitution2: "Single Substitution lookup 29 subtable" y.ext.left
Substitution2: "Single Substitution lookup 28 subtable" y.ext.right
Substitution2: "Single Substitution lookup 27 subtable" y.ext.diagup
Substitution2: "Single Substitution lookup 23 subtable" y.ext.left
Substitution2: "Single Substitution lookup 22 subtable" y.ext.right
Substitution2: "Single Substitution lookup 21 subtable" y.ext.diagup
EndChar

StartChar: z.ext.up
Encoding: 260 -1 260
Width: 80
Flags: HW
AnchorPoint: "Extension_mkmk" 35 65 mark 0
LayerCount: 2
Fore
SplineSet
47.5 75.099609375 m 1
 40 67.599609375 l 1
 40 58.7998046875 l 1
 36.6669921875 60.7294921875 33.3330078125 58.5458984375 30 52.25 c 1
 30 60 l 1
 46.2998046875 76.2998046875 l 1
 47.5 75.099609375 l 1
EndSplineSet
Substitution2: "Single Substitution lookup 29 subtable" z.ext.left
Substitution2: "Single Substitution lookup 28 subtable" z.ext.right
Substitution2: "Single Substitution lookup 27 subtable" z.ext.diagup
Substitution2: "Single Substitution lookup 23 subtable" z.ext.left
Substitution2: "Single Substitution lookup 22 subtable" z.ext.right
Substitution2: "Single Substitution lookup 21 subtable" z.ext.diagup
EndChar

StartChar: glottal.ext.diagup
Encoding: 262 -1 262
Width: 80
Flags: HW
AnchorPoint: "Extension_mkmk" 35 65 mark 0
LayerCount: 2
Fore
SplineSet
34.2998046875 64.349609375 m 1
 40 70 l 1
 44.09765625 62.2275390625 41.998046875 59.328125 33.7001953125 61.2998046875 c 1
 27.400390625 55 l 1
 26.2001953125 56.2001953125 l 1
 26.9501953125 57 l 2
 32.8828125 63.2666015625 30.4501953125 66.716796875 19.650390625 67.349609375 c 1
 27.150390625 74.849609375 l 1
 33.18359375 72.1494140625 35.56640625 68.6494140625 34.2998046875 64.349609375 c 1
EndSplineSet
EndChar

StartChar: ncaron.ext.diagup
Encoding: 263 -1 263
Width: 80
Flags: HW
AnchorPoint: "Extension_mkmk" 35 65 mark 0
LayerCount: 2
Fore
SplineSet
42.599609375 60 m 0
 42.2001953125 58.033203125 39.6669921875 58.033203125 35 60 c 2
 17.400390625 60 l 1
 8.7001953125 51.2998046875 l 1
 7.5 52.5 l 1
 25 70 l 1
 40 70 l 1
 42.8330078125 65.1337890625 43.7001953125 61.7998046875 42.599609375 60 c 0
EndSplineSet
EndChar

StartChar: scaron.ext.diagup
Encoding: 264 -1 264
Width: 80
Flags: HW
AnchorPoint: "Extension_mkmk" 35 65 mark 0
LayerCount: 2
Fore
SplineSet
33.7001953125 61.2998046875 m 2
 23.7001953125 51.2001953125 l 1
 23.7001953125 73.5498046875 l 1
 33.7001953125 83.650390625 l 1
 33.7001953125 63.7001953125 l 1
 40 70 l 1
 40.533203125 66.6669921875 40.533203125 64.6669921875 40 64 c 0
 38.6005859375 61.7666015625 36.5 60.8671875 33.7001953125 61.2998046875 c 2
EndSplineSet
EndChar

StartChar: ddotbelow.ext.diagup
Encoding: 265 -1 265
Width: 80
Flags: HW
AnchorPoint: "Extension_mkmk" 35 65 mark 0
LayerCount: 2
Fore
SplineSet
41.150390625 62.5 m 0
 38.482421875 61.6181640625 35.5986328125 61.6181640625 32.5 62.5 c 1
 47.5 77.5 l 1
 53.966796875 69.6005859375 59.75 68.783203125 64.849609375 75.0498046875 c 1
 61.75 64.81640625 53.8505859375 62.75 41.150390625 68.849609375 c 2
 40.349609375 69.2001953125 l 1
 41.7685546875 67.4521484375 42.03515625 65.21875 41.150390625 62.5 c 0
EndSplineSet
EndChar

StartChar: tcedilla.ext.diagup
Encoding: 266 -1 266
Width: 80
Flags: HW
AnchorPoint: "Extension_mkmk" 35 65 mark 0
LayerCount: 2
Fore
SplineSet
32.5 62.5 m 1
 47.4501953125 77.5 l 1
 62.18359375 77.1005859375 65.43359375 72.1171875 57.2001953125 62.5498046875 c 1
 60.1669921875 68.8828125 54.7998046875 70.9833984375 41.099609375 68.849609375 c 2
 39.7998046875 68.7001953125 l 1
 40.875 65.8671875 41.30859375 63.7998046875 41.099609375 62.5 c 0
 40.4326171875 60.3330078125 37.56640625 60.3330078125 32.5 62.5 c 1
EndSplineSet
EndChar

StartChar: ccedilla.ext.diagup
Encoding: 267 -1 267
Width: 80
Flags: HW
AnchorPoint: "Extension_mkmk" 35 65 mark 0
LayerCount: 2
Fore
SplineSet
73.7001953125 86.349609375 m 1
 56.2001953125 68.849609375 l 1
 41.150390625 68.849609375 l 1
 40.9501953125 64.5830078125 38.9501953125 62.56640625 35.150390625 62.7998046875 c 1
 37.216796875 65.466796875 38.8330078125 67.8662109375 40 70 c 2
 48.75 78.849609375 l 1
 63.7998046875 78.849609375 l 1
 72.5 87.5498046875 l 1
 73.7001953125 86.349609375 l 1
EndSplineSet
EndChar

StartChar: ccaron.ext.diagup
Encoding: 268 -1 268
Width: 80
Flags: HW
AnchorPoint: "Extension_mkmk" 35 65 mark 0
LayerCount: 2
Fore
SplineSet
29.7001953125 79.7001953125 m 1
 29.7998046875 79.7001953125 l 1
 38.400390625 88.2998046875 l 1
 39.599609375 87.099609375 l 1
 32.2001953125 79.7001953125 l 1
 52.099609375 79.7001953125 l 1
 40.900390625 68.400390625 l 1
 42.2666015625 63.7001953125 39.466796875 61.7333984375 32.5 62.5 c 1
 39.599609375 69.599609375 l 1
 19.7001953125 69.599609375 l 1
 29.7001953125 79.7001953125 l 1
EndSplineSet
EndChar

StartChar: lcedilla.ext.diagup
Encoding: 269 -1 269
Width: 80
Flags: HW
AnchorPoint: "Extension_mkmk" 35 65 mark 0
LayerCount: 2
Fore
SplineSet
45 75 m 1
 65 75 l 1
 55 65 l 1
 42.5 65 l 1
 37.7119140625 60.544921875 36.87890625 62.2119140625 40 70 c 1
 45 75 l 1
EndSplineSet
EndChar

StartChar: zdotaccent.ext.diagup
Encoding: 270 -1 270
Width: 80
Flags: HW
AnchorPoint: "Extension_mkmk" 35 65 mark 0
LayerCount: 2
Fore
SplineSet
32.5 62.5 m 1
 37.4501953125 67.4501953125 l 1
 39.5166015625 63.216796875 38.25 61.166015625 33.650390625 61.2998046875 c 1
 24.900390625 52.5 l 1
 9.849609375 52.5 l 1
 1.150390625 43.7998046875 l 1
 -0.0498046875 45 l 1
 17.4501953125 62.5 l 1
 32.5 62.5 l 1
EndSplineSet
EndChar

StartChar: zcaron.ext.diagup
Encoding: 271 -1 271
Width: 80
Flags: HW
AnchorPoint: "Extension_mkmk" 35 65 mark 0
LayerCount: 2
Fore
SplineSet
40 64 m 0
 38.6005859375 61.7666015625 36.5 60.8671875 33.7001953125 61.2998046875 c 2
 23.7001953125 51.2001953125 l 1
 23.7001953125 71.25 l 1
 17.400390625 64.9501953125 l 1
 16.2001953125 66.150390625 l 1
 33.7001953125 83.650390625 l 1
 33.7001953125 63.7001953125 l 1
 40 70 l 1
 40.533203125 66.6669921875 40.533203125 64.6669921875 40 64 c 0
EndSplineSet
EndChar

StartChar: rcaron.ext.diagup
Encoding: 272 -1 272
Width: 80
Flags: HW
AnchorPoint: "Extension_mkmk" 35 65 mark 0
LayerCount: 2
Fore
SplineSet
40 70 m 1
 30.5 70.2998046875 24.216796875 76.56640625 21.150390625 88.7998046875 c 1
 28.283203125 80.1328125 37.4501953125 75.9833984375 48.650390625 76.349609375 c 1
 41.150390625 68.7998046875 l 2
 41.6767578125 67.4296875 41.576171875 65.7802734375 40.849609375 63.849609375 c 0
 38.4482421875 62.1337890625 35.8154296875 61.833984375 32.9501953125 62.9501953125 c 1
 40 70 l 1
EndSplineSet
EndChar

StartChar: b.ext.diagup
Encoding: 273 -1 273
Width: 80
Flags: HW
AnchorPoint: "Extension_mkmk" 35 65 mark 0
LayerCount: 2
Fore
SplineSet
32.5 62.5 m 1
 37.4501953125 67.4501953125 l 1
 39.5166015625 63.216796875 38.25 61.166015625 33.650390625 61.2998046875 c 1
 24.900390625 52.5 l 1
 7.4501953125 52.5 l 1
 17.4501953125 62.5 l 1
 32.5 62.5 l 1
EndSplineSet
EndChar

StartChar: c.ext.diagup
Encoding: 274 -1 274
Width: 80
Flags: HW
AnchorPoint: "Extension_mkmk" 35 65 mark 0
LayerCount: 2
Fore
SplineSet
32.5 62.5 m 1
 37.4501953125 67.4501953125 l 1
 39.5166015625 63.216796875 38.25 61.166015625 33.650390625 61.2998046875 c 1
 24.900390625 52.5 l 1
 7.4501953125 52.5 l 1
 26.150390625 71.2001953125 l 1
 27.349609375 70 l 1
 19.849609375 62.5 l 1
 32.5 62.5 l 1
EndSplineSet
EndChar

StartChar: equal.ext.diagup
Encoding: 275 -1 275
Width: 80
Flags: HW
AnchorPoint: "Extension_mkmk" 35 65 mark 0
LayerCount: 2
Fore
SplineSet
20 60 m 1
 20 75 l 1
 30 85 l 1
 30 70 l 1
 40 70 l 1
 42.8330078125 65.1337890625 43.7001953125 61.7998046875 42.599609375 60 c 0
 42.2001953125 58.033203125 39.6669921875 58.033203125 35 60 c 2
 20 60 l 1
EndSplineSet
EndChar

StartChar: d.ext.diagup
Encoding: 276 -1 276
Width: 80
Flags: HW
AnchorPoint: "Extension_mkmk" 35 65 mark 0
LayerCount: 2
Fore
SplineSet
41.150390625 68.849609375 m 1
 40.9501953125 64.5830078125 38.9501953125 62.56640625 35.150390625 62.7998046875 c 1
 37.216796875 65.466796875 38.8330078125 67.8662109375 40 70 c 2
 48.75 78.849609375 l 1
 66.2001953125 78.849609375 l 1
 56.2001953125 68.849609375 l 1
 41.150390625 68.849609375 l 1
EndSplineSet
EndChar

StartChar: D.ext.diagup
Encoding: 277 -1 277
Width: 80
Flags: HW
AnchorPoint: "Extension_mkmk" 35 65 mark 0
LayerCount: 2
Fore
SplineSet
41.150390625 68.849609375 m 1
 40.9501953125 64.5830078125 38.9501953125 62.56640625 35.150390625 62.7998046875 c 1
 37.216796875 65.466796875 38.8330078125 67.8662109375 40 70 c 2
 48.75 78.849609375 l 1
 71.099609375 78.849609375 l 1
 61.099609375 68.849609375 l 1
 53.599609375 61.349609375 l 1
 52.400390625 62.5498046875 l 1
 58.7001953125 68.849609375 l 1
 41.150390625 68.849609375 l 1
EndSplineSet
EndChar

StartChar: glottal.flip.ext.diagup
Encoding: 278 -1 278
Width: 80
Flags: HW
AnchorPoint: "Extension_mkmk" 35 65 mark 0
LayerCount: 2
Fore
SplineSet
28.650390625 76.2998046875 m 1
 33.716796875 69.93359375 39.650390625 69.9833984375 46.4501953125 76.4501953125 c 0
 46.5498046875 76.5498046875 46.6328125 76.6494140625 46.7001953125 76.75 c 0
 46.966796875 76.9833984375 47.216796875 77.216796875 47.4501953125 77.4501953125 c 1
 48.650390625 76.25 l 1
 41.2001953125 68.7998046875 l 1
 44.046875 61.5771484375 41.1474609375 59.4775390625 32.5 62.5 c 1
 37.650390625 67.7001953125 l 1
 32.4833984375 63.3671875 26.9833984375 63.716796875 21.150390625 68.75 c 1
 28.650390625 76.2998046875 l 1
EndSplineSet
EndChar

StartChar: approxequal.ext.diagup
Encoding: 279 -1 279
Width: 80
Flags: HW
AnchorPoint: "Extension_mkmk" 35 65 mark 0
LayerCount: 2
Fore
SplineSet
40 70 m 1
 40 85.0498046875 l 1
 50 95.0498046875 l 1
 50 77.7001953125 l 1
 41.2001953125 68.7998046875 l 1
 43.033203125 61.3330078125 40.1337890625 59.2333984375 32.5 62.5 c 1
 40 70 l 1
EndSplineSet
EndChar

StartChar: f.ext.diagup
Encoding: 280 -1 280
Width: 80
Flags: HW
AnchorPoint: "Extension_mkmk" 35 65 mark 0
LayerCount: 2
Fore
SplineSet
16.2998046875 81.349609375 m 1
 19.900390625 70.5166015625 25.2998046875 64.2333984375 32.5 62.5 c 1
 38.7998046875 68.849609375 l 1
 41.26953125 62.5361328125 39.8193359375 60.3203125 34.4501953125 62.2001953125 c 1
 32.4501953125 60.2001953125 l 1
 26.150390625 53.849609375 l 1
 19.3505859375 57.5830078125 16.06640625 66.75 16.2998046875 81.349609375 c 1
EndSplineSet
EndChar

StartChar: g.ext.diagup
Encoding: 281 -1 281
Width: 80
Flags: HW
AnchorPoint: "Extension_mkmk" 35 65 mark 0
LayerCount: 2
Fore
SplineSet
28.2001953125 81.7998046875 m 1
 35.2001953125 88.7998046875 l 1
 48.2001953125 75.900390625 l 1
 41.150390625 68.849609375 l 1
 42.099609375 65.5 l 2
 42.4873046875 64.0419921875 40.1201171875 63.8759765625 35 65 c 1
 40 70 l 1
 28.2001953125 81.7998046875 l 1
EndSplineSet
EndChar

StartChar: G.ext.diagup
Encoding: 282 -1 282
Width: 80
Flags: HW
AnchorPoint: "Extension_mkmk" 35 65 mark 0
LayerCount: 2
Fore
SplineSet
28.2001953125 81.7998046875 m 1
 42.7001953125 96.2998046875 l 1
 43.900390625 95.099609375 l 1
 36.400390625 87.599609375 l 1
 48.2001953125 75.900390625 l 1
 41.150390625 68.849609375 l 1
 42.099609375 65.5 l 2
 42.4873046875 64.0419921875 40.1201171875 63.8759765625 35 65 c 1
 40 70 l 1
 28.2001953125 81.7998046875 l 1
EndSplineSet
EndChar

StartChar: h.ext.diagup
Encoding: 283 -1 283
Width: 80
Flags: HW
AnchorPoint: "Extension_mkmk" 35 65 mark 0
LayerCount: 2
Fore
SplineSet
57.5 100.150390625 m 1
 50 92.650390625 l 1
 50 77.7001953125 l 1
 41.2001953125 68.7998046875 l 1
 43.033203125 61.3330078125 40.1337890625 59.2333984375 32.5 62.5 c 1
 40 70 l 1
 40 85.0498046875 l 1
 56.2998046875 101.349609375 l 1
 57.5 100.150390625 l 1
EndSplineSet
EndChar

StartChar: j.ext.diagup
Encoding: 284 -1 284
Width: 80
Flags: HW
AnchorPoint: "Extension_mkmk" 35 65 mark 0
LayerCount: 2
Fore
SplineSet
22 69.599609375 m 1
 13.400390625 61 l 1
 12.2001953125 62.2001953125 l 1
 29.7001953125 79.7001953125 l 1
 52.099609375 79.7001953125 l 1
 40.900390625 68.400390625 l 1
 42.2666015625 63.7001953125 39.466796875 61.7333984375 32.5 62.5 c 1
 39.599609375 69.599609375 l 1
 22 69.599609375 l 1
EndSplineSet
EndChar

StartChar: k.ext.diagup
Encoding: 285 -1 285
Width: 80
Flags: HW
AnchorPoint: "Extension_mkmk" 35 65 mark 0
LayerCount: 2
Fore
SplineSet
40.900390625 68.400390625 m 1
 42.2646484375 63.6953125 39.4638671875 61.728515625 32.5 62.5 c 1
 39.599609375 69.599609375 l 1
 19.7001953125 69.599609375 l 1
 29.7001953125 79.7001953125 l 1
 52.099609375 79.7001953125 l 1
 40.900390625 68.400390625 l 1
EndSplineSet
EndChar

StartChar: l.ext.diagup
Encoding: 286 -1 286
Width: 80
Flags: HW
AnchorPoint: "Extension_mkmk" 35 65 mark 0
LayerCount: 2
Fore
SplineSet
25 85 m 1
 40 70 l 1
 39.533203125 65.3330078125 37.033203125 62.8330078125 32.5 62.5 c 1
 17.5 77.5 l 1
 25 85 l 1
EndSplineSet
EndChar

StartChar: m.ext.diagup
Encoding: 287 -1 287
Width: 80
Flags: HW
AnchorPoint: "Extension_mkmk" 35 65 mark 0
LayerCount: 2
Fore
SplineSet
42.599609375 60 m 0
 42.2099609375 58.0458984375 39.6767578125 58.0458984375 35 60 c 2
 15 60 l 1
 25 70 l 1
 40 70 l 1
 42.8369140625 65.1435546875 43.703125 61.810546875 42.599609375 60 c 0
EndSplineSet
EndChar

StartChar: n.ext.diagup
Encoding: 288 -1 288
Width: 80
Flags: HW
AnchorPoint: "Extension_mkmk" 35 65 mark 0
LayerCount: 2
Fore
SplineSet
42.599609375 60 m 0
 42.2001953125 58.033203125 39.6669921875 58.033203125 35 60 c 2
 15 60 l 1
 33.7001953125 78.7001953125 l 1
 34.900390625 77.5 l 1
 27.400390625 70 l 1
 40 70 l 1
 42.8330078125 65.1337890625 43.7001953125 61.7998046875 42.599609375 60 c 0
EndSplineSet
EndChar

StartChar: p.ext.diagup
Encoding: 289 -1 289
Width: 80
Flags: HW
AnchorPoint: "Extension_mkmk" 35 65 mark 0
LayerCount: 2
Fore
SplineSet
37.5 67.5 m 1
 38.5 68.5 l 1
 39.1103515625 65.1953125 39.1103515625 63.1123046875 38.5 62.25 c 0
 38.0556640625 61.0888671875 36.7724609375 61.0888671875 34.650390625 62.25 c 2
 33.650390625 61.25 l 1
 26.650390625 54.150390625 l 1
 15.349609375 65.349609375 l 1
 22.5 72.5 l 1
 32.5 62.5 l 1
 37.5 67.5 l 1
EndSplineSet
EndChar

StartChar: P.ext.diagup
Encoding: 290 -1 290
Width: 80
Flags: HW
AnchorPoint: "Extension_mkmk" 35 65 mark 0
LayerCount: 2
Fore
SplineSet
37.5 67.5 m 1
 38.5 68.5 l 1
 39.1103515625 65.1953125 39.1103515625 63.1123046875 38.5 62.25 c 0
 38.0556640625 61.0888671875 36.7724609375 61.0888671875 34.650390625 62.25 c 2
 33.650390625 61.25 l 1
 26.650390625 54.150390625 l 1
 15.349609375 65.349609375 l 1
 22.5 72.5 l 1
 30 80 l 1
 31.2001953125 78.7998046875 l 1
 23.7001953125 71.2998046875 l 1
 32.5 62.5 l 1
 37.5 67.5 l 1
EndSplineSet
EndChar

StartChar: r.upsidedown.ext.diagup
Encoding: 291 -1 291
Width: 80
Flags: HW
AnchorPoint: "Extension_mkmk" 35 65 mark 0
LayerCount: 2
Fore
SplineSet
32.5 62.5 m 1
 17.5 77.5 l 1
 32.5 92.5 l 1
 33.7001953125 91.2998046875 l 1
 26.2001953125 83.7998046875 l 1
 40 70 l 1
 39.533203125 65.3330078125 37.033203125 62.8330078125 32.5 62.5 c 1
EndSplineSet
EndChar

StartChar: r.ext.diagup
Encoding: 292 -1 292
Width: 80
Flags: HW
AnchorPoint: "Extension_mkmk" 35 65 mark 0
LayerCount: 2
Fore
SplineSet
32.5 62.5 m 1
 18.7001953125 76.2998046875 l 1
 11.2001953125 68.7998046875 l 1
 10 70 l 1
 25 85 l 1
 40 70 l 1
 39.533203125 65.3330078125 37.033203125 62.8330078125 32.5 62.5 c 1
EndSplineSet
EndChar

StartChar: s.ext.diagup
Encoding: 293 -1 293
Width: 80
Flags: HW
AnchorPoint: "Extension_mkmk" 35 65 mark 0
LayerCount: 2
Fore
SplineSet
38.900390625 66.9501953125 m 1
 38.8662109375 63.9169921875 38.6494140625 61.9169921875 38.25 60.9501953125 c 0
 37.9541015625 60.05859375 36.4375 60.1748046875 33.7001953125 61.2998046875 c 1
 26.2001953125 53.7998046875 l 1
 25 55 l 1
 32.5 62.5 l 2
 34.580078125 64.25 36.7138671875 65.7333984375 38.900390625 66.9501953125 c 1
EndSplineSet
EndChar

StartChar: t.ext.diagup
Encoding: 294 -1 294
Width: 80
Flags: HW
AnchorPoint: "Extension_mkmk" 35 65 mark 0
LayerCount: 2
Fore
SplineSet
33.7001953125 61.2998046875 m 1
 33.7001953125 48.7001953125 l 1
 23.7001953125 38.7001953125 l 1
 23.7001953125 53.7001953125 l 1
 32.5 62.5 l 2
 34.517578125 62.4375 36.5009765625 63.7041015625 38.4501953125 66.2998046875 c 1
 39.607421875 62.15625 38.0234375 60.4892578125 33.7001953125 61.2998046875 c 1
EndSplineSet
EndChar

StartChar: v.ext.diagup
Encoding: 295 -1 295
Width: 80
Flags: HW
AnchorPoint: "Extension_mkmk" 35 65 mark 0
LayerCount: 2
Fore
SplineSet
33.650390625 61.349609375 m 1
 27.2998046875 55.0498046875 l 1
 25.56640625 66.81640625 20.6171875 71.9833984375 12.4501953125 70.5498046875 c 1
 20.31640625 77.81640625 27.3837890625 75.533203125 33.650390625 63.7001953125 c 1
 40 70 l 1
 41.1669921875 62.3330078125 39.0498046875 59.43359375 33.650390625 61.2998046875 c 1
 33.650390625 61.349609375 l 1
EndSplineSet
EndChar

StartChar: velar.ext.diagup
Encoding: 296 -1 296
Width: 80
Flags: HW
AnchorPoint: "Extension_mkmk" 35 65 mark 0
LayerCount: 2
Fore
SplineSet
13.9501953125 61.099609375 m 1
 21.4501953125 68.650390625 l 1
 23.216796875 65.5830078125 25.4833984375 63.6494140625 28.25 62.849609375 c 0
 30.5830078125 62.1826171875 32.349609375 62.3994140625 33.5498046875 63.5 c 2
 40 70 l 1
 43.9873046875 62.2548828125 41.9375 59.4384765625 33.849609375 61.5498046875 c 1
 30.5830078125 58.216796875 27.3330078125 56.4501953125 24.099609375 56.25 c 0
 20.6337890625 56.0166015625 17.25 57.6337890625 13.9501953125 61.099609375 c 1
EndSplineSet
EndChar

StartChar: w.ext.diagup
Encoding: 297 -1 297
Width: 80
Flags: HW
AnchorPoint: "Extension_mkmk" 35 65 mark 0
LayerCount: 2
Fore
SplineSet
33.7001953125 81.150390625 m 1
 33.7001953125 63.7001953125 l 1
 40 70 l 1
 40.533203125 66.6669921875 40.533203125 64.6669921875 40 64 c 0
 38.6005859375 61.7666015625 36.5 60.8671875 33.7001953125 61.2998046875 c 2
 23.7001953125 51.2001953125 l 1
 23.7001953125 73.5498046875 l 1
 40 89.849609375 l 1
 41.2001953125 88.650390625 l 1
 33.7001953125 81.150390625 l 1
EndSplineSet
EndChar

StartChar: x.ext.diagup
Encoding: 298 -1 298
Width: 80
Flags: HW
AnchorPoint: "Extension_mkmk" 35 65 mark 0
LayerCount: 2
Fore
SplineSet
41.150390625 68.7998046875 m 1
 42.150390625 65.43359375 42.0498046875 63.9169921875 40.849609375 64.25 c 0
 39.0234375 64.7783203125 37.5068359375 65.4775390625 36.2998046875 66.349609375 c 1
 40 70 l 1
 35.2333984375 74.1005859375 28.9501953125 73.716796875 21.150390625 68.849609375 c 1
 27.68359375 79.5166015625 36.8505859375 82.0166015625 48.650390625 76.349609375 c 1
 41.150390625 68.7998046875 l 1
EndSplineSet
EndChar

StartChar: y.ext.diagup
Encoding: 299 -1 299
Width: 80
Flags: HW
AnchorPoint: "Extension_mkmk" 35 65 mark 0
LayerCount: 2
Fore
SplineSet
37.400390625 80 m 1
 27.4501953125 70 l 1
 40 70 l 1
 42.8330078125 65.1337890625 43.7001953125 61.7998046875 42.599609375 60 c 0
 42.2001953125 58.033203125 39.6669921875 58.033203125 35 60 c 2
 15 60 l 1
 25 70 l 1
 10 70 l 1
 20 80 l 1
 37.400390625 80 l 1
EndSplineSet
EndChar

StartChar: z.ext.diagup
Encoding: 300 -1 300
Width: 80
Flags: HW
AnchorPoint: "Extension_mkmk" 35 65 mark 0
LayerCount: 2
Fore
SplineSet
35.5498046875 63.599609375 m 1
 36.7666015625 65.7861328125 38.25 67.919921875 40 70 c 2
 47.5 77.5 l 1
 48.7001953125 76.2998046875 l 1
 41.2001953125 68.7998046875 l 1
 42.3251953125 66.0625 42.44140625 64.5458984375 41.5498046875 64.25 c 0
 40.5830078125 63.8505859375 38.5830078125 63.6337890625 35.5498046875 63.599609375 c 1
EndSplineSet
EndChar

StartChar: glottal.ext.right
Encoding: 301 -1 301
Width: 80
Flags: HW
AnchorPoint: "Extension_mkmk" 35 65 mark 0
LayerCount: 2
Fore
SplineSet
46.7001953125 76.7001953125 m 2
 40.7666015625 70.43359375 43.2001953125 66.9833984375 54 66.349609375 c 1
 46.5 58.849609375 l 1
 40.466796875 61.5498046875 38.0830078125 65.0498046875 39.349609375 69.349609375 c 1
 29.9501953125 60 l 1
 24.9501953125 60 l 1
 29.91015625 62.5732421875 31.576171875 65.9072265625 29.9501953125 70 c 1
 37.5498046875 70 l 1
 46.25 78.7001953125 l 1
 47.4501953125 77.5 l 1
 46.7001953125 76.7001953125 l 2
EndSplineSet
EndChar

StartChar: ncaron.ext.right
Encoding: 302 -1 302
Width: 80
Flags: HW
AnchorPoint: "Extension_mkmk" 35 65 mark 0
LayerCount: 2
Fore
SplineSet
46.2998046875 63.7001953125 m 1
 47.5 62.5 l 1
 30 45 l 1
 30 60 l 1
 20 60 l 1
 25.1669921875 62.56640625 26.8330078125 65.8994140625 25 70 c 1
 40 70 l 1
 40 57.400390625 l 1
 46.2998046875 63.7001953125 l 1
EndSplineSet
EndChar

StartChar: scaron.ext.right
Encoding: 303 -1 303
Width: 80
Flags: HW
AnchorPoint: "Extension_mkmk" 35 65 mark 0
LayerCount: 2
Fore
SplineSet
25 60 m 1
 27.3330078125 64 27.3330078125 67.3330078125 25 70 c 1
 37.599609375 70 l 1
 47.599609375 80 l 1
 47.599609375 57.5498046875 l 1
 37.599609375 47.650390625 l 1
 37.599609375 67.599609375 l 1
 30 60 l 1
 25 60 l 1
EndSplineSet
EndChar

StartChar: ddotbelow.ext.right
Encoding: 304 -1 304
Width: 80
Flags: HW
AnchorPoint: "Extension_mkmk" 35 65 mark 0
LayerCount: 2
Fore
SplineSet
19.5498046875 60 m 1
 25.8828125 63.2001953125 27.4833984375 66.533203125 24.349609375 70 c 1
 37.7001953125 70 l 1
 32.658203125 78.3115234375 32.908203125 85.3955078125 38.4501953125 91.25 c 1
 37.755859375 84.154296875 40.388671875 79.1875 46.349609375 76.349609375 c 1
 30 60 l 1
 19.5498046875 60 l 1
EndSplineSet
EndChar

StartChar: tcedilla.ext.right
Encoding: 305 -1 305
Width: 80
Flags: HW
AnchorPoint: "Extension_mkmk" 35 65 mark 0
LayerCount: 2
Fore
SplineSet
37.7001953125 70 m 1
 37.6328125 80.2001953125 35.3662109375 86.43359375 30.900390625 88.7001953125 c 1
 31.2998046875 88.7333984375 31.7001953125 88.75 32.099609375 88.75 c 0
 32.7001953125 88.75 33.2666015625 88.716796875 33.7998046875 88.650390625 c 0
 40 88.0166015625 44.1826171875 83.9169921875 46.349609375 76.349609375 c 1
 30 60 l 1
 19.5498046875 60 l 1
 25.8828125 63.2001953125 27.4833984375 66.533203125 24.349609375 70 c 1
 37.7001953125 70 l 1
EndSplineSet
EndChar

StartChar: ccedilla.ext.right
Encoding: 306 -1 306
Width: 80
Flags: HW
AnchorPoint: "Extension_mkmk" 35 65 mark 0
LayerCount: 2
Fore
SplineSet
37.5 70 m 1
 25.7001953125 81.7998046875 l 1
 40.2001953125 96.2998046875 l 1
 41.400390625 95.099609375 l 1
 33.900390625 87.599609375 l 1
 45.7001953125 75.900390625 l 1
 29.849609375 60 l 1
 24.849609375 60 l 1
 29.8837890625 63.7001953125 31.5498046875 67.033203125 29.849609375 70 c 1
 37.5 70 l 1
EndSplineSet
EndChar

StartChar: ccaron.ext.right
Encoding: 307 -1 307
Width: 80
Flags: HW
AnchorPoint: "Extension_mkmk" 35 65 mark 0
LayerCount: 2
Fore
SplineSet
40 50 m 1
 31.2998046875 41.2998046875 l 1
 30.099609375 42.5 l 1
 37.599609375 50 l 1
 17.7001953125 50 l 1
 27.650390625 60 l 1
 22.150390625 60 l 1
 29.3505859375 64.3662109375 31.1171875 67.7001953125 27.4501953125 70 c 1
 40.099609375 70 l 1
 30.099609375 60 l 1
 50 60 l 1
 40.099609375 50 l 1
 40 50 l 1
EndSplineSet
EndChar

StartChar: lcedilla.ext.right
Encoding: 308 -1 308
Width: 80
Flags: HW
AnchorPoint: "Extension_mkmk" 35 65 mark 0
LayerCount: 2
Fore
SplineSet
30 70 m 1
 30 80 l 1
 40 90 l 1
 57.5 72.5 l 1
 50 65 l 1
 40 75 l 1
 40 70 l 1
 30 60 l 1
 22.5498046875 60 l 1
 26.9501953125 63.6005859375 27.7666015625 66.93359375 25 70 c 1
 30 70 l 1
EndSplineSet
EndChar

StartChar: zdotaccent.ext.right
Encoding: 309 -1 309
Width: 80
Flags: HW
AnchorPoint: "Extension_mkmk" 35 65 mark 0
LayerCount: 2
Fore
SplineSet
31.2998046875 73.900390625 m 1
 30.099609375 75.099609375 l 1
 47.599609375 92.599609375 l 1
 47.599609375 77.599609375 l 1
 30 60 l 1
 24.4501953125 60 l 1
 28.0888671875 63.533203125 27.9716796875 66.8662109375 24.099609375 70 c 1
 37.599609375 70 l 1
 37.599609375 80.2001953125 l 1
 31.2998046875 73.900390625 l 1
EndSplineSet
EndChar

StartChar: zcaron.ext.right
Encoding: 310 -1 310
Width: 80
Flags: HW
AnchorPoint: "Extension_mkmk" 35 65 mark 0
LayerCount: 2
Fore
SplineSet
25 60 m 1
 27.3330078125 64 27.3330078125 67.3330078125 25 70 c 1
 37.599609375 70 l 1
 47.599609375 80 l 1
 47.599609375 60.0498046875 l 1
 53.900390625 66.349609375 l 1
 55.099609375 65.150390625 l 1
 47.599609375 57.650390625 l 1
 47.599609375 57.5498046875 l 1
 37.599609375 47.650390625 l 1
 37.599609375 67.650390625 l 1
 30 60 l 1
 25 60 l 1
EndSplineSet
EndChar

StartChar: rcaron.ext.right
Encoding: 311 -1 311
Width: 80
Flags: HW
AnchorPoint: "Extension_mkmk" 35 65 mark 0
LayerCount: 2
Fore
SplineSet
24.349609375 70 m 1
 40 70 l 1
 30 60 l 1
 41.8330078125 53.7333984375 44.1162109375 46.666015625 36.849609375 38.7998046875 c 1
 38.283203125 46.966796875 33.1162109375 51.9169921875 21.349609375 53.650390625 c 1
 27.650390625 60 l 1
 19.5498046875 60 l 1
 25.8828125 63.2001953125 27.4833984375 66.533203125 24.349609375 70 c 1
EndSplineSet
EndChar

StartChar: b.ext.right
Encoding: 312 -1 312
Width: 80
Flags: HW
AnchorPoint: "Extension_mkmk" 35 65 mark 0
LayerCount: 2
Fore
SplineSet
40 70 m 1
 30.0498046875 60 l 1
 23.7998046875 60 l 1
 31.2666015625 63.8662109375 33.349609375 67.2001953125 30.0498046875 70 c 1
 37.650390625 70 l 1
 47.599609375 80 l 1
 65.0498046875 80 l 1
 55.0498046875 70 l 1
 40 70 l 1
EndSplineSet
EndChar

StartChar: c.ext.right
Encoding: 313 -1 313
Width: 80
Flags: HW
AnchorPoint: "Extension_mkmk" 35 65 mark 0
LayerCount: 2
Fore
SplineSet
40 70 m 1
 30.0498046875 60 l 1
 23.7998046875 60 l 1
 31.2666015625 63.8662109375 33.349609375 67.2001953125 30.0498046875 70 c 1
 37.650390625 70 l 1
 47.599609375 80 l 1
 65.0498046875 80 l 1
 46.349609375 61.2998046875 l 1
 45.150390625 62.5 l 1
 52.650390625 70 l 1
 40 70 l 1
EndSplineSet
EndChar

StartChar: equal.ext.right
Encoding: 314 -1 314
Width: 80
Flags: HW
AnchorPoint: "Extension_mkmk" 35 65 mark 0
LayerCount: 2
Fore
SplineSet
25 70 m 1
 40 70 l 1
 40 55 l 1
 30 45 l 1
 30 60 l 1
 20 60 l 1
 25.1689453125 62.5830078125 26.8349609375 65.916015625 25 70 c 1
EndSplineSet
EndChar

StartChar: d.ext.right
Encoding: 315 -1 315
Width: 80
Flags: HW
AnchorPoint: "Extension_mkmk" 35 65 mark 0
LayerCount: 2
Fore
SplineSet
30 70 m 1
 37.650390625 70 l 1
 25.849609375 81.7998046875 l 1
 32.849609375 88.7998046875 l 1
 45.849609375 75.900390625 l 1
 30 60 l 1
 25 60 l 1
 30.033203125 63.7001953125 31.7001953125 67.033203125 30 70 c 1
EndSplineSet
EndChar

StartChar: D.ext.right
Encoding: 316 -1 316
Width: 80
Flags: HW
AnchorPoint: "Extension_mkmk" 35 65 mark 0
LayerCount: 2
Fore
SplineSet
30 70 m 1
 37.650390625 70 l 1
 27.0498046875 80.599609375 l 1
 20.75 74.2998046875 l 1
 19.5498046875 75.5 l 1
 25.849609375 81.7998046875 l 1
 32.849609375 88.7998046875 l 1
 45.849609375 75.900390625 l 1
 30 60 l 1
 25 60 l 1
 30.033203125 63.7001953125 31.7001953125 67.033203125 30 70 c 1
EndSplineSet
EndChar

StartChar: glottal.flip.ext.right
Encoding: 317 -1 317
Width: 80
Flags: HW
AnchorPoint: "Extension_mkmk" 35 65 mark 0
LayerCount: 2
Fore
SplineSet
40 70 m 1
 31.2001953125 61.099609375 l 1
 36.3671875 65.4326171875 41.8671875 65.0830078125 47.7001953125 60.0498046875 c 1
 40.2001953125 52.5 l 1
 35.1328125 58.8662109375 29.2001953125 58.81640625 22.400390625 52.349609375 c 0
 22.2998046875 52.25 22.216796875 52.150390625 22.150390625 52.0498046875 c 0
 21.8837890625 51.81640625 21.6337890625 51.5830078125 21.400390625 51.349609375 c 1
 20.2001953125 52.5498046875 l 1
 27.650390625 60 l 1
 17.650390625 60 l 1
 23.8505859375 62.533203125 25.5166015625 65.8662109375 22.650390625 70 c 1
 40 70 l 1
EndSplineSet
EndChar

StartChar: approxequal.ext.right
Encoding: 318 -1 318
Width: 80
Flags: HW
AnchorPoint: "Extension_mkmk" 35 65 mark 0
LayerCount: 2
Fore
SplineSet
20 34.900390625 m 1
 20 52.349609375 l 1
 27.849609375 60.2001953125 l 1
 27.599609375 60 l 1
 20 60 l 1
 24.2998046875 65.1337890625 24.8671875 68.466796875 21.7001953125 70 c 1
 40 70 l 1
 30 60 l 1
 30 44.900390625 l 1
 20 34.900390625 l 1
EndSplineSet
EndChar

StartChar: f.ext.right
Encoding: 319 -1 319
Width: 80
Flags: HW
AnchorPoint: "Extension_mkmk" 35 65 mark 0
LayerCount: 2
Fore
SplineSet
37.7001953125 50 m 1
 42.56640625 57.7998046875 42.9501953125 64.0830078125 38.849609375 68.849609375 c 1
 30.0498046875 60 l 1
 25.0498046875 60 l 1
 28.0830078125 63.1669921875 28.5830078125 66.5 26.5498046875 70 c 1
 37.650390625 70 l 1
 45.2001953125 77.5 l 1
 50.8671875 65.7001953125 48.3671875 56.533203125 37.7001953125 50 c 1
EndSplineSet
EndChar

StartChar: g.ext.right
Encoding: 320 -1 320
Width: 80
Flags: HW
AnchorPoint: "Extension_mkmk" 35 65 mark 0
LayerCount: 2
Fore
SplineSet
41.7998046875 48.2001953125 m 1
 34.7998046875 41.2001953125 l 1
 21.7998046875 54.099609375 l 1
 27.7001953125 60 l 1
 23.0498046875 60 l 1
 29.416015625 63.2001953125 31.349609375 66.533203125 28.849609375 70 c 1
 40 70 l 1
 30 60 l 1
 41.7998046875 48.2001953125 l 1
EndSplineSet
EndChar

StartChar: G.ext.right
Encoding: 321 -1 321
Width: 80
Flags: HW
AnchorPoint: "Extension_mkmk" 35 65 mark 0
LayerCount: 2
Fore
SplineSet
41.7998046875 48.2001953125 m 1
 27.2998046875 33.7001953125 l 1
 26.099609375 34.900390625 l 1
 33.599609375 42.400390625 l 1
 21.7998046875 54.099609375 l 1
 27.7001953125 60 l 1
 23.0498046875 60 l 1
 29.416015625 63.2001953125 31.349609375 66.533203125 28.849609375 70 c 1
 40 70 l 1
 30 60 l 1
 41.7998046875 48.2001953125 l 1
EndSplineSet
EndChar

StartChar: h.ext.right
Encoding: 322 -1 322
Width: 80
Flags: HW
AnchorPoint: "Extension_mkmk" 35 65 mark 0
LayerCount: 2
Fore
SplineSet
12.5 29.7998046875 m 1
 20 37.2998046875 l 1
 20 52.349609375 l 1
 27.849609375 60.2001953125 l 1
 27.599609375 60 l 1
 20 60 l 1
 24.2998046875 65.1337890625 24.8671875 68.466796875 21.7001953125 70 c 1
 40 70 l 1
 30 60 l 1
 30 44.900390625 l 1
 13.7001953125 28.599609375 l 1
 12.5 29.7998046875 l 1
EndSplineSet
EndChar

StartChar: j.ext.right
Encoding: 323 -1 323
Width: 80
Flags: HW
AnchorPoint: "Extension_mkmk" 35 65 mark 0
LayerCount: 2
Fore
SplineSet
17.599609375 50 m 1
 27.5498046875 60 l 1
 22.0498046875 60 l 1
 29.25 64.3662109375 31.0166015625 67.7001953125 27.349609375 70 c 1
 40 70 l 1
 30 60 l 1
 47.599609375 60 l 1
 56.2998046875 68.7001953125 l 1
 57.5 67.5 l 1
 40 50 l 1
 17.599609375 50 l 1
EndSplineSet
EndChar

StartChar: k.ext.right
Encoding: 324 -1 324
Width: 80
Flags: HW
AnchorPoint: "Extension_mkmk" 35 65 mark 0
LayerCount: 2
Fore
SplineSet
17.599609375 50 m 1
 27.5498046875 60 l 1
 22.0498046875 60 l 1
 29.251953125 64.3681640625 31.0185546875 67.7021484375 27.349609375 70 c 1
 40 70 l 1
 30 60 l 1
 49.900390625 60 l 1
 40 50 l 1
 17.599609375 50 l 1
EndSplineSet
EndChar

StartChar: l.ext.right
Encoding: 325 -1 325
Width: 80
Flags: HW
AnchorPoint: "Extension_mkmk" 35 65 mark 0
LayerCount: 2
Fore
SplineSet
35 60 m 1
 30 60 l 1
 30.8994140625 64.8330078125 34.2333984375 68.1669921875 40 70 c 1
 55 55 l 1
 47.5 47.5 l 1
 35 60 l 1
EndSplineSet
EndChar

StartChar: m.ext.right
Encoding: 326 -1 326
Width: 80
Flags: HW
AnchorPoint: "Extension_mkmk" 35 65 mark 0
LayerCount: 2
Fore
SplineSet
20 70 m 1
 30 70 l 1
 30 75 l 1
 40 85 l 1
 40 70 l 1
 30 60 l 1
 20 60 l 1
 24.2451171875 64.39453125 24.2451171875 67.7275390625 20 70 c 1
EndSplineSet
EndChar

StartChar: n.ext.right
Encoding: 327 -1 327
Width: 80
Flags: HW
AnchorPoint: "Extension_mkmk" 35 65 mark 0
LayerCount: 2
Fore
SplineSet
40 70 m 1
 40 55 l 1
 23.7001953125 38.7001953125 l 1
 22.5 39.900390625 l 1
 30 47.400390625 l 1
 30 60 l 1
 20 60 l 1
 25.1669921875 62.56640625 26.8330078125 65.8994140625 25 70 c 1
 40 70 l 1
EndSplineSet
EndChar

StartChar: p.ext.right
Encoding: 328 -1 328
Width: 80
Flags: HW
AnchorPoint: "Extension_mkmk" 35 65 mark 0
LayerCount: 2
Fore
SplineSet
25.4501953125 60 m 1
 31.81640625 63.3330078125 33.7666015625 66.6669921875 31.2998046875 70 c 1
 37.599609375 70 l 1
 44.650390625 77.150390625 l 1
 55.9501953125 65.9501953125 l 1
 48.7998046875 58.7998046875 l 1
 38.7998046875 68.7998046875 l 1
 30 60 l 1
 25.4501953125 60 l 1
EndSplineSet
EndChar

StartChar: P.ext.right
Encoding: 329 -1 329
Width: 80
Flags: HW
AnchorPoint: "Extension_mkmk" 35 65 mark 0
LayerCount: 2
Fore
SplineSet
25.4501953125 60 m 1
 31.81640625 63.3330078125 33.7666015625 66.6669921875 31.2998046875 70 c 1
 37.599609375 70 l 1
 44.650390625 77.150390625 l 1
 55.9501953125 65.9501953125 l 1
 48.7998046875 58.7998046875 l 1
 41.2998046875 51.2998046875 l 1
 40.099609375 52.5 l 1
 47.599609375 60 l 1
 38.7998046875 68.7998046875 l 1
 30 60 l 1
 25.4501953125 60 l 1
EndSplineSet
EndChar

StartChar: r.upsidedown.ext.right
Encoding: 330 -1 330
Width: 80
Flags: HW
AnchorPoint: "Extension_mkmk" 35 65 mark 0
LayerCount: 2
Fore
SplineSet
55 55 m 1
 40 40 l 1
 38.7998046875 41.2001953125 l 1
 46.2998046875 48.7001953125 l 1
 35 60 l 1
 30 60 l 1
 30.8994140625 64.8330078125 34.2333984375 68.1669921875 40 70 c 1
 55 55 l 1
EndSplineSet
EndChar

StartChar: r.ext.right
Encoding: 331 -1 331
Width: 80
Flags: HW
AnchorPoint: "Extension_mkmk" 35 65 mark 0
LayerCount: 2
Fore
SplineSet
62.5 62.5 m 1
 47.5 47.5 l 1
 35 60 l 1
 30 60 l 1
 30.8994140625 64.8330078125 34.2333984375 68.1669921875 40 70 c 1
 53.7998046875 56.2001953125 l 1
 61.2998046875 63.7001953125 l 1
 62.5 62.5 l 1
EndSplineSet
EndChar

StartChar: s.ext.right
Encoding: 332 -1 332
Width: 80
Flags: HW
AnchorPoint: "Extension_mkmk" 35 65 mark 0
LayerCount: 2
Fore
SplineSet
20 60 m 1
 27.2197265625 63.06640625 30.5537109375 66.3994140625 30 70 c 1
 37.599609375 70 l 1
 46.2998046875 78.7001953125 l 1
 47.5 77.5 l 1
 30 60 l 1
 20 60 l 1
EndSplineSet
EndChar

StartChar: t.ext.right
Encoding: 333 -1 333
Width: 80
Flags: HW
AnchorPoint: "Extension_mkmk" 35 65 mark 0
LayerCount: 2
Fore
SplineSet
32.349609375 70 m 1
 37.599609375 70 l 1
 37.599609375 82.599609375 l 1
 47.599609375 92.599609375 l 1
 47.599609375 77.599609375 l 1
 30 60 l 1
 24.4501953125 60 l 1
 30.02734375 63.521484375 32.66015625 66.8544921875 32.349609375 70 c 1
EndSplineSet
EndChar

StartChar: v.ext.right
Encoding: 334 -1 334
Width: 80
Flags: HW
AnchorPoint: "Extension_mkmk" 35 65 mark 0
LayerCount: 2
Fore
SplineSet
45.150390625 77.5 m 1
 45.2001953125 77.5 l 1
 44.837890625 66.302734375 48.98828125 57.1357421875 57.650390625 50 c 1
 45.4130859375 53.0791015625 39.146484375 59.3623046875 38.849609375 68.849609375 c 1
 30.0498046875 60 l 1
 25.0498046875 60 l 1
 28.0830078125 63.1669921875 28.5830078125 66.5 26.5498046875 70 c 1
 37.650390625 70 l 1
 45.150390625 77.5 l 1
EndSplineSet
EndChar

StartChar: velar.ext.right
Encoding: 335 -1 335
Width: 80
Flags: HW
AnchorPoint: "Extension_mkmk" 35 65 mark 0
LayerCount: 2
Fore
SplineSet
39.2001953125 69.2001953125 m 2
 30.0498046875 60 l 1
 25 60 l 1
 28.8662109375 62.533203125 29.0830078125 65.8662109375 25.650390625 70 c 1
 37.75 70 l 1
 38.900390625 71.150390625 l 2
 42.1669921875 74.4833984375 45.4169921875 76.25 48.650390625 76.4501953125 c 0
 52.1162109375 76.68359375 55.5 75.06640625 58.7998046875 71.599609375 c 1
 51.2998046875 64.0498046875 l 1
 49.900390625 66.5830078125 48 68.3828125 45.599609375 69.4501953125 c 0
 43.1669921875 70.5498046875 41.033203125 70.466796875 39.2001953125 69.2001953125 c 2
EndSplineSet
EndChar

StartChar: w.ext.right
Encoding: 336 -1 336
Width: 80
Flags: HW
AnchorPoint: "Extension_mkmk" 35 65 mark 0
LayerCount: 2
Fore
SplineSet
31.2998046875 41.25 m 1
 30.099609375 42.4501953125 l 1
 37.599609375 49.9501953125 l 1
 37.599609375 67.650390625 l 1
 30 60 l 1
 25 60 l 1
 27.3330078125 64 27.3330078125 67.3330078125 25 70 c 1
 37.599609375 70 l 1
 47.599609375 80 l 1
 47.599609375 57.5498046875 l 1
 31.2998046875 41.25 l 1
EndSplineSet
EndChar

StartChar: x.ext.right
Encoding: 337 -1 337
Width: 80
Flags: HW
AnchorPoint: "Extension_mkmk" 35 65 mark 0
LayerCount: 2
Fore
SplineSet
26.349609375 70 m 1
 40 70 l 1
 30 60 l 1
 31.7333984375 52.7998046875 38.0166015625 47.400390625 48.849609375 43.7998046875 c 1
 34.25 43.56640625 25.0830078125 46.8505859375 21.349609375 53.650390625 c 1
 27.650390625 60 l 1
 20 60 l 1
 25.9560546875 64.1015625 28.0732421875 67.4345703125 26.349609375 70 c 1
EndSplineSet
EndChar

StartChar: y.ext.right
Encoding: 338 -1 338
Width: 80
Flags: HW
AnchorPoint: "Extension_mkmk" 35 65 mark 0
LayerCount: 2
Fore
SplineSet
30 60 m 1
 20 60 l 1
 25.1669921875 62.56640625 26.8330078125 65.8994140625 25 70 c 1
 40 70 l 1
 40 55 l 1
 30.099609375 45.099609375 l 1
 45 45.099609375 l 1
 35 35 l 1
 17.599609375 35 l 1
 30 47.4501953125 l 1
 30 60 l 1
EndSplineSet
EndChar

StartChar: z.ext.right
Encoding: 339 -1 339
Width: 80
Flags: HW
AnchorPoint: "Extension_mkmk" 35 65 mark 0
LayerCount: 2
Fore
SplineSet
20.099609375 52.5 m 1
 27.599609375 60 l 1
 20 60 l 1
 27.2333984375 63.06640625 30.56640625 66.3994140625 30 70 c 1
 40 70 l 1
 21.2998046875 51.2998046875 l 1
 20.099609375 52.5 l 1
EndSplineSet
EndChar

StartChar: glottal.ext.down
Encoding: 340 -1 340
Width: 80
Flags: HW
AnchorPoint: "Extension_mkmk" 25 5 mark 0
LayerCount: 2
Fore
SplineSet
36.5498046875 -1.150390625 m 1
 30.533203125 1.564453125 28.1328125 5.0810546875 29.349609375 9.400390625 c 1
 20 0 l 1
 20 10 l 1
 23.3330078125 9.3662109375 26.6669921875 13.099609375 30 21.2001953125 c 1
 30 12.400390625 l 1
 36.2998046875 18.7001953125 l 1
 37.5 17.5 l 1
 36.75 16.75 l 2
 30.830078125 10.443359375 33.263671875 6.9765625 44.0498046875 6.349609375 c 1
 36.5498046875 -1.150390625 l 1
EndSplineSet
Substitution2: "Single Substitution lookup 32 subtable" glottal.ext.left
Substitution2: "Single Substitution lookup 31 subtable" glottal.ext.right
Substitution2: "Single Substitution lookup 30 subtable" glottal.ext.diagdown
Substitution2: "Single Substitution lookup 26 subtable" glottal.ext.left
Substitution2: "Single Substitution lookup 25 subtable" glottal.ext.right
Substitution2: "Single Substitution lookup 24 subtable" glottal.ext.diagdown
EndChar

StartChar: ncaron.ext.down
Encoding: 341 -1 341
Width: 80
Flags: HW
AnchorPoint: "Extension_mkmk" 25 5 mark 0
LayerCount: 2
Fore
SplineSet
20 15 m 1
 24.1005859375 13.1669921875 27.43359375 14.8330078125 30 20 c 1
 30 10 l 1
 42.599609375 10 l 1
 51.2998046875 18.7001953125 l 1
 52.5 17.5 l 1
 35 0 l 1
 20 0 l 1
 20 15 l 1
EndSplineSet
Substitution2: "Single Substitution lookup 32 subtable" ncaron.ext.left
Substitution2: "Single Substitution lookup 31 subtable" ncaron.ext.right
Substitution2: "Single Substitution lookup 30 subtable" ncaron.ext.diagdown
Substitution2: "Single Substitution lookup 26 subtable" ncaron.ext.left
Substitution2: "Single Substitution lookup 25 subtable" ncaron.ext.right
Substitution2: "Single Substitution lookup 24 subtable" ncaron.ext.diagdown
EndChar

StartChar: scaron.ext.down
Encoding: 342 -1 342
Width: 80
Flags: HW
AnchorPoint: "Extension_mkmk" 25 5 mark 0
LayerCount: 2
Fore
SplineSet
20 15 m 1
 23.3330078125 12.6005859375 26.6669921875 13.43359375 30 17.5 c 1
 30 12.349609375 l 1
 40 22.2998046875 l 1
 40 -0.099609375 l 1
 30 -10 l 1
 30 10 l 1
 20 0 l 1
 20 15 l 1
EndSplineSet
Substitution2: "Single Substitution lookup 32 subtable" scaron.ext.left
Substitution2: "Single Substitution lookup 31 subtable" scaron.ext.right
Substitution2: "Single Substitution lookup 30 subtable" scaron.ext.diagdown
Substitution2: "Single Substitution lookup 26 subtable" scaron.ext.left
Substitution2: "Single Substitution lookup 25 subtable" scaron.ext.right
Substitution2: "Single Substitution lookup 24 subtable" scaron.ext.diagdown
EndChar

StartChar: ddotbelow.ext.down
Encoding: 343 -1 343
Width: 80
Flags: HW
AnchorPoint: "Extension_mkmk" 25 5 mark 0
LayerCount: 2
Fore
SplineSet
-1 0.75 m 1
 4.4755859375 5.853515625 11.4755859375 6.3701171875 20 2.2998046875 c 1
 20 15.650390625 l 1
 23.466796875 12.5166015625 26.7998046875 14.1171875 30 20.4501953125 c 1
 30 10 l 1
 13.650390625 -6.349609375 l 1
 10.95703125 -1.1435546875 6.0732421875 1.22265625 -1 0.75 c 1
EndSplineSet
Substitution2: "Single Substitution lookup 32 subtable" ddotbelow.ext.left
Substitution2: "Single Substitution lookup 31 subtable" ddotbelow.ext.right
Substitution2: "Single Substitution lookup 30 subtable" ddotbelow.ext.diagdown
Substitution2: "Single Substitution lookup 26 subtable" ddotbelow.ext.left
Substitution2: "Single Substitution lookup 25 subtable" ddotbelow.ext.right
Substitution2: "Single Substitution lookup 24 subtable" ddotbelow.ext.diagdown
EndChar

StartChar: tcedilla.ext.down
Encoding: 344 -1 344
Width: 80
Flags: HW
AnchorPoint: "Extension_mkmk" 25 5 mark 0
LayerCount: 2
Fore
SplineSet
20 2.2998046875 m 1
 20 15.650390625 l 1
 23.466796875 12.5166015625 26.7998046875 14.1171875 30 20.4501953125 c 1
 30 10 l 1
 13.650390625 -6.349609375 l 1
 6.0830078125 -4.1826171875 1.9833984375 0 1.349609375 6.2001953125 c 0
 1.283203125 6.7333984375 1.25 7.2998046875 1.25 7.900390625 c 0
 1.25 8.2998046875 1.2666015625 8.7001953125 1.2998046875 9.099609375 c 1
 3.56640625 4.6337890625 9.7998046875 2.3671875 20 2.2998046875 c 1
EndSplineSet
Substitution2: "Single Substitution lookup 32 subtable" tcedilla.ext.left
Substitution2: "Single Substitution lookup 31 subtable" tcedilla.ext.right
Substitution2: "Single Substitution lookup 30 subtable" tcedilla.ext.diagdown
Substitution2: "Single Substitution lookup 26 subtable" tcedilla.ext.left
Substitution2: "Single Substitution lookup 25 subtable" tcedilla.ext.right
Substitution2: "Single Substitution lookup 24 subtable" tcedilla.ext.diagdown
EndChar

StartChar: ccedilla.ext.down
Encoding: 345 -1 345
Width: 80
Flags: HW
AnchorPoint: "Extension_mkmk" 25 5 mark 0
LayerCount: 2
Fore
SplineSet
-6.2998046875 -0.400390625 m 1
 8.2001953125 14.099609375 l 1
 20 2.400390625 l 1
 20 10 l 1
 22.5 7.3330078125 25.8330078125 9 30 15 c 1
 30 10 l 1
 14.150390625 -5.849609375 l 1
 2.400390625 5.900390625 l 1
 -5.099609375 -1.599609375 l 1
 -6.2998046875 -0.400390625 l 1
EndSplineSet
Substitution2: "Single Substitution lookup 32 subtable" ccedilla.ext.left
Substitution2: "Single Substitution lookup 31 subtable" ccedilla.ext.right
Substitution2: "Single Substitution lookup 30 subtable" ccedilla.ext.diagdown
Substitution2: "Single Substitution lookup 26 subtable" ccedilla.ext.left
Substitution2: "Single Substitution lookup 25 subtable" ccedilla.ext.right
Substitution2: "Single Substitution lookup 24 subtable" ccedilla.ext.diagdown
EndChar

StartChar: ccaron.ext.down
Encoding: 346 -1 346
Width: 80
Flags: HW
AnchorPoint: "Extension_mkmk" 25 5 mark 0
LayerCount: 2
Fore
SplineSet
20 0 m 1
 20.099609375 0.099609375 l 1
 40 0.099609375 l 1
 30 -10 l 1
 29.900390625 -10 l 1
 21.2998046875 -18.599609375 l 1
 20.099609375 -17.400390625 l 1
 27.5 -10 l 1
 7.599609375 -10 l 1
 20 2.4501953125 l 1
 20 10 l 1
 23.3330078125 9.5 26.6669921875 11.1669921875 30 15 c 1
 30 10 l 1
 20.0498046875 0.099609375 l 1
 20 0.099609375 l 1
 20 0 l 1
EndSplineSet
Substitution2: "Single Substitution lookup 32 subtable" ccaron.ext.left
Substitution2: "Single Substitution lookup 31 subtable" ccaron.ext.right
Substitution2: "Single Substitution lookup 30 subtable" ccaron.ext.diagdown
Substitution2: "Single Substitution lookup 26 subtable" ccaron.ext.left
Substitution2: "Single Substitution lookup 25 subtable" ccaron.ext.right
Substitution2: "Single Substitution lookup 24 subtable" ccaron.ext.diagdown
EndChar

StartChar: lcedilla.ext.down
Encoding: 347 -1 347
Width: 80
Flags: HW
AnchorPoint: "Extension_mkmk" 25 5 mark 0
LayerCount: 2
Fore
SplineSet
20 0 m 1
 0 0 l 1
 10 10 l 1
 20 10 l 1
 20 15 l 1
 24.333984375 13.1650390625 27.6669921875 14.8310546875 30 20 c 1
 30 10 l 1
 20 0 l 1
EndSplineSet
Substitution2: "Single Substitution lookup 32 subtable" lcedilla.ext.left
Substitution2: "Single Substitution lookup 31 subtable" lcedilla.ext.right
Substitution2: "Single Substitution lookup 30 subtable" lcedilla.ext.diagdown
Substitution2: "Single Substitution lookup 26 subtable" lcedilla.ext.left
Substitution2: "Single Substitution lookup 25 subtable" lcedilla.ext.right
Substitution2: "Single Substitution lookup 24 subtable" lcedilla.ext.diagdown
EndChar

StartChar: zdotaccent.ext.down
Encoding: 348 -1 348
Width: 80
Flags: HW
AnchorPoint: "Extension_mkmk" 25 5 mark 0
LayerCount: 2
Fore
SplineSet
62.5 27.5 m 1
 45 10 l 1
 29.9501953125 10 l 1
 20 0 l 1
 20 13.4501953125 l 1
 23.6005859375 11.9169921875 26.93359375 13.25 30 17.4501953125 c 1
 29.9501953125 12.400390625 l 1
 37.5498046875 20 l 1
 52.599609375 20 l 1
 61.2998046875 28.7001953125 l 1
 62.5 27.5 l 1
EndSplineSet
Substitution2: "Single Substitution lookup 32 subtable" zdotaccent.ext.left
Substitution2: "Single Substitution lookup 31 subtable" zdotaccent.ext.right
Substitution2: "Single Substitution lookup 30 subtable" zdotaccent.ext.diagdown
Substitution2: "Single Substitution lookup 26 subtable" zdotaccent.ext.left
Substitution2: "Single Substitution lookup 25 subtable" zdotaccent.ext.right
Substitution2: "Single Substitution lookup 24 subtable" zdotaccent.ext.diagdown
EndChar

StartChar: zcaron.ext.down
Encoding: 349 -1 349
Width: 80
Flags: HW
AnchorPoint: "Extension_mkmk" 25 5 mark 0
LayerCount: 2
Fore
SplineSet
30 -10 m 1
 30 10 l 1
 20 0 l 1
 20 15 l 1
 23.3330078125 12.6005859375 26.6669921875 13.43359375 30 17.5 c 1
 30 12.349609375 l 1
 40 22.349609375 l 1
 40 2.400390625 l 1
 46.2998046875 8.7001953125 l 1
 47.5 7.5 l 1
 40 0 l 1
 40 -0.099609375 l 1
 30 -10 l 1
EndSplineSet
Substitution2: "Single Substitution lookup 32 subtable" zcaron.ext.left
Substitution2: "Single Substitution lookup 31 subtable" zcaron.ext.right
Substitution2: "Single Substitution lookup 30 subtable" zcaron.ext.diagdown
Substitution2: "Single Substitution lookup 26 subtable" zcaron.ext.left
Substitution2: "Single Substitution lookup 25 subtable" zcaron.ext.right
Substitution2: "Single Substitution lookup 24 subtable" zcaron.ext.diagdown
EndChar

StartChar: rcaron.ext.down
Encoding: 350 -1 350
Width: 80
Flags: HW
AnchorPoint: "Extension_mkmk" 25 5 mark 0
LayerCount: 2
Fore
SplineSet
20 2.400390625 m 1
 20 13.5 l 1
 23.5 11.466796875 26.8330078125 11.966796875 30 15 c 1
 30 10 l 1
 21.150390625 1.2001953125 l 1
 30.650390625 0.900390625 36.93359375 -5.3662109375 40 -17.599609375 c 1
 32.8662109375 -8.9326171875 23.7001953125 -4.783203125 12.5 -5.150390625 c 1
 20 2.400390625 l 1
EndSplineSet
Substitution2: "Single Substitution lookup 32 subtable" rcaron.ext.left
Substitution2: "Single Substitution lookup 31 subtable" rcaron.ext.right
Substitution2: "Single Substitution lookup 30 subtable" rcaron.ext.diagdown
Substitution2: "Single Substitution lookup 26 subtable" rcaron.ext.left
Substitution2: "Single Substitution lookup 25 subtable" rcaron.ext.right
Substitution2: "Single Substitution lookup 24 subtable" rcaron.ext.diagdown
EndChar

StartChar: b.ext.down
Encoding: 351 -1 351
Width: 80
Flags: HW
AnchorPoint: "Extension_mkmk" 25 5 mark 0
LayerCount: 2
Fore
SplineSet
30 10 m 1
 29.9501953125 10 l 1
 20 0 l 1
 20 13.4501953125 l 1
 23.6005859375 11.9169921875 26.93359375 13.25 30 17.4501953125 c 1
 29.9501953125 12.400390625 l 1
 37.5498046875 20 l 1
 55 20 l 1
 45 10 l 1
 30 10 l 1
EndSplineSet
Substitution2: "Single Substitution lookup 32 subtable" b.ext.left
Substitution2: "Single Substitution lookup 31 subtable" b.ext.right
Substitution2: "Single Substitution lookup 30 subtable" b.ext.diagdown
Substitution2: "Single Substitution lookup 26 subtable" b.ext.left
Substitution2: "Single Substitution lookup 25 subtable" b.ext.right
Substitution2: "Single Substitution lookup 24 subtable" b.ext.diagdown
EndChar

StartChar: c.ext.down
Encoding: 352 -1 352
Width: 80
Flags: HW
AnchorPoint: "Extension_mkmk" 25 5 mark 0
LayerCount: 2
Fore
SplineSet
29.9501953125 12.400390625 m 1
 37.5498046875 20 l 1
 55 20 l 1
 36.2998046875 1.2998046875 l 1
 35.099609375 2.5 l 1
 42.599609375 10 l 1
 29.9501953125 10 l 1
 20 0 l 1
 20 13.4501953125 l 1
 23.6005859375 11.9169921875 26.93359375 13.25 30 17.4501953125 c 1
 29.9501953125 12.400390625 l 1
EndSplineSet
Substitution2: "Single Substitution lookup 32 subtable" c.ext.left
Substitution2: "Single Substitution lookup 31 subtable" c.ext.right
Substitution2: "Single Substitution lookup 30 subtable" c.ext.diagdown
Substitution2: "Single Substitution lookup 26 subtable" c.ext.left
Substitution2: "Single Substitution lookup 25 subtable" c.ext.right
Substitution2: "Single Substitution lookup 24 subtable" c.ext.diagdown
EndChar

StartChar: equal.ext.down
Encoding: 353 -1 353
Width: 80
Flags: HW
AnchorPoint: "Extension_mkmk" 25 5 mark 0
LayerCount: 2
Fore
SplineSet
20 0 m 1
 20 15 l 1
 24.1005859375 13.1669921875 27.43359375 14.8330078125 30 20 c 1
 30 10 l 1
 45 10 l 1
 45 -5 l 1
 35 -15 l 1
 35 0 l 1
 20 0 l 1
EndSplineSet
Substitution2: "Single Substitution lookup 32 subtable" equal.ext.left
Substitution2: "Single Substitution lookup 31 subtable" equal.ext.right
Substitution2: "Single Substitution lookup 30 subtable" equal.ext.diagdown
Substitution2: "Single Substitution lookup 26 subtable" equal.ext.left
Substitution2: "Single Substitution lookup 25 subtable" equal.ext.right
Substitution2: "Single Substitution lookup 24 subtable" equal.ext.diagdown
EndChar

StartChar: d.ext.down
Encoding: 354 -1 354
Width: 80
Flags: HW
AnchorPoint: "Extension_mkmk" 25 5 mark 0
LayerCount: 2
Fore
SplineSet
19.9501953125 2.2998046875 m 1
 20 2.2998046875 l 1
 20 14.5498046875 l 1
 23.06640625 13.4833984375 26.3994140625 14.400390625 30 17.2998046875 c 1
 30 10 l 1
 12.349609375 -7.7001953125 l 1
 -5.0498046875 -7.7001953125 l 1
 4.9501953125 2.2998046875 l 1
 19.9501953125 2.2998046875 l 1
EndSplineSet
Substitution2: "Single Substitution lookup 32 subtable" d.ext.left
Substitution2: "Single Substitution lookup 31 subtable" d.ext.right
Substitution2: "Single Substitution lookup 30 subtable" d.ext.diagdown
Substitution2: "Single Substitution lookup 26 subtable" d.ext.left
Substitution2: "Single Substitution lookup 25 subtable" d.ext.right
Substitution2: "Single Substitution lookup 24 subtable" d.ext.diagdown
EndChar

StartChar: D.ext.down
Encoding: 355 -1 355
Width: 80
Flags: HW
AnchorPoint: "Extension_mkmk" 25 5 mark 0
LayerCount: 2
Fore
SplineSet
19.9501953125 2.2998046875 m 1
 20 2.2998046875 l 1
 20 14.5498046875 l 1
 23.06640625 13.4833984375 26.3994140625 14.400390625 30 17.2998046875 c 1
 30 10 l 1
 12.349609375 -7.7001953125 l 1
 -9.9501953125 -7.7001953125 l 1
 0.0498046875 2.2998046875 l 1
 7.5498046875 9.7998046875 l 1
 8.75 8.599609375 l 1
 2.4501953125 2.2998046875 l 1
 19.9501953125 2.2998046875 l 1
EndSplineSet
Substitution2: "Single Substitution lookup 32 subtable" D.ext.left
Substitution2: "Single Substitution lookup 31 subtable" D.ext.right
Substitution2: "Single Substitution lookup 30 subtable" D.ext.diagdown
Substitution2: "Single Substitution lookup 26 subtable" D.ext.left
Substitution2: "Single Substitution lookup 25 subtable" D.ext.right
Substitution2: "Single Substitution lookup 24 subtable" D.ext.diagdown
EndChar

